<svg viewBox="0 0 283 282" xmlns="http://www.w3.org/2000/svg" xmlns:xlink="http://www.w3.org/1999/xlink"><path d="M0 282.08h283.26V0H0z" fill="#fff" stroke="#fff" stroke-linecap="square" stroke-linejoin="round"/><defs><clipPath id="a"><path d="M46.425 10.8h223.2v230.4h-223.2z"/></clipPath></defs><path d="M46.425 30H84.752l2.254.022 2.255 3.297 2.254 137.42 2.255 50.809 2.254.444 2.255.003H269.62" clip-path="url(#a)" fill="none" stroke="#00bfbf" stroke-linecap="square" stroke-linejoin="round" stroke-width="2"/><path d="M46.425 30.009l2.255.006 2.254.01 2.255.015 2.254.026 2.255.043 2.254.072 2.255.118 2.254.196 2.255.323 2.254.533 2.255.878 2.254 1.436 2.255 2.333 2.254 3.741 2.255 5.879 2.254 8.949 2.255 12.985 2.254 17.588 2.255 21.726 2.254 23.979 2.255 23.388 2.254 20.217 2.255 15.73 2.254 11.267 2.255 7.6 2.254 4.922 2.255 3.103 2.254 1.924 2.255 1.18 2.254.72 2.255.436 2.254.265 2.255.16 2.254.097 2.255.058 2.254.035 2.255.022 2.254.012 2.255.008 2.254.005 2.255.003 2.254.001 2.255.001 2.254.001h13.527l2.255.001H269.62" clip-path="url(#a)" fill="none" stroke="#00f" stroke-linecap="square" stroke-linejoin="round" stroke-width="2"/><path d="M46.425 52.887l2.255 2.116 2.254 2.28 2.255 2.45 2.254 2.628 2.255 2.81 2.254 2.995 2.255 3.183 2.254 3.37 2.255 3.559 2.254 3.74 2.255 3.919 2.254 4.087 2.255 4.244 2.254 4.388 2.255 4.517 2.254 4.626 2.255 4.715 2.254 4.783 2.255 4.826 2.254 4.847 2.255 4.84 2.254 4.813 2.255 4.758 2.254 4.682 2.255 4.585 2.254 4.467 2.255 4.332 2.254 4.183 2.255 4.02 2.254 3.849 2.255 3.668 2.254 3.484 2.255 3.296 2.254 3.108 2.255 2.92 2.254 2.736 2.255 2.556 2.254 2.382 2.255 2.213 2.254 2.053 2.255 1.899 2.254 1.753 2.255 1.616 2.254 1.486 2.255 1.366 2.254 1.253 2.255 1.148 2.254 1.05 2.255.96 2.254.876 2.255.8 2.254.728 2.255.664 2.254.604 2.255.55 2.254.499 2.255.454 2.254.412 2.255.374 2.254.339 2.255.308 2.254.279 2.255.253 2.254.23 2.255.207 2.254.188 2.255.17 2.254.155 2.255.14 2.254.126 2.255.114 2.254.104 2.255.094 2.254.084 2.255.077 2.254.07 2.255.062 2.254.057 2.255.051 2.254.047 2.255.042 2.254.038 2.255.034 2.254.031 2.255.028 2.254.026 2.255.022 2.254.021 2.255.019 2.254.017 2.255.015 2.254.014 2.255.013 2.254.011 2.255.01 2.254.01 2.255.008 2.254.007 2.255.007" clip-path="url(#a)" fill="none" stroke="red" stroke-linecap="square" stroke-linejoin="round" stroke-width="2"/><path d="M46.425 81.637l2.255 1.929 2.254 1.972 2.255 2.014 2.254 2.056 2.255 2.096 2.254 2.133 2.255 2.17 2.254 2.205 2.255 2.237 2.254 2.267 2.255 2.295 2.254 2.321 2.255 2.344 2.254 2.363 2.255 2.382 2.254 2.395 2.255 2.408 2.254 2.416 2.255 2.421 2.254 2.424 2.255 2.424 2.254 2.42 2.255 2.412 2.254 2.403 2.255 2.39 2.254 2.375 2.255 2.356 2.254 2.335 2.255 2.31 2.254 2.285 2.255 2.255 2.254 2.225 2.255 2.19 2.254 2.156 2.255 2.12 2.254 2.079 2.255 2.04 2.254 1.997 2.255 1.955 2.254 1.91 2.255 1.867 2.254 1.82 2.255 1.775 2.254 1.728 2.255 1.68 2.254 1.635 2.255 1.586 2.254 1.54 2.255 1.493 2.254 1.446 2.255 1.4 2.254 1.355 2.255 1.31 2.254 1.264 2.255 1.22 2.254 1.179 2.255 1.135 2.254 1.095 2.255 1.053 2.254 1.015 2.255.975 2.254.938 2.255.902 2.254.866 2.255.831 2.254.798 2.255.765 2.254.734 2.255.704 2.254.674 2.255.645 2.254.618 2.255.592 2.254.566 2.255.542 2.254.518 2.255.495 2.254.474 2.255.452 2.254.432 2.255.413 2.254.394 2.255.376 2.254.36 2.255.342 2.254.327 2.255.312 2.254.298 2.255.284 2.254.27 2.255.259 2.254.246 2.255.235 2.254.223 2.255.213 2.254.203 2.255.194 2.254.184 2.255.175" clip-path="url(#a)" fill="none" stroke="#bfbf00" stroke-linecap="square" stroke-linejoin="round" stroke-width="2"/><defs><path id="b" d="M46.425-40.878v-230.4"/><path id="c" d="M91.065-40.878v-230.4"/><path id="d" d="M135.7-40.878v-230.4"/><path id="e" d="M180.34-40.878v-230.4"/><path id="f" d="M224.98-40.878v-230.4"/><path id="g" d="M269.62-40.878v-230.4"/><path id="h" d="M46.425-60.078h223.2"/><path id="i" d="M46.425-98.478h223.2"/><path id="j" d="M46.425-136.88h223.2"/><path id="k" d="M46.425-175.28h223.2"/><path id="l" d="M46.425-213.68h223.2"/><path id="m" d="M46.425-252.08h223.2"/></defs><g clip-path="url(#a)"><use y="282.078" fill="none" stroke="#000" stroke-dasharray="1 3" stroke-linejoin="round" stroke-width=".5" xlink:href="#b"/></g><g clip-path="url(#a)"><use y="282.078" fill="none" stroke="#000" stroke-dasharray="1 3" stroke-linejoin="round" stroke-width=".5" xlink:href="#c"/></g><g clip-path="url(#a)"><use y="282.078" fill="none" stroke="#000" stroke-dasharray="1 3" stroke-linejoin="round" stroke-width=".5" xlink:href="#d"/></g><g clip-path="url(#a)"><use y="282.078" fill="none" stroke="#000" stroke-dasharray="1 3" stroke-linejoin="round" stroke-width=".5" xlink:href="#e"/></g><g clip-path="url(#a)"><use y="282.078" fill="none" stroke="#000" stroke-dasharray="1 3" stroke-linejoin="round" stroke-width=".5" xlink:href="#f"/></g><g clip-path="url(#a)"><use y="282.078" fill="none" stroke="#000" stroke-dasharray="1 3" stroke-linejoin="round" stroke-width=".5" xlink:href="#g"/></g><g clip-path="url(#a)"><use y="282.078" fill="none" stroke="#000" stroke-dasharray="1 3" stroke-linejoin="round" stroke-width=".5" xlink:href="#h"/></g><g clip-path="url(#a)"><use y="282.078" fill="none" stroke="#000" stroke-dasharray="1 3" stroke-linejoin="round" stroke-width=".5" xlink:href="#i"/></g><g clip-path="url(#a)"><use y="282.078" fill="none" stroke="#000" stroke-dasharray="1 3" stroke-linejoin="round" stroke-width=".5" xlink:href="#j"/></g><g clip-path="url(#a)"><use y="282.078" fill="none" stroke="#000" stroke-dasharray="1 3" stroke-linejoin="round" stroke-width=".5" xlink:href="#k"/></g><g clip-path="url(#a)"><use y="282.078" fill="none" stroke="#000" stroke-dasharray="1 3" stroke-linejoin="round" stroke-width=".5" xlink:href="#l"/></g><g clip-path="url(#a)"><use y="282.078" fill="none" stroke="#000" stroke-dasharray="1 3" stroke-linejoin="round" stroke-width=".5" xlink:href="#m"/></g><path d="M46.425 241.2V10.8" fill="none" stroke="#000" stroke-linecap="square" stroke-linejoin="round"/><defs><path id="n" d="M0 0h4"/></defs><g fill="none" stroke="#000" stroke-linejoin="round" stroke-width=".5"><use x="46.425" y="222" xlink:href="#n"/><use x="46.425" y="222" xlink:href="#n"/></g><g fill="none" stroke="#000" stroke-linejoin="round" stroke-width=".5"><use x="46.425" y="183.6" xlink:href="#n"/><use x="46.425" y="183.6" xlink:href="#n"/></g><g fill="none" stroke="#000" stroke-linejoin="round" stroke-width=".5"><use x="46.425" y="145.2" xlink:href="#n"/><use x="46.425" y="145.2" xlink:href="#n"/></g><g fill="none" stroke="#000" stroke-linejoin="round" stroke-width=".5"><use x="46.425" y="106.8" xlink:href="#n"/><use x="46.425" y="106.8" xlink:href="#n"/></g><g fill="none" stroke="#000" stroke-linejoin="round" stroke-width=".5"><use x="46.425" y="68.4" xlink:href="#n"/><use x="46.425" y="68.4" xlink:href="#n"/></g><g fill="none" stroke="#000" stroke-linejoin="round" stroke-width=".5"><use x="46.425" y="30" xlink:href="#n"/><use x="46.425" y="30" xlink:href="#n"/></g><defs><path id="o" d="M31.781-66.406q-7.61 0-11.453 7.5Q16.5-51.422 16.5-36.375q0 14.984 3.828 22.484 3.844 7.5 11.453 7.5 7.672 0 11.5-7.5 3.844-7.5 3.844-22.484 0-15.047-3.844-22.531-3.828-7.5-11.5-7.5m0-7.813q12.266 0 18.734 9.704 6.469 9.687 6.469 28.14 0 18.407-6.469 28.11-6.469 9.687-18.734 9.687-12.25 0-18.719-9.687-6.469-9.703-6.469-28.11 0-18.452 6.469-28.14 6.469-9.703 18.719-9.703"/><path id="p" d="M10.688-12.406H21V0H10.688z"/></defs><g transform="matrix(.12 0 0 .12 24.925 226.37)"><use xlink:href="#o"/><use x="63.623" xlink:href="#p"/><use x="95.41" xlink:href="#o"/></g><defs><path id="q" d="M19.188-8.297H53.61V0H7.329v-8.297q5.61-5.812 15.297-15.594 9.703-9.797 12.188-12.64 4.734-5.313 6.61-9 1.89-3.688 1.89-7.25 0-5.813-4.078-9.47-4.078-3.672-10.625-3.672-4.64 0-9.797 1.61-5.14 1.61-11 4.89v-9.968q5.953-2.391 11.125-3.61 5.188-1.219 9.484-1.219 11.328 0 18.062 5.672 6.735 5.656 6.735 15.125 0 4.5-1.688 8.531-1.672 4.016-6.125 9.485-1.218 1.422-7.765 8.187-6.532 6.766-18.453 18.922"/></defs><g transform="matrix(.12 0 0 .12 25.331 187.97)"><use xlink:href="#o"/><use x="63.623" xlink:href="#p"/><use x="95.41" xlink:href="#q"/></g><defs><path id="r" d="M37.797-64.312L12.891-25.39h24.906zm-2.594-8.594H47.61v47.516h10.406v8.203H47.61V.001h-9.812v-17.188H4.89v-9.515z"/></defs><g transform="matrix(.12 0 0 .12 24.8 149.57)"><use xlink:href="#o"/><use x="63.623" xlink:href="#p"/><use x="95.41" xlink:href="#r"/></g><defs><path id="s" d="M33.016-40.375q-6.64 0-10.531 4.547-3.875 4.531-3.875 12.438 0 7.86 3.875 12.438 3.89 4.562 10.531 4.562t10.516-4.562q3.875-4.578 3.875-12.438 0-7.906-3.875-12.438-3.875-4.547-10.516-4.547m19.578-30.922v8.984q-3.719-1.75-7.5-2.671-3.781-.938-7.5-.938-9.766 0-14.922 6.594-5.14 6.594-5.875 19.922 2.875-4.25 7.219-6.516 4.36-2.265 9.578-2.265 10.984 0 17.359 6.672 6.375 6.656 6.375 18.125 0 11.234-6.64 18.03-6.641 6.782-17.673 6.782-12.656 0-19.344-9.688-6.687-9.703-6.687-28.109 0-17.28 8.203-27.562t22.016-10.28q3.719 0 7.5.734t7.89 2.187"/></defs><g transform="matrix(.12 0 0 .12 24.894 111.17)"><use xlink:href="#o"/><use x="63.623" xlink:href="#p"/><use x="95.41" xlink:href="#s"/></g><defs><path id="t" d="M31.781-34.625q-7.031 0-11.062 3.766-4.016 3.765-4.016 10.344 0 6.593 4.016 10.359 4.031 3.765 11.062 3.765t11.078-3.781q4.062-3.797 4.062-10.344 0-6.578-4.03-10.344-4.016-3.766-11.11-3.766m-9.86-4.187q-6.343-1.563-9.89-5.906-3.53-4.36-3.53-10.61 0-8.734 6.218-13.811 6.234-5.078 17.062-5.078 10.89 0 17.094 5.078t6.203 13.812q0 6.25-3.547 10.609-3.531 4.344-9.828 5.906 7.125 1.656 11.094 6.5 3.984 4.828 3.984 11.797 0 10.609-6.468 16.28-6.47 5.657-18.531 5.657-12.047 0-18.531-5.656-6.47-5.672-6.47-16.281 0-6.969 4-11.797 4.016-4.844 11.142-6.5m-3.61-15.578q0 5.656 3.532 8.828 3.547 3.172 9.937 3.172 6.36 0 9.938-3.172 3.593-3.172 3.593-8.828 0-5.672-3.593-8.844-3.578-3.172-9.938-3.172-6.39 0-9.937 3.172-3.532 3.172-3.532 8.844"/></defs><g transform="matrix(.12 0 0 .12 24.956 72.767)"><use xlink:href="#o"/><use x="63.623" xlink:href="#p"/><use x="95.41" xlink:href="#t"/></g><defs><path id="u" d="M12.406-8.297h16.109v-55.625l-17.531 3.516v-8.985l17.438-3.515h9.86v64.609H54.39V0H12.406z"/></defs><g transform="matrix(.12 0 0 .12 25.441 34.367)"><use xlink:href="#u"/><use x="63.623" xlink:href="#p"/><use x="95.41" xlink:href="#o"/></g><defs><path id="v" d="M0 0h2"/></defs><g fill="none" stroke="#000" stroke-linejoin="round" stroke-width=".5"><use x="46.425" y="231.6" xlink:href="#v"/><use x="46.425" y="231.6" xlink:href="#v"/></g><g fill="none" stroke="#000" stroke-linejoin="round" stroke-width=".5"><use x="46.425" y="212.4" xlink:href="#v"/><use x="46.425" y="212.4" xlink:href="#v"/></g><g fill="none" stroke="#000" stroke-linejoin="round" stroke-width=".5"><use x="46.425" y="202.8" xlink:href="#v"/><use x="46.425" y="202.8" xlink:href="#v"/></g><g fill="none" stroke="#000" stroke-linejoin="round" stroke-width=".5"><use x="46.425" y="193.2" xlink:href="#v"/><use x="46.425" y="193.2" xlink:href="#v"/></g><g fill="none" stroke="#000" stroke-linejoin="round" stroke-width=".5"><use x="46.425" y="174" xlink:href="#v"/><use x="46.425" y="174" xlink:href="#v"/></g><g fill="none" stroke="#000" stroke-linejoin="round" stroke-width=".5"><use x="46.425" y="164.4" xlink:href="#v"/><use x="46.425" y="164.4" xlink:href="#v"/></g><g fill="none" stroke="#000" stroke-linejoin="round" stroke-width=".5"><use x="46.425" y="154.8" xlink:href="#v"/><use x="46.425" y="154.8" xlink:href="#v"/></g><g fill="none" stroke="#000" stroke-linejoin="round" stroke-width=".5"><use x="46.425" y="135.6" xlink:href="#v"/><use x="46.425" y="135.6" xlink:href="#v"/></g><g fill="none" stroke="#000" stroke-linejoin="round" stroke-width=".5"><use x="46.425" y="126" xlink:href="#v"/><use x="46.425" y="126" xlink:href="#v"/></g><g fill="none" stroke="#000" stroke-linejoin="round" stroke-width=".5"><use x="46.425" y="116.4" xlink:href="#v"/><use x="46.425" y="116.4" xlink:href="#v"/></g><g fill="none" stroke="#000" stroke-linejoin="round" stroke-width=".5"><use x="46.425" y="97.2" xlink:href="#v"/><use x="46.425" y="97.2" xlink:href="#v"/></g><g fill="none" stroke="#000" stroke-linejoin="round" stroke-width=".5"><use x="46.425" y="87.6" xlink:href="#v"/><use x="46.425" y="87.6" xlink:href="#v"/></g><g fill="none" stroke="#000" stroke-linejoin="round" stroke-width=".5"><use x="46.425" y="78" xlink:href="#v"/><use x="46.425" y="78" xlink:href="#v"/></g><g fill="none" stroke="#000" stroke-linejoin="round" stroke-width=".5"><use x="46.425" y="58.8" xlink:href="#v"/><use x="46.425" y="58.8" xlink:href="#v"/></g><g fill="none" stroke="#000" stroke-linejoin="round" stroke-width=".5"><use x="46.425" y="49.2" xlink:href="#v"/><use x="46.425" y="49.2" xlink:href="#v"/></g><g fill="none" stroke="#000" stroke-linejoin="round" stroke-width=".5"><use x="46.425" y="39.6" xlink:href="#v"/><use x="46.425" y="39.6" xlink:href="#v"/></g><g fill="none" stroke="#000" stroke-linejoin="round" stroke-width=".5"><use x="46.425" y="20.4" xlink:href="#v"/><use x="46.425" y="20.4" xlink:href="#v"/></g><g fill="none" stroke="#000" stroke-linejoin="round" stroke-width=".5"><use x="46.425" y="10.8" xlink:href="#v"/><use x="46.425" y="10.8" xlink:href="#v"/></g><defs><path id="w" d="M6.89-55.516v-3.469h36.126v3.469z"/><path id="x" d="M7.719-1.703q0-.594.094-.89l7.468-29.829q.735-2.78.735-4.89 0-4.297-2.922-4.297-3.125 0-4.64 3.75-1.516 3.734-2.938 9.437 0 .297-.297.469-.281.172-.531.172H3.516q-.344 0-.594-.36-.234-.374-.234-.671 1.078-4.344 2.078-7.36 1-3.031 3.125-5.515 2.125-2.5 5.297-2.5 3.75 0 6.625 2.375 2.89 2.359 2.89 6.015 2.985-3.906 6.985-6.14 4-2.25 8.5-2.25 3.562 0 6.14 1.218 2.594 1.22 4.031 3.688 1.453 2.469 1.453 5.875 0 4.11-1.843 9.922-1.828 5.812-4.563 12.984Q42-7.235 42-4.5q0 2.984 2.281 2.984 3.906 0 6.516-4.187 2.625-4.203 3.703-9 .187-.578.828-.578H56.5q.39 0 .656.25.266.234.266.625 0 .093-.094.297-1.375 5.656-4.766 10.453-3.39 4.78-8.468 4.78-3.516 0-6.016-2.421-2.484-2.422-2.484-5.875 0-1.86.78-3.906 1.266-3.282 2.907-7.813 1.64-4.547 2.688-8.687 1.046-4.157 1.046-7.328 0-2.797-1.156-4.75-1.14-1.954-3.875-1.954-3.656 0-6.734 1.625-3.078 1.61-5.375 4.266t-4.188 6.328L14.89-2.203Q14.547-.828 13.344.141q-1.188.984-2.657.984-1.218 0-2.093-.781t-.875-2.047"/></defs><g transform="rotate(-90 74.9 55.1)"><use transform="matrix(.12 0 0 .12 .172 -1.922)" xlink:href="#w"/><use transform="matrix(.12 0 0 .12 0 -1.781)" xlink:href="#x"/></g><path d="M46.425 241.2h223.2" fill="none" stroke="#000" stroke-linecap="square" stroke-linejoin="round"/><defs><path id="y" d="M0 0v-4"/></defs><g fill="none" stroke="#000" stroke-linejoin="round" stroke-width=".5"><use x="46.425" y="241.2" xlink:href="#y"/><use x="46.425" y="241.2" xlink:href="#y"/></g><g fill="none" stroke="#000" stroke-linejoin="round" stroke-width=".5"><use x="91.065" y="241.2" xlink:href="#y"/><use x="91.065" y="241.2" xlink:href="#y"/></g><g fill="none" stroke="#000" stroke-linejoin="round" stroke-width=".5"><use x="135.705" y="241.2" xlink:href="#y"/><use x="135.705" y="241.2" xlink:href="#y"/></g><g fill="none" stroke="#000" stroke-linejoin="round" stroke-width=".5"><use x="180.345" y="241.2" xlink:href="#y"/><use x="180.345" y="241.2" xlink:href="#y"/></g><g fill="none" stroke="#000" stroke-linejoin="round" stroke-width=".5"><use x="224.985" y="241.2" xlink:href="#y"/><use x="224.985" y="241.2" xlink:href="#y"/></g><g fill="none" stroke="#000" stroke-linejoin="round" stroke-width=".5"><use x="269.625" y="241.2" xlink:href="#y"/><use x="269.625" y="241.2" xlink:href="#y"/></g><use xlink:href="#o" transform="matrix(.12 0 0 .12 43.402 254.11)"/><use xlink:href="#u" transform="matrix(.12 0 0 .12 88.456 254.11)"/><use xlink:href="#q" transform="matrix(.12 0 0 .12 132.92 254.11)"/><defs><path id="z" d="M40.578-39.312q7.078 1.516 11.047 6.313 3.984 4.78 3.984 11.812 0 10.78-7.422 16.703-7.421 5.906-21.093 5.906-4.579 0-9.438-.907T7.625-2.203v-9.516q4.094 2.39 8.969 3.61 4.89 1.218 10.219 1.218 9.265 0 14.125-3.656t4.86-10.64q0-6.454-4.516-10.079-4.516-3.64-12.562-3.64h-8.5v-8.11h8.89q7.266 0 11.125-2.906t3.86-8.375q0-5.61-3.985-8.61-3.969-3.015-11.39-3.015-4.063 0-8.704.89-4.64.875-10.203 2.72v-8.782q5.625-1.562 10.531-2.344t9.25-.781q11.234 0 17.766 5.11 6.547 5.093 6.547 13.78 0 6.063-3.469 10.234t-9.86 5.782"/></defs><use xlink:href="#z" transform="matrix(.12 0 0 .12 177.47 254.11)"/><use xlink:href="#r" transform="matrix(.12 0 0 .12 221.8 254.11)"/><defs><path id="A" d="M10.797-72.906h38.719v8.313H19.828v17.858q2.14-.734 4.281-1.093 2.156-.36 4.313-.36 12.203 0 19.328 6.688 7.14 6.687 7.14 18.109 0 11.766-7.328 18.297Q40.234 1.42 26.906 1.42q-4.594 0-9.36-.78-4.75-.782-9.827-2.345v-9.922q4.39 2.391 9.078 3.563t9.906 1.172q8.453 0 13.375-4.438 4.938-4.437 4.938-12.062 0-7.609-4.938-12.047-4.922-4.453-13.375-4.453-3.953 0-7.89.875-3.922.875-8.016 2.735z"/></defs><use xlink:href="#A" transform="matrix(.12 0 0 .12 266.79 254.11)"/><defs><path id="B" d="M0 0v-2"/></defs><g fill="none" stroke="#000" stroke-linejoin="round" stroke-width=".5"><use x="57.585" y="241.2" xlink:href="#B"/><use x="57.585" y="241.2" xlink:href="#B"/></g><g fill="none" stroke="#000" stroke-linejoin="round" stroke-width=".5"><use x="68.745" y="241.2" xlink:href="#B"/><use x="68.745" y="241.2" xlink:href="#B"/></g><g fill="none" stroke="#000" stroke-linejoin="round" stroke-width=".5"><use x="79.905" y="241.2" xlink:href="#B"/><use x="79.905" y="241.2" xlink:href="#B"/></g><g fill="none" stroke="#000" stroke-linejoin="round" stroke-width=".5"><use x="102.225" y="241.2" xlink:href="#B"/><use x="102.225" y="241.2" xlink:href="#B"/></g><g fill="none" stroke="#000" stroke-linejoin="round" stroke-width=".5"><use x="113.385" y="241.2" xlink:href="#B"/><use x="113.385" y="241.2" xlink:href="#B"/></g><g fill="none" stroke="#000" stroke-linejoin="round" stroke-width=".5"><use x="124.545" y="241.2" xlink:href="#B"/><use x="124.545" y="241.2" xlink:href="#B"/></g><g fill="none" stroke="#000" stroke-linejoin="round" stroke-width=".5"><use x="146.865" y="241.2" xlink:href="#B"/><use x="146.865" y="241.2" xlink:href="#B"/></g><g fill="none" stroke="#000" stroke-linejoin="round" stroke-width=".5"><use x="158.025" y="241.2" xlink:href="#B"/><use x="158.025" y="241.2" xlink:href="#B"/></g><g fill="none" stroke="#000" stroke-linejoin="round" stroke-width=".5"><use x="169.185" y="241.2" xlink:href="#B"/><use x="169.185" y="241.2" xlink:href="#B"/></g><g fill="none" stroke="#000" stroke-linejoin="round" stroke-width=".5"><use x="191.505" y="241.2" xlink:href="#B"/><use x="191.505" y="241.2" xlink:href="#B"/></g><g fill="none" stroke="#000" stroke-linejoin="round" stroke-width=".5"><use x="202.665" y="241.2" xlink:href="#B"/><use x="202.665" y="241.2" xlink:href="#B"/></g><g fill="none" stroke="#000" stroke-linejoin="round" stroke-width=".5"><use x="213.825" y="241.2" xlink:href="#B"/><use x="213.825" y="241.2" xlink:href="#B"/></g><g fill="none" stroke="#000" stroke-linejoin="round" stroke-width=".5"><use x="236.145" y="241.2" xlink:href="#B"/><use x="236.145" y="241.2" xlink:href="#B"/></g><g fill="none" stroke="#000" stroke-linejoin="round" stroke-width=".5"><use x="247.305" y="241.2" xlink:href="#B"/><use x="247.305" y="241.2" xlink:href="#B"/></g><g fill="none" stroke="#000" stroke-linejoin="round" stroke-width=".5"><use x="258.465" y="241.2" xlink:href="#B"/><use x="258.465" y="241.2" xlink:href="#B"/></g><defs><path id="C" d="M12.312-14.109q0 3.36 1.219 6.25 1.219 2.875 3.672 4.61Q19.672-1.516 23-1.516q2.25 0 4.78-.969 2.548-.984 4.72-2.156t2.218-1.172q.532 0 .844.61.328.609.328 1.202 0 .532-.297.672-6.25 4.453-12.688 4.453-5.28 0-9.53-2.468t-6.563-6.86-2.313-9.625q0-5.172 2.094-9.828 2.094-4.672 5.797-8.14 3.719-3.47 8.406-5.391t9.813-1.922h5.671q1.516 0 1.516 1.5 0 .844-.562 1.438-.563.578-1.344.578H30.42q-4 0-7.25 1.765-3.25 1.75-5.453 4.875-2.188 3.125-3.406 7.078h17.672q.687 0 1.093.422.422.406.422 1.031 0 .844-.547 1.438-.53.578-1.359.578H13.374q-1.062 5.172-1.062 8.297"/><path id="D" d="M5.61 23q0-.297.109-.39l34.766-96.392q.187-.578.672-.89.5-.328 1.125-.328.89 0 1.437.547.563.53.563 1.453v.39L9.516 23.781Q8.938 25 7.626 25q-.845 0-1.438-.594-.579-.578-.579-1.406"/><path id="E" d="M2.781 18.797q0-.578.094-.781l14.703-59.031q.437-1.422 1.578-2.297 1.156-.875 2.625-.875 1.266 0 2.14.765.891.75.891 2.016 0 .297-.031.469t-.078.36l-5.906 23.39q-.97 4.156-.97 7.172 0 3.719 1.75 6.11 1.767 2.39 5.329 2.39 7.266 0 12.797-9.078.047-.094.063-.14.03-.063.03-.157l7.22-29q.343-1.328 1.562-2.265 1.219-.954 2.64-.954 1.173 0 2.079.782t.906 2.047q0 .578-.11.78l-7.171 28.813q-.735 2.828-.735 4.875 0 4.297 2.938 4.297 3.125 0 4.703-3.86 1.594-3.86 2.766-9.328.187-.578.828-.578h1.172q.39 0 .656.313t.265.656q-1.75 6.984-3.828 11.219-2.078 4.219-6.765 4.219-3.313 0-5.875-1.907t-3.344-5.125q-2.5 3.125-5.844 5.079t-7.047 1.953q-6.25 0-9.828-2.938l-5.078 20.22q-.281 1.421-1.453 2.296t-2.64.875q-1.22 0-2.126-.766-.906-.75-.906-2.015"/></defs><g transform="translate(148.52 271.28)"><use transform="matrix(.12 0 0 .12 0 -3)" xlink:href="#C"/><use transform="matrix(.12 0 0 .12 4.857 -3)" xlink:href="#D"/><use transform="matrix(.12 0 0 .12 10.857 -3)" xlink:href="#E"/></g><path d="M175.18 28.8h20.16" fill="none" stroke="#00bfbf" stroke-linecap="square" stroke-linejoin="round" stroke-width="2"/><defs><path id="F" d="M5.328-1.813q0-.578.094-.875l14.5-57.811q.39-1.704.484-2.688 0-1.61-6.484-1.61-1.031 0-1.031-1.312.047-.25.218-.875.172-.64.438-.984t.765-.344l13.47-1.078h.296q0 .11.344.281.344.156.39.219.188.484.188.781L18.5-26.312q3.625-1.515 9.11-7.203 5.5-5.687 8.593-8.172 3.11-2.5 7.797-2.5 2.782 0 4.735 1.906t1.953 4.688q0 1.75-.735 3.25-.734 1.484-2.062 2.422-1.313.922-3.063.922-1.609 0-2.718-1-1.094-1.016-1.094-2.625 0-2.391 1.687-4.016 1.688-1.64 4.078-1.64-.984-1.329-2.984-1.329-2.969 0-5.734 1.72-2.766 1.702-5.97 4.905-3.187 3.203-5.827 5.86-2.625 2.656-4.875 4.03 5.906.673 10.25 3.095t4.344 7.406q0 1.016-.391 2.578-.875 3.766-.875 6.016 0 4.484 3.078 4.484 3.61 0 5.484-3.953 1.891-3.953 3.11-9.234.187-.579.828-.579h1.172q.39 0 .656.25.266.235.266.625 0 .094-.094.297Q45.453 1.125 37.594 1.125q-2.828 0-5-1.312-2.172-1.328-3.344-3.594-1.172-2.281-1.172-5.11 0-1.609.438-3.312.297-1.172.297-2.203 0-3.86-3.422-5.86t-7.813-2.437L12.5-2.297Q12.11-.78 10.985.172t-2.579.953q-1.28 0-2.187-.86-.89-.859-.89-2.077"/><path id="G" d="M4.594-1.313q.047-.25.219-.875.171-.64.437-.984T6-3.516q8.594 0 11.391-.484 2.672-.688 3.219-2.89l13.672-54.923q.437-1.218.437-2.203 0-.781-3.515-.781H25.39q-6.687 0-10.328 2.063-3.64 2.046-5.344 5.421-1.703 3.36-4.39 11.016-.344.891-1.031.891h-.875q-1.032 0-1.032-1.281L9.516-67.39q.204-.922.985-.922h59.078q1.031 0 1.031 1.312l-3.328 20.703q0 .297-.344.594-.328.297-.625.297h-.937q-.97 0-.97-1.281 1.079-7.078 1.079-10 0-3.516-1.469-5.313-1.469-1.812-3.812-2.296-2.344-.5-6.094-.5h-5.922q-2.672 0-3.61.5-.921.484-1.562 2.921L29.297-6.5q-.047.204-.078.407-.016.187-.11.484 0 1.266 1.5 1.61 2.594.484 11.095.484.968 0 .968 1.312Q42.33-.78 42.125-.39q-.187.39-1.109.39H5.61Q4.594 0 4.594-1.312"/><path id="H" d="M7.516-13.281q-.829 0-1.375-.625-.532-.64-.532-1.375 0-.828.532-1.406.546-.594 1.375-.594h62.797q.734 0 1.265.594.547.578.547 1.406 0 .734-.547 1.375-.531.625-1.265.625zm0-19.438q-.829 0-1.375-.578-.532-.594-.532-1.422 0-.734.532-1.36.546-.64 1.375-.64h62.797q.734 0 1.265.64.547.626.547 1.36 0 .828-.547 1.422-.531.578-1.265.578z"/><path id="I" d="M9.281 0v-3.516q12.5 0 12.5-3.171v-52.5q-5.172 2.5-13.094 2.5v-3.516q12.266 0 18.516-6.406h1.406q.344 0 .657.28.328.267.328.61v59.031q0 3.172 12.5 3.172V0z"/><path id="J" d="M25 2.203q-12.25 0-16.672-10.078Q3.906-17.969 3.906-31.89q0-8.687 1.578-16.344 1.594-7.672 6.297-13.016 4.719-5.36 13.22-5.36 6.593 0 10.78 3.235 4.203 3.219 6.406 8.328 2.203 5.094 3 10.938Q46-38.282 46-31.89q0 8.593-1.594 16.093-1.578 7.5-6.219 12.75T25 2.203M25-.39q5.563 0 8.297-5.703 2.734-5.718 3.375-12.656t.64-14.75q0-7.515-.64-13.859-.64-6.36-3.36-11.5Q30.61-64.015 25-64.015q-5.656 0-8.39 5.188-2.735 5.172-3.375 11.5-.641 6.312-.641 13.828 0 5.562.266 10.5.28 4.937 1.453 10.188t3.78 8.843Q20.703-.389 25-.389"/></defs><g transform="translate(199.66 36.84)"><use transform="matrix(.12 0 0 .12 0 -3)" xlink:href="#F"/><use transform="matrix(.12 0 0 .12 6.24 -3)" xlink:href="#G"/><use transform="matrix(.12 0 0 .12 15.355 -3)" xlink:href="#H"/><use transform="matrix(.12 0 0 .12 25.431 -3)" xlink:href="#E"/><use transform="matrix(.12 0 0 .12 32.655 -3)" xlink:href="#D"/><use transform="matrix(.12 0 0 .12 38.655 -3)" xlink:href="#I"/><use transform="matrix(.12 0 0 .12 44.655 -3)" xlink:href="#J"/><use transform="matrix(.12 0 0 .12 50.655 -3)" xlink:href="#J"/></g><path d="M175.18 42.6h20.16" fill="none" stroke="#00f" stroke-linecap="square" stroke-linejoin="round" stroke-width="2"/><g transform="translate(199.66 50.64)"><use transform="matrix(.12 0 0 .12 0 -3)" xlink:href="#F"/><use transform="matrix(.12 0 0 .12 6.24 -3)" xlink:href="#G"/><use transform="matrix(.12 0 0 .12 15.355 -3)" xlink:href="#H"/><use transform="matrix(.12 0 0 .12 25.431 -3)" xlink:href="#E"/><use transform="matrix(.12 0 0 .12 32.655 -3)" xlink:href="#D"/><use transform="matrix(.12 0 0 .12 38.655 -3)" xlink:href="#I"/><use transform="matrix(.12 0 0 .12 44.655 -3)" xlink:href="#J"/></g><path d="M175.18 56.4h20.16" fill="none" stroke="red" stroke-linecap="square" stroke-linejoin="round" stroke-width="2"/><defs><path id="K" d="M4.984 0v-2.688q0-.25.188-.53l15.53-17.189q3.516-3.812 5.704-6.39 2.203-2.594 4.344-5.97 2.156-3.374 3.406-6.859t1.25-7.39q0-4.11-1.516-7.844t-4.515-5.984-7.25-2.25q-4.344 0-7.813 2.625-3.468 2.61-4.89 6.75.39-.094 1.078-.094 2.25 0 3.828 1.516 1.594 1.515 1.594 3.906 0 2.297-1.594 3.89-1.578 1.578-3.828 1.578-2.344 0-3.938-1.625-1.578-1.64-1.578-3.843 0-3.766 1.406-7.047 1.422-3.297 4.079-5.86 2.671-2.578 6.015-3.937 3.344-1.375 7.094-1.375 5.719 0 10.64 2.422 4.938 2.422 7.813 6.843 2.891 4.407 2.891 10.328 0 4.344-1.906 8.25t-4.89 7.11q-2.97 3.187-7.61 7.25-4.64 4.047-6.094 5.406L13.094-8.11h9.61q7.077 0 11.843-.11 4.766-.124 5.047-.374Q40.766-9.86 42-17.83h2.922L42.094 0z"/></defs><g transform="translate(199.66 64.44)"><use transform="matrix(.12 0 0 .12 0 -3)" xlink:href="#F"/><use transform="matrix(.12 0 0 .12 6.24 -3)" xlink:href="#G"/><use transform="matrix(.12 0 0 .12 15.355 -3)" xlink:href="#H"/><use transform="matrix(.12 0 0 .12 25.431 -3)" xlink:href="#E"/><use transform="matrix(.12 0 0 .12 32.655 -3)" xlink:href="#D"/><use transform="matrix(.12 0 0 .12 38.655 -3)" xlink:href="#K"/></g><path d="M175.18 70.2h20.16" fill="none" stroke="#bfbf00" stroke-linecap="square" stroke-linejoin="round" stroke-width="2"/><g transform="translate(199.66 78.24)"><use transform="matrix(.12 0 0 .12 0 -3.672)" xlink:href="#F"/><use transform="matrix(.12 0 0 .12 6.24 -3.672)" xlink:href="#G"/><use transform="matrix(.12 0 0 .12 15.355 -3.672)" xlink:href="#H"/><use transform="matrix(.12 0 0 .12 25.431 -3.672)" xlink:href="#E"/></g></svg>