<?xml version="1.0" encoding="UTF-8"?>
<svg width="322pt" height="283pt" version="1.0" xmlns="http://www.w3.org/2000/svg" xmlns:cc="http://creativecommons.org/ns#" xmlns:dc="http://purl.org/dc/elements/1.1/" xmlns:rdf="http://www.w3.org/1999/02/22-rdf-syntax-ns#">
<metadata>
<rdf:RDF>
<cc:Work rdf:about="">
<dc:format>image/svg+xml</dc:format>
<dc:type rdf:resource="http://purl.org/dc/dcmitype/StillImage"/>
<dc:title/>
</cc:Work>
</rdf:RDF>
</metadata>
<path d="m106.25 311.25-87.5-37.5v-250l87.5 37.5" fill="none" stroke="#000" stroke-width="2.5"/>
<path d="m18.75 23.75h250l87.5 37.5" fill="none" stroke="#000" stroke-width="2.5"/>
<path d="m268.75 23.75v250l87.5 37.5" fill="none" stroke="#8c8c8c" stroke-width="2.5"/>
<path d="m268.75 273.75h-250" fill="none" stroke="#8c8c8c" stroke-width="2.5"/>
<path d="m268.75 23.75-162.5 287.5" fill="none" stroke="#8c8c8c" stroke-width="2.5"/>
<path d="m18.75 273.75 337.5-212.5" fill="none" stroke="#8c8c8c" stroke-width="2.5"/>
<path d="m18.75 23.75 337.5 287.5" fill="none" stroke="#8c8c8c" stroke-width="2.5"/>
<path d="m268.75 273.75-162.5-212.5" fill="none" stroke="#8c8c8c" stroke-width="2.5"/>
<rect x="106.25" y="61.25" width="250" height="250" fill="none" stroke="#000" stroke-linecap="round" stroke-width="2.5"/>
<path transform="translate(-6.25,161.25)" d="m200 6.25a6.25 6.25 0 1 1 -12.5 0 6.25 6.25 0 1 1 12.5 0z" fill="#8c8c8c" stroke-width="0"/>
<path transform="translate(-175,17.5)" d="m200 6.25a6.25 6.25 0 1 1 -12.5 0 6.25 6.25 0 1 1 12.5 0z" stroke-width="0"/>
<path transform="translate(-87.5,55)" d="m200 6.25a6.25 6.25 0 1 1 -12.5 0 6.25 6.25 0 1 1 12.5 0z" stroke-width="0"/>
<path transform="translate(75,17.5)" d="m200 6.25a6.25 6.25 0 1 1 -12.5 0 6.25 6.25 0 1 1 12.5 0z" stroke-width="0"/>
<path transform="translate(162.5,55)" d="m200 6.25a6.25 6.25 0 1 1 -12.5 0 6.25 6.25 0 1 1 12.5 0z" stroke-width="0"/>
<path transform="translate(162.5,305)" d="m200 6.25a6.25 6.25 0 1 1 -12.5 0 6.25 6.25 0 1 1 12.5 0z" stroke-width="0"/>
<path transform="translate(75,267.5)" d="m200 6.25a6.25 6.25 0 1 1 -12.5 0 6.25 6.25 0 1 1 12.5 0z" fill="#8c8c8c" stroke-width="0"/>
<path transform="translate(-175,267.5)" d="m200 6.25a6.25 6.25 0 1 1 -12.5 0 6.25 6.25 0 1 1 12.5 0z" stroke-width="0"/>
<path transform="translate(-87.5,305)" d="m200 6.25a6.25 6.25 0 1 1 -12.5 0 6.25 6.25 0 1 1 12.5 0z" stroke-width="0"/>
<text x="219.90234" y="346.15234" fill="#000000" font-family="Bitstream Vera Sans" font-size="40px" font-weight="bold" style="line-height:125%" xml:space="preserve"><tspan x="219.90234" y="346.15234">a</tspan></text>
<text x="368.18359" y="196.15234" fill="#000000" font-family="Bitstream Vera Sans" font-size="40px" font-weight="bold" style="line-height:125%" xml:space="preserve"><tspan x="368.18359" y="196.15234">a</tspan></text>
<text x="30.683594" y="321.15234" fill="#000000" font-family="Bitstream Vera Sans" font-size="40px" font-weight="bold" style="line-height:125%" xml:space="preserve"><tspan x="30.683594" y="321.15234">a</tspan></text>
</svg>
