<?xml version="1.0" standalone="no"?>
<!DOCTYPE svg PUBLIC "-//W3C//DTD SVG 20010904//EN"
 "http://www.w3.org/TR/2001/REC-SVG-20010904/DTD/svg10.dtd">
<svg version="1.0" xmlns="http://www.w3.org/2000/svg"
 width="320.000000pt" height="240.000000pt" viewBox="0 0 320.000000 240.000000"
 preserveAspectRatio="xMidYMid meet">

<g transform="translate(0.000000,240.000000) scale(0.100000,-0.100000)"
fill="#000000" stroke="none">
<path d="M422 1560 c-17 -15 -34 -40 -38 -54 -7 -29 0 -28 -210 -26 -99 1
-123 -2 -134 -15 -7 -8 -11 -17 -9 -20 3 -2 87 -5 187 -6 127 -1 185 -6 190
-14 4 -6 21 -20 39 -30 30 -18 33 -18 77 -1 25 9 46 25 48 34 3 15 21 17 146
18 159 1 192 -2 192 -22 0 -21 42 -44 82 -44 45 0 118 27 118 45 0 9 45 14
170 18 l171 7 27 -31 c50 -56 172 -48 172 11 0 19 8 20 108 22 237 3 240 3
268 -25 18 -18 41 -28 80 -33 74 -9 104 0 117 36 l11 30 181 0 c179 0 205 4
205 35 0 9 -162 11 -344 4 -46 -2 -60 1 -68 14 -5 10 -6 22 -3 27 3 6 -2 10
-12 10 -10 0 -27 7 -37 15 -11 8 -36 15 -55 15 -28 0 -42 -8 -76 -44 l-41 -44
-162 -1 -161 -2 -35 39 c-27 29 -42 38 -63 37 -47 -4 -81 -23 -97 -52 l-14
-29 -165 1 -165 0 -40 43 c-25 27 -47 42 -63 42 -31 0 -84 -32 -105 -65 l-17
-26 -165 6 -166 6 -29 34 c-16 20 -41 42 -56 50 -26 13 -30 12 -59 -15z"/>
<path d="M2420 1391 c-48 -15 -125 -60 -157 -91 -17 -17 -39 -51 -49 -76 l-17
-44 -77 0 -78 0 -50 69 c-67 92 -88 105 -154 98 -64 -8 -111 -43 -153 -115
l-30 -51 -70 -3 -70 -3 -62 76 c-67 83 -76 89 -131 89 -54 0 -97 -15 -129 -44
-15 -14 -30 -26 -33 -26 -3 0 -12 -20 -19 -45 -12 -42 -15 -45 -50 -46 -20 -1
-42 -1 -50 0 -7 2 -11 -4 -9 -11 3 -8 18 -12 42 -10 32 3 36 0 36 -21 0 -12
-4 -27 -9 -33 -5 -5 -16 -33 -26 -62 -9 -29 -21 -52 -27 -50 -6 2 -32 54 -58
116 -27 62 -59 125 -72 141 -21 26 -74 51 -142 66 -50 11 -180 -42 -170 -70 5
-12 -11 -53 -25 -65 -9 -7 -51 -136 -51 -154 0 -11 -10 -16 -31 -16 -35 0 -36
-23 -1 -28 12 -2 22 -9 22 -15 0 -25 -25 -117 -32 -117 -4 0 -12 19 -18 43
-21 79 -32 112 -73 217 -33 83 -51 114 -86 147 -24 23 -58 47 -75 52 -42 13
-157 19 -154 9 2 -5 32 -11 66 -13 61 -4 132 -29 132 -46 0 -5 -43 -9 -95 -9
-52 0 -95 -4 -95 -9 0 -15 29 -21 106 -21 41 0 74 -1 74 -2 0 -2 3 -102 6
-223 4 -146 10 -226 18 -239 12 -18 25 -19 192 -18 l179 2 0 247 0 248 102 3
103 3 0 -31 0 -30 -82 0 c-64 0 -79 -3 -70 -12 7 -7 31 -13 55 -13 23 -1 54
-3 70 -3 l27 -2 1 -167 c1 -93 4 -181 8 -198 l6 -30 90 1 c50 1 120 3 157 4
l68 3 -2 236 -1 236 96 1 97 1 0 -29 c0 -28 0 -28 -65 -28 -37 0 -65 -4 -65
-10 0 -6 28 -10 64 -10 36 0 67 -3 69 -7 3 -5 2 -90 -1 -190 -5 -173 -6 -182
-25 -187 -48 -12 1 -17 163 -17 136 0 174 3 185 15 12 12 15 48 15 178 0 90 3
173 6 186 6 21 11 22 111 22 l106 0 -7 -57 c-3 -32 -6 -115 -7 -186 -1 -70 -5
-130 -10 -133 -31 -19 8 -24 171 -24 209 0 200 -5 200 109 0 64 2 70 23 74 22
4 22 5 1 11 -18 7 -20 15 -19 84 3 133 -2 122 58 123 38 0 47 3 32 9 -11 5
-35 9 -52 9 -32 1 -33 3 -33 41 l0 40 89 0 c48 0 117 3 152 7 l64 7 -45 7
c-25 4 -92 8 -150 8 -90 1 -102 3 -85 14 43 29 123 56 180 61 33 2 62 5 64 5
2 1 -2 8 -9 16 -13 16 -104 20 -150 6z m-1068 -91 c68 -19 53 -30 -39 -30
l-88 1 35 19 c41 23 44 23 92 10z m558 -5 c11 -13 4 -15 -56 -14 -67 1 -68 1
-39 14 40 19 80 18 95 0z m-1102 -22 c-16 -2 -40 -2 -55 0 -16 2 -3 4 27 4 30
0 43 -2 28 -4z m1142 -58 l0 -36 -107 3 c-108 3 -108 3 -108 28 0 30 24 37
138 39 l77 1 0 -35z m330 0 c0 -28 -4 -35 -20 -35 -11 0 -20 3 -20 6 0 7 33
64 37 64 2 0 3 -16 3 -35z m-1950 -27 c0 -5 -4 -8 -10 -8 -5 0 -10 10 -10 23
0 18 2 19 10 7 5 -8 10 -18 10 -22z m595 -16 c-9 -9 -25 11 -25 31 1 21 1 21
15 -3 7 -14 12 -27 10 -28z m535 17 c0 -5 -7 -9 -15 -9 -9 0 -15 9 -15 21 0
18 2 19 15 9 8 -7 15 -16 15 -21z m535 2 c3 -5 1 -12 -5 -16 -5 -3 -10 1 -10
9 0 18 6 21 15 7z m-1617 -108 c17 -43 38 -105 47 -138 27 -96 41 -122 69
-122 21 0 27 8 45 61 11 33 23 81 26 106 7 46 44 154 52 147 2 -2 6 -83 9
-179 l6 -176 -104 -1 c-56 -1 -124 -4 -149 -7 -42 -6 -47 -4 -52 17 -4 13 -7
61 -7 106 l0 81 38 9 37 10 -36 7 c-36 8 -36 8 -43 72 -4 36 -4 69 -1 74 16
26 36 4 63 -67z m567 55 c4 -13 18 -47 32 -77 22 -50 23 -54 7 -66 -17 -12
-16 -13 2 -19 11 -3 28 -28 40 -58 12 -29 28 -53 35 -53 8 0 19 30 30 80 10
44 25 98 35 120 9 22 20 54 24 70 5 17 8 -43 9 -141 l1 -172 -24 -6 c-14 -3
-69 -8 -124 -11 l-100 -5 -5 33 c-2 17 -5 96 -6 174 -2 139 0 149 31 152 4 1
10 -9 13 -21z m570 -50 c42 -87 43 -98 9 -98 -37 0 -25 -24 14 -28 24 -3 32
-8 32 -23 0 -25 17 -59 30 -59 6 0 10 11 10 24 0 29 68 237 83 251 6 7 7 -33
3 -120 -3 -71 -6 -155 -6 -186 l0 -56 -118 -7 c-141 -8 -153 -5 -147 37 2 18
4 101 4 185 l1 152 25 0 c22 0 31 -11 60 -72z m125 65 c0 -15 -44 -143 -49
-143 -5 0 -52 97 -69 142 -2 4 24 8 57 8 34 0 61 -3 61 -7z m407 -65 c18 -36
35 -78 39 -92 6 -25 5 -26 -45 -26 -28 0 -51 -4 -51 -10 0 -5 24 -10 54 -10
l54 0 19 -45 c10 -25 24 -47 31 -50 13 -5 15 3 12 51 -1 17 15 81 36 143 31
94 40 111 56 109 10 -2 19 -6 18 -10 0 -5 0 -44 0 -88 0 -68 -3 -81 -17 -86
-58 -18 -59 -20 -25 -35 32 -14 33 -15 31 -76 -2 -59 -3 -61 -32 -67 -16 -3
-81 -6 -145 -6 l-115 0 7 77 c3 42 6 125 6 185 0 99 2 109 18 106 10 -2 30
-31 49 -70z m133 60 c0 -7 -12 -46 -27 -87 -23 -63 -28 -71 -33 -50 -4 13 -19
47 -34 76 -14 29 -26 57 -26 63 0 6 25 10 60 10 41 0 60 -4 60 -12z"/>
<path d="M2830 1251 c-33 -6 -35 -9 -41 -49 -3 -24 -2 -45 2 -48 5 -2 6 -11 3
-18 -9 -22 23 -39 61 -32 42 8 49 36 8 36 -25 0 -26 1 -8 13 19 15 13 37 -11
37 -23 0 -16 17 11 24 14 4 25 13 25 21 0 19 -9 22 -50 16z"/>
<path d="M420 1171 c0 -18 21 -22 70 -12 l45 9 -42 1 c-23 1 -48 4 -57 7 -9 3
-16 1 -16 -5z"/>
<path d="M2436 1171 c-8 -12 72 -17 149 -11 40 3 54 8 42 13 -26 10 -185 9
-191 -2z"/>
<path d="M2690 1170 c0 -5 9 -10 21 -10 11 0 17 5 14 10 -3 6 -13 10 -21 10
-8 0 -14 -4 -14 -10z"/>
<path d="M2940 1140 c-13 -9 -13 -12 3 -25 18 -13 18 -14 -2 -27 -28 -17 -26
-36 5 -48 28 -11 101 -3 110 12 10 17 -16 35 -42 30 -23 -4 -25 -2 -19 17 12
38 -22 63 -55 41z"/>
<path d="M2838 1003 c-27 -4 -27 -5 -25 -76 l3 -72 38 -3 c21 -2 45 -1 53 2
23 9 -3 35 -28 29 -17 -5 -20 -2 -17 13 2 11 13 20 26 22 29 4 24 24 -9 33
-23 6 -22 7 9 14 23 5 32 13 30 24 -3 17 -32 22 -80 14z"/>
<path d="M705 990 c3 -5 24 -10 46 -10 21 0 39 5 39 10 0 6 -21 10 -46 10 -27
0 -43 -4 -39 -10z"/>
<path d="M1225 980 c3 -5 33 -10 66 -10 38 0 58 4 54 10 -3 6 -33 10 -66 10
-38 0 -58 -4 -54 -10z"/>
<path d="M1740 971 c0 -13 47 -22 77 -15 25 7 25 8 8 15 -28 11 -85 11 -85 0z"/>
<path d="M2420 940 c20 -13 77 -13 85 0 4 6 -14 10 -47 10 -38 0 -49 -3 -38
-10z"/>
<path d="M2590 940 c0 -5 19 -10 42 -10 49 0 47 5 -4 14 -24 4 -38 3 -38 -4z"/>
<path d="M2964 886 c-8 -21 4 -83 17 -92 19 -11 27 10 20 55 -6 46 -26 65 -37
37z"/>
<path d="M2744 805 c-10 -8 -14 -14 -9 -15 15 0 40 18 34 24 -3 3 -14 -1 -25
-9z"/>
<path d="M1171 734 c0 -11 3 -14 6 -6 3 7 2 16 -1 19 -3 4 -6 -2 -5 -13z"/>
<path d="M1738 612 c-42 -4 -45 -14 -29 -100 5 -25 5 -45 -1 -48 -5 -3 -4 -12
3 -20 13 -16 104 -19 114 -4 10 16 -14 40 -40 40 -13 0 -25 7 -29 15 -4 11 1
15 18 15 28 0 38 19 30 60 -8 38 -20 46 -66 42z"/>
<path d="M1542 577 c-26 -27 -28 -66 -7 -106 23 -45 85 -58 105 -22 15 28 13
31 -19 31 -44 0 -61 10 -61 35 0 17 8 26 31 34 23 8 30 15 25 27 -3 8 -6 18
-6 20 0 14 -50 0 -68 -19z"/>
<path d="M1190 573 c-50 -6 -60 -20 -30 -45 14 -11 29 -39 35 -62 14 -58 41
-56 38 3 -2 34 3 47 20 61 18 15 19 20 8 34 -7 9 -19 15 -25 14 -6 0 -27 -3
-46 -5z"/>
<path d="M1301 571 c-17 -11 -7 -41 13 -41 10 0 17 -15 21 -43 8 -53 19 -72
35 -62 8 5 10 23 5 60 -5 42 -3 54 9 58 9 4 13 13 10 22 -7 17 -69 21 -93 6z"/>
<path d="M1435 568 c-2 -7 1 -40 8 -73 9 -45 17 -61 31 -63 17 -4 18 1 12 47
-4 29 -11 63 -16 76 -10 27 -28 33 -35 13z"/>
<path d="M1002 501 c-15 -92 -1 -131 30 -81 15 23 53 27 62 5 3 -8 13 -15 21
-15 12 0 15 6 9 23 -19 63 -72 137 -97 137 -8 0 -18 -27 -25 -69z"/>
<path d="M521 537 c-15 -18 -5 -138 13 -149 19 -13 71 -9 95 8 20 15 23 23 18
61 -3 26 -13 54 -24 64 -26 27 -85 36 -102 16z m89 -63 c12 -32 6 -44 -25 -44
-23 0 -35 17 -35 51 0 31 48 25 60 -7z"/>
<path d="M427 534 c-11 -11 -8 -123 4 -145 8 -16 13 -18 24 -9 10 8 13 29 10
72 -3 57 -22 97 -38 82z"/>
<path d="M841 517 c-12 -15 1 -110 18 -131 13 -16 101 -7 108 10 9 24 -18 46
-48 40 -24 -5 -27 -2 -33 33 -7 46 -28 68 -45 48z"/>
</g>
</svg>
