<?xml version="1.0" standalone="no"?>
<!DOCTYPE svg PUBLIC "-//W3C//DTD SVG 20010904//EN" "http://www.w3.org/TR/2001/REC-SVG-20010904/DTD/svg10.dtd">
<svg version="1.0" 
    xmlns="http://www.w3.org/2000/svg" width="240.000000pt" height="320.000000pt" viewBox="0 0 240.000000 320.000000" preserveAspectRatio="xMidYMid meet">
    <g transform="translate(0.000000,320.000000) scale(0.100000,-0.100000)" fill="#000000" stroke="none">
        <path d="M602 2520 c-32 -5 -81 -24 -127 -51 -64 -37 -84 -55 -135 -125 -111
-152 -129 -221 -111 -417 9 -102 8 -111 -13 -160 -26 -59 -56 -183 -56 -232 0
-85 94 -270 174 -342 53 -48 100 -75 181 -104 l50 -19 -75 1 c-98 1 -114 -1
-65 -11 63 -13 1113 -23 1095 -11 -8 6 -75 11 -153 11 -90 0 -136 4 -132 10 3
5 -3 10 -14 10 -12 0 -21 -4 -21 -9 0 -6 -97 -9 -240 -8 -132 1 -232 5 -223 8
75 28 182 77 219 102 l43 29 58 -36 c101 -62 163 -79 288 -80 120 0 138 6 224
66 107 77 147 133 227 316 34 79 36 89 32 170 -3 72 -8 98 -35 154 -28 60 -30
71 -21 105 25 93 4 340 -34 389 -11 13 -23 22 -28 19 -4 -3 -19 4 -31 15 -13
11 -20 19 -15 20 5 0 18 -8 29 -17 16 -14 19 -15 15 -3 -2 8 -25 27 -51 41
-26 14 -59 37 -74 51 -16 15 -50 35 -78 46 -62 24 -194 52 -247 52 -55 0 -154
-27 -206 -55 l-42 -24 -73 33 c-111 51 -232 71 -335 56z m212 -32 c22 -5 71
-24 109 -41 l68 -30 -43 -41 -43 -41 -67 22 c-107 37 -239 29 -315 -18 -53
-33 -120 -116 -144 -177 -14 -38 -23 -85 -25 -141 -3 -84 -4 -85 -45 -127 -23
-24 -46 -41 -51 -38 -17 11 -9 207 12 282 49 178 126 264 310 345 61 27 142
29 234 5z m555 -18 c43 -6 94 -21 120 -36 79 -43 209 -151 230 -192 39 -78 51
-191 29 -296 l-11 -57 -47 46 c-43 43 -48 52 -53 104 -7 79 -36 141 -97 205
-90 95 -224 134 -355 104 l-60 -13 -42 41 c-46 45 -45 52 12 75 40 16 155 37
180 33 11 -2 53 -8 94 -14z m-306 -110 c38 -37 40 -41 24 -51 -10 -6 -33 -24
-51 -39 l-33 -29 -38 39 -39 40 39 40 c21 22 43 40 47 40 5 0 28 -18 51 -40z
m-206 -25 l34 -14 -41 -54 c-25 -33 -48 -81 -62 -125 -11 -40 -25 -72 -30 -72
-4 0 -18 11 -30 25 -26 30 -58 33 -58 5 0 -13 -9 -22 -27 -26 -87 -18 -167
-48 -211 -78 -28 -19 -53 -31 -56 -28 -11 11 -6 109 9 158 8 28 32 75 54 105
84 118 272 165 418 104z m547 -15 c65 -25 137 -86 173 -147 23 -39 52 -134 53
-170 0 -7 -42 8 -97 34 -92 44 -104 47 -200 51 l-102 4 -7 42 c-7 43 -46 129
-72 158 -14 16 -12 19 19 32 51 23 167 20 233 -4z m-448 -54 c33 -33 38 -66 9
-66 -13 0 -55 -115 -55 -150 0 -20 -11 -26 -24 -12 -4 4 -26 12 -49 17 -41 11
-42 12 -39 50 5 56 86 192 116 194 4 1 23 -14 42 -33z m177 16 c24 -27 56
-105 63 -154 l6 -43 -48 -14 c-27 -8 -54 -16 -60 -18 -6 -2 -16 16 -23 43 -7
26 -21 64 -31 85 -11 21 -20 43 -20 49 0 10 77 70 90 70 4 0 14 -8 23 -18z
m-83 -191 c12 -53 11 -54 -17 -83 l-30 -29 -36 21 c-45 27 -47 52 -11 130 38
83 45 87 65 48 10 -18 23 -57 29 -87z m-282 -40 c1 -1 2 -24 2 -52 l0 -50 -44
6 c-79 12 -194 -22 -273 -81 -17 -13 -34 -24 -36 -24 -9 0 -29 60 -24 73 7 18
99 70 191 108 58 24 81 28 126 25 30 -3 56 -5 58 -5z m487 -1 c-9 -15 14 -40
36 -40 21 0 25 20 7 38 -9 9 4 12 59 12 59 0 85 -6 154 -36 46 -19 89 -40 96
-46 18 -14 16 -59 -3 -108 l-16 -40 -34 30 c-80 70 -206 110 -290 92 l-45 -10
6 42 c9 59 15 76 26 76 6 0 7 -5 4 -10z m-382 -35 c36 -15 37 -16 37 -70 l0
-55 -42 21 c-24 11 -50 24 -58 28 -9 5 -16 26 -18 56 -3 46 -2 47 20 42 14 -4
41 -13 61 -22z m322 11 c15 6 17 4 12 -17 -4 -13 -7 -34 -7 -46 0 -17 -13 -29
-51 -48 -68 -35 -81 -25 -65 48 10 47 15 53 46 63 21 7 37 8 41 3 3 -6 14 -7
24 -3z m-218 -61 c2 -1 -8 -12 -22 -25 l-25 -23 0 37 c0 35 1 36 23 25 12 -6
23 -13 24 -14z m79 -11 c-5 -13 -9 -14 -21 -4 -13 11 -13 14 2 26 20 14 29 3
19 -22z m-19 -41 c6 -16 -31 -103 -45 -103 -11 0 -42 55 -42 76 0 10 10 28 21
40 17 19 26 21 41 13 10 -6 22 -17 25 -26z m679 -28 c15 -23 13 -28 -21 -94
l-37 -71 -28 44 -28 43 21 71 21 71 28 -21 c16 -11 36 -31 44 -43z m-956 45
c12 -6 20 -26 25 -60 4 -28 17 -71 30 -96 40 -78 23 -94 -102 -94 -96 0 -167
28 -233 92 -28 27 -49 55 -47 61 6 19 97 77 146 91 54 17 154 20 181 6z m660
-12 c59 -18 150 -85 150 -109 0 -19 -98 -106 -147 -129 -40 -20 -65 -24 -142
-24 l-95 -1 -16 55 -16 54 33 81 c29 73 35 81 65 86 40 8 120 2 168 -13z
m-570 -18 c21 -11 42 -24 45 -30 4 -6 -7 -33 -23 -61 -19 -33 -32 -47 -37 -39
-10 16 -35 110 -35 133 0 21 2 21 50 -3z m-489 -135 l-40 -67 -22 45 c-27 55
-22 79 27 132 l36 40 20 -42 20 -42 -41 -66z m808 93 c-11 -29 -22 -55 -24
-56 -4 -5 -35 54 -35 66 0 8 56 40 72 41 4 1 -2 -23 -13 -51z m-107 0 c-7 -7
-12 -8 -12 -2 0 14 12 26 19 19 2 -3 -1 -11 -7 -17z m-102 -78 c0 -12 -63 -60
-78 -60 -19 0 -14 27 14 81 l27 50 18 -31 c11 -17 19 -35 19 -40z m138 57 c30
-36 31 -62 2 -97 l-28 -35 -22 20 c-40 36 -41 49 -9 88 33 40 41 44 57 24z
m706 -197 c1 -90 5 -77 -87 -285 -27 -62 -123 -159 -201 -205 -56 -32 -66 -35
-162 -38 -78 -3 -115 0 -156 13 -65 22 -164 70 -174 86 -3 6 8 26 27 45 l34
33 61 -30 c259 -129 557 80 529 371 -5 55 -3 69 12 85 10 11 29 42 43 68 l25
48 24 -53 c20 -43 25 -70 25 -138z m-1345 118 c22 -21 41 -42 41 -47 0 -14 81
-48 142 -60 35 -6 78 -7 119 -1 35 5 64 8 64 7 1 -1 -1 -27 -3 -58 l-4 -56
-56 -6 c-159 -17 -328 36 -400 124 l-23 28 22 43 c26 51 39 70 49 66 4 -2 26
-20 49 -40z m1159 -14 l23 -46 -38 -35 c-59 -55 -122 -95 -171 -109 -51 -16
-86 -18 -78 -5 9 15 -20 45 -38 38 -23 -9 -20 -36 7 -47 16 -6 1 -9 -55 -9
l-76 -1 -4 48 -3 48 80 0 c120 0 195 29 265 104 30 32 57 59 61 59 3 1 15 -20
27 -45z m-1325 -26 c25 -34 26 -41 18 -80 -12 -50 6 -154 35 -210 45 -87 157
-182 235 -199 104 -22 256 9 320 66 14 13 19 10 49 -31 l33 -47 -24 -19 c-40
-32 -183 -95 -244 -108 -68 -14 -123 -7 -219 27 -127 46 -195 110 -265 251
-44 86 -56 160 -41 237 13 65 60 170 70 158 3 -5 18 -25 33 -45z m673 3 c-9
-16 -16 -37 -16 -46 0 -19 -9 -19 -32 1 -17 16 -16 18 20 49 20 18 38 32 40
30 2 -2 -4 -17 -12 -34z m188 -23 c7 -32 -8 -37 -39 -14 -18 13 -18 14 1 39
20 27 26 23 38 -25z m-130 -10 c8 -41 -17 -72 -46 -57 -20 11 -19 22 4 82 13
34 32 22 42 -25z m-110 -37 c43 -45 15 -91 -56 -91 -19 0 -20 4 -15 50 10 81
25 89 71 41z m217 -1 c38 -20 40 -23 37 -63 -3 -47 -13 -49 -74 -20 -25 11
-33 22 -36 49 -4 32 6 54 24 54 5 0 27 -9 49 -20z m525 -95 c-14 -124 -87
-229 -194 -282 -51 -25 -68 -28 -157 -28 -90 0 -105 3 -152 28 -29 15 -53 32
-53 38 0 6 14 36 30 66 17 30 35 73 41 96 l10 42 107 1 c84 1 120 7 167 24 56
21 174 101 184 125 10 22 23 -63 17 -110z m-1277 71 c38 -39 119 -78 212 -102
47 -12 84 -15 145 -10 l81 7 6 -28 c3 -15 24 -61 46 -101 l40 -72 -25 -16
c-224 -147 -512 -22 -553 241 -9 59 -5 115 8 115 4 0 22 -15 40 -34z m661 -16
c0 -5 -4 -10 -10 -10 -5 0 -10 5 -10 10 0 6 5 10 10 10 6 0 10 -4 10 -10z
m-16 -71 c0 -25 -6 -60 -14 -78 l-13 -33 -14 26 c-7 14 -16 46 -20 72 -7 50 5
66 42 62 17 -3 20 -10 19 -49z m128 -46 c-3 -31 -59 -150 -76 -160 -5 -4 -22
9 -38 28 -31 36 -31 41 -2 124 9 28 18 55 20 62 2 8 17 6 51 -7 43 -17 48 -21
45 -47z m-206 10 c4 -20 13 -48 20 -62 8 -14 14 -31 14 -37 0 -12 -58 -70 -63
-63 -20 25 -67 124 -72 150 -6 34 -6 35 37 45 24 5 46 8 50 6 4 -1 10 -19 14
-39z m90 -228 c-15 -19 -31 -35 -36 -35 -4 0 -21 17 -38 37 l-30 37 31 36 30
37 35 -39 34 -38 -26 -35z"/>
        <path d="M652 1588 c-15 -15 3 -38 29 -38 21 0 25 20 7 38 -15 15 -21 15 -36
0z"/>
        <path d="M1686 1122 c-3 -3 -6 -14 -6 -26 0 -15 3 -17 12 -8 21 21 30 13 23
-20 -3 -18 -8 -55 -10 -83 -3 -27 -7 -59 -9 -70 -2 -11 -5 -32 -5 -47 -1 -32
-24 -38 -40 -11 -5 10 -13 15 -16 11 -13 -12 3 -38 31 -50 23 -11 28 -10 40 7
8 10 14 38 14 61 0 49 8 76 21 68 5 -3 9 2 9 10 0 8 -7 19 -15 24 -14 7 -14
12 0 45 8 20 16 38 17 39 1 2 -4 13 -10 24 -11 21 -46 37 -56 26z"/>
        <path d="M2150 1018 l-1 -43 -29 33 c-16 17 -32 32 -35 32 -3 0 -5 -25 -5 -55
0 -30 5 -55 10 -55 6 0 10 12 10 27 l0 27 28 -27 c15 -15 31 -27 35 -27 4 0 7
29 7 65 0 37 -4 65 -10 65 -5 0 -10 -19 -10 -42z"/>
        <path d="M2214 1046 c-3 -7 -4 -35 -2 -62 l3 -49 38 1 c20 1 43 7 52 14 21 17
19 73 -3 93 -22 20 -81 22 -88 3z m76 -31 c15 -18 1 -40 -30 -48 -17 -4 -20 0
-20 29 0 27 4 34 19 34 10 0 24 -7 31 -15z"/>
        <path d="M1956 996 c-11 -31 -16 -62 -11 -73 6 -17 8 -16 22 5 18 26 51 29 69
5 13 -17 13 -17 14 1 0 25 -50 116 -65 116 -6 0 -19 -24 -29 -54z m43 -17
c-16 -10 -23 -4 -14 10 3 6 11 8 17 5 6 -4 5 -9 -3 -15z"/>
        <path d="M385 1030 c-14 -23 -46 -21 615 -46 389 -14 464 -22 170 -18 -157 3
-364 9 -460 14 -233 12 -329 9 -323 -7 4 -10 35 -13 117 -13 155 0 548 -11
751 -20 146 -7 131 -8 -100 -4 -148 2 -382 7 -519 11 -181 4 -248 3 -245 -5 3
-8 117 -13 379 -16 206 -3 409 -8 450 -11 232 -14 290 -16 290 -6 0 5 -17 12
-37 14 l-38 4 38 1 c37 2 54 22 18 22 -11 0 -23 5 -27 11 -4 6 1 9 13 7 11 -2
22 2 24 7 2 6 -49 13 -136 17 -242 12 -716 31 -826 33 -58 2 -115 6 -126 9
-12 4 -24 2 -28 -4z"/>
        <path d="M1826 983 c8 -71 9 -73 39 -73 37 0 55 24 48 68 -8 50 -19 62 -60 62
l-34 0 7 -57z m51 21 c-3 -3 -12 -4 -19 -1 -8 3 -5 6 6 6 11 1 17 -2 13 -5z
m13 -49 c0 -8 -9 -15 -20 -15 -13 0 -18 5 -14 15 4 8 12 15 20 15 8 0 14 -7
14 -15z"/>
        <path d="M328 963 c7 -3 16 -2 19 1 4 3 -2 6 -13 5 -11 0 -14 -3 -6 -6z"/>
        <path d="M1648 943 c7 -3 16 -2 19 1 4 3 -2 6 -13 5 -11 0 -14 -3 -6 -6z"/>
        <path d="M1160 880 c0 -5 5 -10 11 -10 5 0 7 5 4 10 -3 6 -8 10 -11 10 -2 0
-4 -4 -4 -10z"/>
        <path d="M1970 748 c0 -16 5 -28 10 -28 13 0 13 20 0 40 -8 12 -10 9 -10 -12z"/>
        <path d="M1970 696 c0 -9 5 -16 10 -16 6 0 10 4 10 9 0 6 -4 13 -10 16 -5 3
-10 -1 -10 -9z"/>
        <path d="M1487 669 c8 -8 16 -8 30 0 16 9 14 10 -11 11 -22 0 -27 -3 -19 -11z"/>
        <path d="M1970 560 c0 -27 4 -50 8 -50 4 0 9 23 10 50 1 28 -2 50 -8 50 -5 0
-10 -22 -10 -50z"/>
        <path d="M364 591 c4 -6 29 -11 56 -11 28 0 50 -5 52 -12 3 -8 38 -13 99 -16
318 -13 353 -20 82 -15 -182 4 -293 2 -293 -4 0 -5 172 -14 423 -22 232 -6
491 -15 575 -18 106 -4 152 -3 152 5 0 20 16 19 -735 66 -33 2 21 2 120 0 99
-2 271 -9 383 -16 183 -10 226 -8 210 7 -6 6 -556 31 -892 40 -173 5 -237 4
-232 -4z m209 -18 c-7 -2 -19 -2 -25 0 -7 3 -2 5 12 5 14 0 19 -2 13 -5z m54
1 c-3 -3 -12 -4 -19 -1 -8 3 -5 6 6 6 11 1 17 -2 13 -5z m451 -51 c-10 -2 -28
-2 -40 0 -13 2 -5 4 17 4 22 1 32 -1 23 -4z"/>
        <path d="M26 551 c-4 -7 -5 -15 -2 -18 9 -9 19 4 14 18 -4 11 -6 11 -12 0z"/>
        <path d="M30 520 c-1 -3 -4 -18 -6 -34 -2 -20 0 -26 7 -19 6 6 9 21 6 34 -2
13 -5 22 -7 19z"/>
        <path d="M345 501 c22 -5 114 -12 205 -16 91 -4 320 -17 510 -30 190 -13 347
-21 349 -19 13 12 -33 17 -301 34 -457 28 -821 43 -763 31z"/>
    </g>
</svg>