<?xml version="1.0" standalone="no"?>
<!DOCTYPE svg PUBLIC "-//W3C//DTD SVG 20010904//EN"
 "http://www.w3.org/TR/2001/REC-SVG-20010904/DTD/svg10.dtd">
<svg version="1.0" xmlns="http://www.w3.org/2000/svg"
 width="240.000000pt" height="320.000000pt" viewBox="0 0 240.000000 320.000000"
 preserveAspectRatio="xMidYMid meet">

<g transform="translate(0.000000,320.000000) scale(0.100000,-0.100000)"
fill="#000000" stroke="none">
<path d="M1640 2890 c0 -13 5 -20 13 -17 6 2 12 10 12 17 0 7 -6 15 -12 18 -8
2 -13 -5 -13 -18z"/>
<path d="M1860 2895 c-10 -12 -9 -16 5 -21 19 -8 40 9 31 25 -10 15 -21 14
-36 -4z"/>
<path d="M597 2864 c-13 -13 -7 -24 14 -24 11 0 19 5 17 12 -5 14 -22 21 -31
12z"/>
<path d="M470 2850 c-8 -5 -11 -12 -8 -16 10 -9 38 3 38 16 0 12 -10 13 -30 0z"/>
<path d="M741 2851 c-10 -7 -10 -10 -1 -16 6 -4 16 -3 22 3 13 13 -4 23 -21
13z"/>
<path d="M1426 2825 c-4 -12 -1 -16 11 -13 18 3 21 20 5 26 -5 1 -12 -4 -16
-13z"/>
<path d="M360 2815 c0 -8 5 -15 10 -15 6 0 10 7 10 15 0 8 -4 15 -10 15 -5 0
-10 -7 -10 -15z"/>
<path d="M910 2820 c0 -5 5 -10 10 -10 6 0 10 5 10 10 0 6 -4 10 -10 10 -5 0
-10 -4 -10 -10z"/>
<path d="M2080 2816 c0 -9 7 -16 16 -16 9 0 14 5 12 12 -6 18 -28 21 -28 4z"/>
<path d="M266 2751 c-4 -7 -5 -15 -2 -18 9 -9 19 4 14 18 -4 11 -6 11 -12 0z"/>
<path d="M1620 2742 c-125 -42 -228 -134 -287 -258 -30 -62 -36 -90 -43 -175
-9 -110 -1 -149 47 -234 27 -50 106 -129 161 -162 103 -64 276 -82 394 -42
127 42 220 128 282 259 26 56 31 79 34 165 3 88 1 108 -22 168 -47 126 -122
208 -235 260 -57 25 -81 30 -171 33 -83 3 -117 0 -160 -14z m255 -14 c262 -67
393 -373 263 -619 -84 -161 -252 -250 -442 -235 -246 18 -421 249 -377 496 47
263 296 424 556 358z"/>
<path d="M1733 2373 c-18 -7 -16 -32 2 -39 23 -9 48 15 34 32 -12 15 -16 16
-36 7z"/>
<path d="M1027 2743 c-12 -11 -8 -23 8 -23 8 0 15 7 15 15 0 16 -12 20 -23 8z"/>
<path d="M495 2708 c-79 -28 -177 -112 -228 -194 -36 -59 -61 -189 -54 -283
13 -176 168 -356 338 -392 80 -17 196 -6 266 26 62 28 144 107 189 182 40 68
66 186 59 263 -18 176 -107 305 -262 378 -51 24 -71 27 -168 29 -60 0 -123 -4
-140 -9z m307 -40 c168 -78 264 -257 237 -445 -29 -209 -195 -363 -389 -363
-145 1 -282 72 -354 185 -59 93 -82 228 -55 330 6 22 12 49 14 61 11 69 110
188 181 220 88 38 119 44 214 41 78 -2 105 -8 152 -29z"/>
<path d="M584 2305 c-16 -13 -17 -16 -4 -25 36 -24 69 1 37 29 -10 8 -19 7
-33 -4z"/>
<path d="M1270 2705 c0 -9 5 -15 11 -13 6 2 11 8 11 13 0 5 -5 11 -11 13 -6 2
-11 -4 -11 -13z"/>
<path d="M2225 2690 c-8 -12 20 -24 35 -15 6 3 8 11 5 16 -8 12 -32 12 -40 -1z"/>
<path d="M175 2669 c-10 -15 3 -25 16 -12 7 7 7 13 1 17 -6 3 -14 1 -17 -5z"/>
<path d="M1112 2619 c2 -7 10 -15 17 -17 8 -3 12 1 9 9 -2 7 -10 15 -17 17 -8
3 -12 -1 -9 -9z"/>
<path d="M107 2594 c-10 -11 -8 -54 2 -54 14 0 25 40 14 51 -5 5 -12 6 -16 3z"/>
<path d="M1190 2565 c0 -9 5 -15 11 -13 6 2 11 8 11 13 0 5 -5 11 -11 13 -6 2
-11 -4 -11 -13z"/>
<path d="M65 2477 c-4 -10 -5 -21 -1 -24 10 -10 18 4 13 24 -4 17 -4 17 -12 0z"/>
<path d="M2325 2480 c-11 -17 5 -32 21 -19 8 6 14 15 14 20 0 12 -27 11 -35
-1z"/>
<path d="M1184 2444 c3 -9 6 -18 6 -20 0 -2 5 -4 10 -4 6 0 10 9 10 20 0 12
-7 20 -16 20 -11 0 -14 -5 -10 -16z"/>
<path d="M40 2370 c0 -11 5 -20 10 -20 6 0 10 9 10 20 0 11 -4 20 -10 20 -5 0
-10 -9 -10 -20z"/>
<path d="M1210 2260 c0 -11 5 -20 10 -20 6 0 10 9 10 20 0 11 -4 20 -10 20 -5
0 -10 -9 -10 -20z"/>
<path d="M2330 2259 c0 -11 5 -17 10 -14 6 3 10 13 10 21 0 8 -4 14 -10 14 -5
0 -10 -9 -10 -21z"/>
<path d="M40 2235 c0 -8 5 -15 10 -15 6 0 10 7 10 15 0 8 -4 15 -10 15 -5 0
-10 -7 -10 -15z"/>
<path d="M1214 2129 c-8 -14 11 -33 25 -25 11 7 4 36 -9 36 -5 0 -12 -5 -16
-11z"/>
<path d="M67 2114 c-13 -13 -7 -24 14 -24 11 0 19 5 17 12 -5 14 -22 21 -31
12z"/>
<path d="M1160 2105 c0 -8 5 -15 10 -15 6 0 10 7 10 15 0 8 -4 15 -10 15 -5 0
-10 -7 -10 -15z"/>
<path d="M1250 1996 c0 -16 28 -42 36 -33 8 7 -14 47 -26 47 -6 0 -10 -6 -10
-14z"/>
<path d="M2240 1985 c0 -17 2 -18 24 -9 18 7 12 24 -10 24 -8 0 -14 -7 -14
-15z"/>
<path d="M110 1976 c0 -9 5 -16 10 -16 6 0 10 4 10 9 0 6 -4 13 -10 16 -5 3
-10 -1 -10 -9z"/>
<path d="M1110 1965 c0 -8 5 -15 10 -15 6 0 10 7 10 15 0 8 -4 15 -10 15 -5 0
-10 -7 -10 -15z"/>
<path d="M170 1895 c0 -8 5 -15 10 -15 6 0 10 7 10 15 0 8 -4 15 -10 15 -5 0
-10 -7 -10 -15z"/>
<path d="M1050 1865 c0 -8 7 -15 15 -15 8 0 15 7 15 15 0 8 -7 15 -15 15 -8 0
-15 -7 -15 -15z"/>
<path d="M1320 1866 c0 -16 37 -28 46 -15 8 14 -5 29 -27 29 -10 0 -19 -6 -19
-14z"/>
<path d="M1397 1853 c-4 -3 -2 -12 3 -19 11 -13 -19 -16 -252 -30 -96 -6 -108
-5 -108 10 0 22 -6 20 -56 -11 -42 -27 -62 -62 -28 -49 9 3 29 -3 45 -15 35
-25 50 -18 24 11 -18 19 -17 20 1 20 10 0 71 4 134 10 63 5 142 10 175 11 57
3 60 1 57 -19 -4 -26 10 -28 43 -6 31 21 31 32 0 67 -28 30 -29 30 -38 20z"/>
<path d="M2090 1841 c0 -11 26 -22 34 -14 3 3 3 10 0 14 -7 12 -34 11 -34 0z"/>
<path d="M260 1810 c0 -5 7 -10 15 -10 8 0 15 5 15 10 0 6 -7 10 -15 10 -8 0
-15 -4 -15 -10z"/>
<path d="M1180 1736 c0 -18 -6 -26 -22 -28 -31 -4 -57 -52 -42 -75 9 -14 26
-18 78 -20 64 -2 87 9 47 22 -15 4 -22 19 -26 53 -4 26 -8 53 -10 60 -7 21
-25 13 -25 -12z m5 -77 c0 -7 -8 -15 -17 -17 -18 -3 -25 18 -11 32 10 10 28 1
28 -15z"/>
<path d="M1534 1749 c-8 -14 18 -31 30 -19 9 9 0 30 -14 30 -5 0 -12 -5 -16
-11z"/>
<path d="M352 1738 c6 -18 28 -21 28 -4 0 9 -7 16 -16 16 -9 0 -14 -5 -12 -12z"/>
<path d="M1690 1726 c0 -21 20 -30 33 -17 9 9 8 14 -3 21 -21 14 -30 12 -30
-4z"/>
<path d="M1926 1733 c-12 -12 -5 -23 14 -23 11 0 20 4 20 9 0 11 -26 22 -34
14z"/>
<path d="M485 1710 c-9 -15 -1 -23 21 -18 15 3 16 4 1 16 -11 9 -17 10 -22 2z"/>
<path d="M853 1708 c2 -7 10 -13 17 -13 7 0 15 6 18 13 2 7 -5 12 -18 12 -13
0 -20 -5 -17 -12z"/>
<path d="M615 1680 c-8 -12 20 -24 35 -15 5 3 10 10 10 16 0 12 -37 12 -45 -1z"/>
<path d="M735 1680 c3 -5 13 -10 21 -10 8 0 14 5 14 10 0 6 -9 10 -21 10 -11
0 -17 -4 -14 -10z"/>
<path d="M1720 1372 c-140 -1 -218 -6 -225 -13 -7 -8 65 -10 265 -5 151 3 312
6 358 6 52 0 82 4 82 11 0 7 -42 9 -132 7 -73 -2 -230 -4 -348 -6z"/>
<path d="M789 1346 c-2 -2 -102 -6 -222 -9 -119 -3 -225 -11 -235 -16 -12 -8
9 -9 73 -6 129 7 350 15 418 15 31 0 57 5 57 10 0 9 -81 15 -91 6z"/>
<path d="M1495 891 c13 -13 771 -17 768 -5 -2 5 -175 10 -390 12 -254 2 -384
-1 -378 -7z"/>
<path d="M433 882 c-83 -2 -123 -6 -123 -14 0 -8 59 -9 218 -5 119 4 252 7
295 7 48 0 77 4 77 11 0 10 -74 10 -467 1z"/>
</g>
</svg>
