<svg 
    xmlns="http://www.w3.org/2000/svg" width="794" height="900" viewBox="0 70 220 100">
    <style>
        <![CDATA[.B{stroke:#000}.C{stroke-linejoin:bevel}.D{word-spacing:0}.E{stroke-width:.525}.F{font-family:sans-serif}.G{font-size:10.583px}.H{stroke-linecap:round}.I{stroke-width:.341}]]>
    </style>
    <g fill="none" class="B C E">
        <g stroke-dasharray="1.05086814, 2.10173626" class="H">
            <ellipse cx="75.892" cy="67.578" rx="41.388" ry="38.027"/>
            <ellipse cx="125.89" cy="68.756" rx="40.473" ry="37.186" stroke-dashoffset=".4"/>
        </g>
        <ellipse cx="74.796" cy="67.107" rx="26.005" ry="23.893"/>
        <ellipse cx="126.07" cy="68.116" rx="26.005" ry="23.893"/>
    </g>
    <g fill-rule="evenodd" class="B C E">
        <ellipse cx="73.697" cy="67.78" rx="1.465" ry="1.346"/>
        <ellipse cx="125.34" cy="67.78" rx="1.465" ry="1.346"/>
    </g>
    <path d="M144.33 32.7l17.26-12.94" fill="none" marker-start="url(#A)" class="B I"/>
    <text transform="scale(1.0433 .95854)" x="154.892" y="20.614" font-family="'Bitstream Charter'" font-size="6.488" letter-spacing="0" xml:space="preserve" class="D">
        <tspan x="154.892" y="20.614">Orbital</tspan>
    </text>
    <g fill="none" class="B">
        <path d="M144.02 33.057l17.262-12.94" marker-start="url(#B)" class="I"/>
        <path d="M128.42 67.82l46.965 1.947" marker-start="url(#C)" stroke-width=".537" class="C H"/>
    </g>
    <text transform="scale(1.0433 .95854)" x="172.326" y="74.892" font-family="'Courier 10 Pitch'" font-size="6.488" letter-spacing="0" xml:space="preserve" class="D">
        <tspan x="172.326" y="74.892">nucleus</tspan>
    </text>
    <g fill="none" stroke-width=".265" class="B">
        <path d="M26.08 126.53c9.827-.378 10.205-.756 10.205-.756l-1.512 57.452H99.03l-2.646-58.208h10.96l1.9 57.074 57.452-1.134-2.646-55.94 15.497-.378"/>
        <path d="M24.946 137.5l163.3-2.268" stroke-dasharray="2.1199999,2.1199999"/>
        <path d="M23.812 162.82l165.18-2.268" stroke-dasharray="2.11666654, 2.11666654"/>
        <path d="M23.812 162.82c16.23-8.552 15.95-33.383 36.286-41.2 21.482 4.473 28.273 36.425 43.467 39.3 14.185-3.638 14.968-31.595 30.238-37.798 23.15 2.655 28.722 38.557 46.113 38.176"/>
    </g>
    <text x="61.232" y="199.86" letter-spacing="0" xml:space="preserve" class="D F G">
        <tspan x="61.232" y="199.86">Interacting Well</tspan>
    </text>
    <text x="189.366" y="182.851" letter-spacing="0" xml:space="preserve" class="D F G">
        <tspan x="189.366" y="182.851">E1</tspan>
    </text>
    <text x="188.988" y="160.551" letter-spacing="0" xml:space="preserve" class="D F G">
        <tspan x="188.988" y="160.551">E2</tspan>
    </text>
    <text x="189.366" y="135.604" letter-spacing="0" xml:space="preserve" class="D F G">
        <tspan x="189.366" y="135.604">E3</tspan>
    </text>
</svg>