<?xml version="1.0" encoding="UTF-8"?>
<svg version="1.1" height="400" wdith="400" viewBox="0 40 200 100" xmlns="http://www.w3.org/2000/svg" xmlns:cc="http://creativecommons.org/ns#" xmlns:dc="http://purl.org/dc/elements/1.1/" xmlns:rdf="http://www.w3.org/1999/02/22-rdf-syntax-ns#" xmlns:xlink="http://www.w3.org/1999/xlink">
<metadata>
<rdf:RDF>
<cc:Work rdf:about="">
<dc:format>image/svg+xml</dc:format>
<dc:type rdf:resource="http://purl.org/dc/dcmitype/StillImage"/>
</cc:Work>
</rdf:RDF>
</metadata>
<defs>
<pattern id="b" width="30.066" height="5.181" patternUnits="userSpaceOnUse">
<path d="M7.6.1C5.1-.2 2.7.3 0 1.8v1.3c2.8-1.6 5.2-2 7.5-1.8s4.5 1.1 6.8 1.9c4.6 1.7 9.6 3.5 15.8-.2V1.7c-6.4 3.7-10.8 2-15.4.3-2.3-.9-4.6-1.8-7.1-2z"/>
</pattern>
<path id="a" d="m182.9 130.8v0.6q0 1-0.3 1.4t-0.9 0.4-0.9-0.4-0.3-1.4v-0.6q0-1 0.3-1.4t0.9-0.4 0.9 0.4 0.3 1.4zm-0.5 0.7v-0.8q0-0.7-0.2-1t-0.6-0.3-0.6 0.3-0.2 1v0.8q0 0.7 0.2 1t0.6 0.3 0.6-0.3 0.2-1z"/>
</defs>
<g fill="none" stroke="#000" stroke-width=".265">
<path d="M56.9 26.3l.3 94.9c0 .3 133.9.3 133.9.3" marker-end="url(#Z)" marker-start="url(#a)"/>
<path d="M67.4 118.7v5.9m10.7-5.6v5.9M89 119v5.9m11.2-5.6v5.9m12-5.9v5.9m13.4-6.4v5.9m11.2-5.9v5.9m43.3-5.3v5.9"/>
</g>
<path d="M197.1 117.1q0-.2.1-.4.1-.2.4-.2.2 0 .4.2.1.2.1.4 0 .2-.1.4-.1.2-.4.2-.2 0-.4-.2-.1-.2-.1-.4zm.3 0q0 .1.1.3.1.1.2.1.1 0 .2-.1.1-.1.1-.3 0-.1-.1-.3-.1-.1-.2-.1-.1 0-.2.1-.1.1-.1.3zM51.2 29.7v-3.5h2.2v.4h-1.7v1.1h1.5v.4h-1.5v1.2h1.8v.4zm16.9 97.8v4h-.5v-3.4l-1 .4v-.5l1.5-.6zm10.9 4v.4h-2.6v-.4l1.3-1.5q.4-.4.5-.6.1-.2.1-.5 0-.3-.2-.5-.2-.2-.5-.2-.4 0-.6.2-.2.2-.2.6h-.5q0-.5.3-.9.3-.4 1-.4.6 0 .9.3.3.3.3.8 0 .4-.2.7-.2.4-.5.7l-1.1 1.2zm10.3-1.2h-.4v-.4h.4q.4 0 .6-.2.2-.2.2-.5 0-.7-.7-.7-.3 0-.5.2-.2.2-.2.5h-.5q0-.5.3-.8.3-.3.9-.3.5 0 .9.3.3.3.3.8 0 .2-.2.5-.1.3-.5.4.4.1.5.4.1.3.1.5 0 .6-.4.9-.4.3-.9.3-.5 0-.9-.3-.4-.3-.4-.8h.5q0 .3.2.5.2.2.6.2.3 0 .6-.2.2-.2.2-.6 0-.4-.2-.6-.2-.2-.6-.2zm10.6-.5l-.4-.1.2-2h2.1v.5h-1.6l-.1 1.1q.1-.1.3-.1.2-.1.4-.1.6 0 .9.4.3.4.3 1 0 .6-.3 1-.3.4-1 .4-.5 0-.8-.3-.4-.3-.4-.8h.5q.1.7.8.7.4 0 .6-.2.2-.2.2-.7 0-.4-.2-.6-.2-.3-.6-.3-.3 0-.4.1-.1.1-.3.2zm14.6 1.1q0 .6-.3 1-.3.4-.9.4-.4 0-.7-.2-.3-.2-.4-.6-.1-.4-.1-.7v-.2q0-.6.2-1.1.2-.5.6-.9.4-.3 1.2-.3v.4q-.5 0-.8.2-.3.2-.4.5-.1.3-.2.6.2-.2.4-.3.2-.1.5-.1.4 0 .7.2.3.2.4.5.1.3.1.6zm-2-.2q0 .5.2.8.2.3.5.3.4 0 .5-.3.2-.3.2-.7 0-.4-.2-.6-.2-.3-.6-.3-.3 0-.5.2-.2.2-.3.4zm66.5-1.6v4h-.5v-3.4l-1 .4v-.5l1.5-.6z"/>
<use xlink:href="#a"/>
<use x="3.2" xlink:href="#a"/>
<path d="M138.2 131.6q0 .6-.4.8-.4.3-.9.3-.5 0-.9-.3-.4-.3-.4-.8 0-.3.2-.6.2-.3.5-.4-.3-.1-.4-.4-.2-.2-.2-.5 0-.5.3-.8.3-.3.8-.3.5 0 .8.3.3.3.3.8 0 .3-.2.5-.2.2-.4.4.3.1.5.4.2.3.2.6zm-.6-1.9q0-.3-.2-.5-.2-.2-.5-.2-.3 0-.5.2-.2.2-.2.5 0 .3.2.5.2.2.5.2.3 0 .5-.2.2-.2.2-.5zm.1 1.9q0-.3-.2-.5-.2-.2-.6-.2-.3 0-.6.2-.2.2-.2.5 0 .3.2.5.2.2.6.2.4 0 .6-.2.2-.2.2-.5zm-10.2-3.3v.3l-1.7 3.7h-.5l1.7-3.6h-2.2v-.4z"/>
<g stroke="#000">
<path d="M13.1 101.3l176.8 1.1M9.4 65l180.4.4M10.2 29l182.6.7" fill="none" stroke-dasharray="2.1 1.1" stroke-width=".265"/>
<path d="M101.452 111.974c-14.1-1.62-30.1-5.37-29.2-6.8.12-.2-.2-.36-.72-.36-1.3 0-7.56-5.1-10.26-8.34-2.28-2.73-4.38-6.72-4.7-9-.18-1.26 3.18-18.24 3.75-18.8.12-.12.63.18 1.14.63 1.44 1.32 8.07 4.95 10.68 5.82 3.8 1.32 22.47 6.12 26.28 6.78 1.92.33 5.64.72 8.28.87s5.22.33 5.73.42c1.26.24 4.08-.2 4.08-.7 0-.2-.27-.36-.63-.36-1.08 0-10.05-7.08-14.2-11.2-2.16-2.13-5.22-5-6.84-6.4-3.57-3.06-14.7-11.37-18.06-13.5-5.22-3.33-10.65-10.17-15.48-19.53-1.23-2.34-2.8-4.92-3.5-5.7-1.38-1.47-1.4-2.58-.1-2.58.8 0 1.08-.66.36-.9-.33-.12 5.22-11.37 6.03-12.24.1-.1 1.05.66 2.13 1.65 5.76 5.22 7.8 6.93 10.47 8.7 2.52 1.68 2.8 1.95 1.83 1.95-.6 0-1.1.2-1.1.45 0 .3.66.4 1.74.3 1.56-.15 2.55.27 9.78 4.08 11.88 6.3 12.96 6.78 30.27 13.44 2.73 1.05 6.06 2.55 7.4 3.36 4.56 2.67 22.17 11.22 28.2 13.7 13.32 5.5 36.118 7.156 34.978 7.666-.63.27-16.638.124-16.638-.116 0-.2-7.098-.233-7.758-.233s-.124-.158.028.027c1.494 1.813-2.198-.13-1.928-.13.45 0-2.53.316-11.95 4.036-1.26.48-4.4 2.13-7 3.66s-5.76 3.27-7 3.9c-3.66 1.83-10.98 6.9-10.3 7.14.33.12 1.23.75 2 1.4 1.74 1.53 7.14 4.02 12.57 5.85 5.46 1.83 10.2 3.93 15.45 6.84 6 3.33 12.407 3.38 18.077 4.34 5.414-.43 5.034.194 6.654.207 7.857.068 8.12-.34 8.12-.07 0 .3-8.494.547-7.264.427 0 0-1.578-.517-4.308.053-5.07 1.1-7.928 5.39-15.698 5.36-10.14-.03-14.76.4-26.58 2.46-8.73 1.53-18.54 2.52-24.1 2.4-1.35-.03-6.18-.48-10.7-1z" fill="#4d4d4d" fill-rule="evenodd" opacity=".16" stroke-dasharray="4.1 2.1" stroke-linecap="round" stroke-linejoin="bevel" stroke-width=".155"/>
</g>
<path d="M195.8 32.3v-.4q-.3.4-1 .4-.6 0-1-.5-.4-.5-.4-1.2v-.1q0-.8.4-1.2.4-.5 1-.5.6 0 .9.4v-1.7h.6v4.8zm-1.7-1.6q0 .5.2.9.2.4.7.4.3 0 .5-.1.2-.1.3-.3v-1.7q-.1-.2-.3-.3-.2-.1-.5-.1-.5 0-.7.4-.2.4-.2.9zm.3 34.9q-.5 0-.9-.3v1.4h-.5v-4.1h.5v.3q.3-.4.9-.4.6 0 .9.4.3.4.3 1.1v.1q0 .7-.3 1.1-.3.4-.9.4zm-.2-2.7q-.3 0-.4.1-.2.1-.3.3v1.4q.1.2.3.3.2.1.4.1.4 0 .6-.3.2-.3.2-.8v-.1q0-.4-.2-.8-.2-.3-.6-.3zm1.4 39.1q0-.2-.1-.3-.1-.1-.6-.2-.5-.1-.8-.3-.3-.2-.3-.6 0-.4.3-.6.3-.3.8-.3.5 0 .8.3.3.3.3.7h-.5q0-.2-.2-.3-.2-.2-.5-.2-.3 0-.5.1-.1.1-.1.3 0 .2.1.3.1.1.6.2.5.1.8.3.3.2.3.6 0 .4-.3.6-.3.2-.8.2-.6 0-.9-.3-.3-.3-.3-.7h.5q0 .3.2.4.2.1.5.1.3 0 .5-.1.2-.1.2-.3z"/>
<path d="M105.5 119.3L104.2 22" fill="url(#b)" marker-end="url(#X)" marker-mid="url(#W)" marker-start="url(#W)" stroke="#000" stroke-dasharray="4 2" stroke-width=".5"/>
<g transform="matrix(1 0 0 1.1007 0 -7.8612)" fill="none" stroke-dasharray="4.8, 4.8" stroke-width=".6">
<path d="M104.9 74.4H11.6" stroke="#f90000"/>
<path d="M103.8 81.9H10.5" stroke="#fc0000"/>
<path d="M101.1 38.6H7.8m97.4 70.4H11.8" stroke="#f90000"/>
</g>
<g stroke="#000">
<path d="M35.133 73.573l-.4-35.72" fill="url(#Q)" marker-end="url(#S)" marker-start="url(#R)" stroke-dasharray="4.8, 2.4" stroke-width=".618"/>
<path d="m35.833 108.66l-0.4-25.545" fill="url(#M)" marker-end="url(#p)" marker-start="url(#o)" stroke-dasharray="4.1, 2" stroke-width=".523"/>
<path transform="matrix(1 0 0 1.0599 -.66741 -4.8629)" d="M44.2 80.8l-.4-6.7" fill="url(#b)" marker-end="url(#AC)" marker-start="url(#AB)" stroke-dasharray="3.2, 1.6" stroke-width=".4"/>
</g>
<text x="77.396004" y="143.466" font-family="'Arabic Newspaper'" font-size="8px" letter-spacing="0" word-spacing="0" xml:space="preserve"><tspan x="77.396004" y="143.466">Inter Atomic distance</tspan></text>
<text x="26.428" y="23.596" font-family="Adobe New Century Schoolbook" font-size="8" letter-spacing="0" word-spacing="0" xml:space="preserve"><tspan x="26.428" y="23.596">Energy</tspan></text>
</svg>
