<svg xmlns="http://www.w3.org/2000/svg" xmlns:xlink="http://www.w3.org/1999/xlink" width="794" height="1123" viewBox="0 0 210 297"><style><![CDATA[.H{opacity:.16}.I{stroke:#000}.J{stroke-width:.6}.K{stroke-width:.265}]]></style><defs><pattern id="A" width="30.066" height="5.181" patternUnits="userSpaceOnUse"><path d="M7.597.06C5.08-.187 2.656.302-.01 1.788V3.06c2.783-1.63 5.183-2 7.482-1.78s4.497 1.08 6.78 1.938c4.567 1.713 9.55 3.458 15.813-.157l-.004-1.273c-6.44 3.7-10.816 1.982-15.37.273-2.278-.854-4.576-1.75-7.094-2z"/></pattern><path id="B" d="M182.9 130.82v.612q0 .987-.342 1.378-.34.4-.923.4-.576 0-.923-.4-.347-.4-.347-1.378v-.612q0-.984.345-1.362.345-.38.92-.38.584 0 .926.38.345.378.345 1.362zm-.513.695v-.78q0-.678-.193-.96-.193-.28-.565-.28-.364 0-.56.28-.193.28-.193.96v.78q0 .672.196.97.198.298.562.298.375 0 .562-.298.2-.298.2-.97z"/><path id="C" d="M573.87 386.43c0-.755-2.198-1.372-4.884-1.372-2.906 0-4.54.556-4.036 1.372.466.755 2.664 1.372 4.884 1.372s4.036-.618 4.036-1.372z"/><path id="D" d="M586.22 386.43c0-.755-2.16-1.372-4.803-1.372s-4.803.618-4.803 1.372 2.16 1.372 4.803 1.372 4.803-.618 4.803-1.372z"/><path id="E" d="M597.9 386.43c.505-.817-1.13-1.372-4.036-1.372-2.686 0-4.884.618-4.884 1.372s1.816 1.372 4.036 1.372 4.418-.618 4.884-1.372z"/><path id="F" d="M609.55 386.43c0-.755-1.853-1.372-4.117-1.372s-4.117.618-4.117 1.372 1.853 1.372 4.117 1.372 4.117-.618 4.117-1.372z"/><path id="G" d="M477.8 385.06c0-.755-1.816-1.372-4.036-1.372s-4.418.618-4.884 1.372c-.505.817 1.13 1.372 4.036 1.372 2.686 0 4.884-.618 4.884-1.372z"/><path id="H" d="M488.47 385.5c-1.312-.343-3.782-.356-5.5-.028s-.634.6 2.385.624 4.416-.253 3.104-.597z"/><path id="I" d="M500.82 385.5c-1.312-.343-3.782-.356-5.5-.028s-.634.6 2.386.624 4.416-.253 3.104-.597z"/><path id="J" d="M511.78 385.5c-1.32-.345-3.482-.345-4.803 0s-.24.628 2.4.628 3.722-.282 2.4-.628z"/><path id="K" d="M536.14 246.46c-.466-.755-2.664-1.372-4.884-1.372s-4.036.618-4.036 1.372 2.198 1.372 4.884 1.372c2.907 0 4.54-.556 4.036-1.372z"/><path id="L" d="M12.983 96.075l.028.17c.023.12.1.18.192.18h.435c.147 0 .22-.068.22-.198 0-.164-.096-.192-.327-.192h-.14v-1.247c0-.666-.327-.976-1.033-.976-.62 0-1.027.198-1.027.4 0 .14.085.23.186.23.214 0 .44-.23.83-.23.423 0 .62.198.62.62v.017c-.226-.056-.44-.085-.655-.085-.818 0-1.276.344-1.276.914 0 .485.36.824.914.824.378 0 .734-.147 1.033-.418zm-.017-.87v.3c0 .248-.452.564-.948.564-.322 0-.542-.186-.542-.43 0-.3.322-.53.9-.53a1.82 1.82 0 0 1 .581.096z"/><path id="M" d="M12.093 79.723h.344c.164 0 .237-.068.237-.22a.14.14 0 0 0-.164-.158h-.265l.294-1.36a.95.95 0 0 0 .023-.214c0-.4-.282-.66-.84-.66-.62 0-1.112.226-1.112.446 0 .1.073.158.18.158.175 0 .468-.23.88-.23.3 0 .457.135.457.4a1.22 1.22 0 0 1-.045.288c-.214-.062-.418-.096-.62-.096-.87 0-1.434.435-1.434.965 0 .435.322.734.818.734.373 0 .734-.17 1.04-.508-.028.124-.045.2-.045.27 0 .17.068.186.254.186zm-.085-1.225l-.028.152c-.073.384-.564.722-1.044.722-.3 0-.463-.147-.463-.373 0-.322.36-.593 1.005-.593.18 0 .35.034.53.1z"/><path id="N" d="M45.55 21.602q-.16.23-.5.42-.33.2-.82.2-.784 0-1.225-.474-.44-.477-.44-1.15v-.12q0-.76.422-1.246.425-.487 1.144-.487.722 0 1.1.453.378.453.378 1.197v.38h-2.136q.047.326.257.527.2.198.555.198.512 0 .8-.375zm-1.414-2.15q-.285 0-.44.192-.155.192-.202.502h1.246v-.068q-.006-.27-.152-.446-.143-.18-.453-.18z"/><path id="O" d="M89.26 140.98q-.112.037-.245.06-.13.025-.295.025-.44 0-.7-.23-.26-.23-.26-.763v-1.77h-.493v-.654h.493v-.828h.896v.828h.57v.654h-.57v1.677q0 .2.087.28.087.068.257.068.08 0 .146-.006.068-.01.115-.02z"/><path id="P" d="M112.44 136.78q0-.202.136-.332.136-.133.366-.133.23 0 .366.133.136.13.136.332 0 .198-.136.332-.136.13-.366.13-.23 0-.366-.13-.136-.133-.136-.332zm.955.868v3.355h-.9v-3.355z"/></defs><g fill="none" class="I K"><path d="M56.928 26.256l.267 94.88c0 .267 133.9.267 133.9.267" marker-end="url(#Z)" marker-start="url(#a)"/><path d="M67.352 118.73v5.88m10.7-5.6v5.88M89 119v5.88m11.23-5.6v5.88m12.02-5.9v5.88m13.37-6.42v5.88m11.22-5.88v5.88m43.3-5.34v5.88"/></g><path d="M197.06 117.1v-.022q0-.243.137-.406.137-.163.38-.163.246 0 .383.163.137.163.137.406v.022q0 .244-.137.406-.136.162-.38.162-.246 0-.383-.162-.137-.162-.137-.406zm.25-.022v.022q0 .15.064.26.065.107.207.107.138 0 .203-.107.065-.1.065-.26v-.022q0-.148-.065-.257-.064-.1-.205-.1-.14 0-.205.1-.064.1-.064.257zM51.2 29.73v-3.5h2.207v.38h-1.74v1.13h1.52v.38h-1.52v1.244h1.765v.38zm16.885 97.83v4.035h-.5v-3.398l-1.028.375v-.46l1.458-.55zm10.878 3.96v.42h-2.626v-.367l1.315-1.464q.364-.405.5-.637.127-.234.127-.47 0-.295-.185-.504-.182-.2-.515-.2-.402 0-.6.23-.198.23-.198.587h-.5q0-.507.333-.87.333-.364.976-.364.568 0 .887.295.322.295.322.777 0 .356-.223.717-.22.36-.53.695l-1.075 1.166zm10.294-1.22h-.364v-.42h.364q.4 0 .595-.196.196-.196.196-.5 0-.706-.7-.706-.325 0-.526.187-.2.185-.2.5h-.5q0-.46.34-.783.342-.322.898-.322.543 0 .876.3.336.287.336.846 0 .223-.152.477-.15.254-.48.394.4.13.546.4.146.27.146.543 0 .562-.364.868-.364.306-.907.306-.524 0-.898-.3-.375-.292-.375-.827h.5q0 .317.204.507.207.2.56.2.35 0 .554-.185.204-.185.204-.56 0-.375-.232-.55-.232-.18-.62-.18zm10.596-.53l-.408-.105.2-1.998h2.06v.47h-1.626l-.12 1.1q.1-.063.278-.12.17-.055.4-.055.554 0 .874.367.322.364.322.978 0 .576-.314.956-.314.378-.956.378-.488 0-.843-.273-.356-.276-.4-.838h.485q.096.692.77.692.36 0 .56-.245.198-.245.198-.664 0-.378-.2-.634-.207-.26-.593-.26-.256 0-.4.07-.132.07-.267.187zm14.577 1.13q0 .57-.32.967-.317.397-.926.397-.433 0-.72-.23-.287-.232-.43-.584-.14-.356-.14-.728v-.24q0-.565.157-1.1.16-.526.576-.863.416-.34 1.2-.34h.044v.433h-.044q-.488 0-.785.187-.298.187-.444.488-.143.298-.174.64.165-.187.386-.273.223-.088.477-.088.4 0 .653.193.256.193.378.5.12.303.12.63zm-2.023-.16q0 .535.237.82.24.284.54.284.353 0 .546-.256.196-.26.196-.66 0-.358-.18-.642-.18-.284-.55-.284-.267 0-.485.16-.218.16-.303.4zm66.493-1.64v4.035h-.5v-3.398l-1.028.375v-.46l1.458-.55z"/><use xlink:href="#B"/><use xlink:href="#B" x="3.2"/><path d="M138.22 131.55q0 .55-.37.846-.367.295-.907.295-.54 0-.9-.295-.367-.295-.367-.846 0-.336.18-.593.182-.26.5-.4-.267-.13-.424-.367-.154-.237-.154-.532 0-.526.333-.813.336-.287.85-.287.515 0 .85.287.336.287.336.813 0 .298-.16.535-.16.234-.427.364.3.132.496.4.185.26.185.593zm-.604-1.874q0-.3-.187-.493-.187-.196-.488-.196-.3 0-.485.187-.185.185-.185.502 0 .3.185.5.185.187.488.187.3 0 .485-.187.187-.187.187-.5zm.1 1.863q0-.336-.215-.548-.212-.212-.554-.212-.35 0-.557.212-.204.212-.204.548 0 .347.204.54.207.193.562.193.356 0 .56-.193.204-.193.204-.54zm-10.236-3.26v.287l-1.662 3.726h-.537l1.66-3.594h-2.172v-.42z"/><g class="I"><g fill="none" class="K"><path d="M13.07 101.3l176.82 1.1" stroke-dasharray="2.11666654, 1.05833327"/><path d="M9.44 65l180.45.363" stroke-dasharray="2.11666654,1.05833327"/><path d="M10.166 29.046l182.63.726" stroke-dasharray="2.1199999,1.05999995"/></g><g transform="scale(.26458)" fill="#4d4d4d" fill-rule="evenodd" stroke-dasharray="4.14236225, 2.07118112999999981" stroke-linecap="round" stroke-linejoin="bevel" stroke-width=".518"><path d="M382.44 407.63c-46.998-5.448-100.32-17.9-97.332-22.73.412-.666-.684-1.2-2.435-1.2-4.297 0-25.238-17.014-34.223-27.804-7.575-9.098-14.566-22.437-15.74-30.034-.647-4.187 10.63-60.822 12.48-62.67.396-.396 2.107.552 3.802 2.107 4.763 4.367 26.886 16.46 35.583 19.45 12.67 4.357 74.927 20.442 87.573 22.627 6.415 1.108 18.843 2.4 27.617 2.85s17.386 1.1 19.138 1.45c4.227.814 13.625-.74 13.625-2.253 0-.658-.95-1.197-2.114-1.197-3.58 0-33.525-23.594-47.287-37.257-7.17-7.118-17.422-16.684-22.78-21.257-11.914-10.166-48.983-37.88-60.24-45.037-17.388-11.055-35.528-33.92-51.638-65.1-4.053-7.842-9.34-16.38-11.747-18.973-4.585-4.937-4.704-8.623-.28-8.623 2.73 0 3.602-2.18 1.193-2.984-1.063-.355 17.424-37.943 20.064-40.793.28-.303 3.497 2.167 7.148 5.5 19.154 17.43 25.954 23.084 34.9 29.025 8.384 5.567 9.276 6.518 6.116 6.518-2.035 0-3.7.682-3.7 1.516 0 .956 2.153 1.3 5.83.96 5.244-.5 8.5.865 32.6 13.624 39.586 20.974 43.183 22.572 100.87 44.808 9.057 3.5 20.172 8.516 24.7 11.166 15.238 8.917 73.93 37.447 94 45.693 44.418 18.25 42.88 17.492 39.08 19.222-2.077.946-3.4 1.027-3.4.207 0-.74-1.853-1.343-4.117-1.343s-4.117.618-4.117 1.372.772 1.38 1.715 1.4c1.486.015-8.707 4.242-40.14 16.648-4.15 1.638-14.65 7.126-23.33 12.194s-19.17 10.923-23.313 13c-12.193 6.142-36.566 23.027-34.3 23.755 1.114.357 4.146 2.5 6.737 4.742 5.842 5.076 23.755 13.4 41.908 19.474 18.23 6.1 33.958 13.057 51.5 22.78 19.987 11.08 36.882 17.294 55.84 20.535 14.877 2.543 20.53 4.072 15.06 4.072-1.258 0-2.287.698-2.287 1.55 0 1.025 2.084 1.316 6.15.858 8.223-.927 6.762.852-2.314 2.818-16.9 3.66-27.972 4.58-53.867 4.473-33.8-.14-49.173 1.278-88.57 8.154-29.108 5.08-61.775 8.352-80.278 8.038-4.53-.077-20.584-1.57-35.68-3.32z" class="H"/><path d="M561.52 386.43c0-.755-2.007-1.363-4.46-1.35-3.384.016-3.964.342-2.402 1.35 2.697 1.743 6.86 1.743 6.86 0z" class="H"/><use xlink:href="#C" class="H"/><use xlink:href="#D" class="H"/><use xlink:href="#E" class="H"/><use xlink:href="#F" class="H"/><use xlink:href="#D" x="35.68" class="H"/><use xlink:href="#D" x="48.03" class="H"/><path d="M345.4 385.06c.506-.818-1.156-1.372-4.117-1.372s-4.623.554-4.117 1.372c.466.755 2.32 1.372 4.117 1.372s3.65-.618 4.117-1.372z" class="H"/><use xlink:href="#E" x="-240.16" y="-1.37" class="H"/><use xlink:href="#F" x="-240.15" y="-1.37" class="H"/><use xlink:href="#C" x="-192.11" y="-1.37" class="H"/><use xlink:href="#D" x="-192.12" y="-1.37" class="H"/><use xlink:href="#D" x="-179.76" y="-1.37" class="H"/><use xlink:href="#F" x="-192.12" y="-1.37" class="H"/><path d="M429.78 385.06c0-.755-1.816-1.372-4.036-1.372s-4.417.618-4.884 1.372c-.505.817 1.13 1.372 4.036 1.372 2.686 0 4.884-.618 4.884-1.372z" class="H"/><use xlink:href="#D" x="-144.08" y="-1.37" class="H"/><path d="M453.8 385.06c-.466-.755-2.664-1.372-4.884-1.372s-4.036.618-4.036 1.372 2.198 1.372 4.884 1.372c2.906 0 4.54-.556 4.036-1.372z" class="H"/><use xlink:href="#F" x="-144.09" y="-1.37" class="H"/><use xlink:href="#G" class="H"/><use xlink:href="#H" class="H"/><use xlink:href="#I" class="H"/><use xlink:href="#J" class="H"/><use xlink:href="#H" x="35.67" class="H"/><use xlink:href="#H" x="48.03" class="H"/><use xlink:href="#H" x="60.38" class="H"/><use xlink:href="#H" x="-192.12" y="-1.38" class="H"/><use xlink:href="#I" x="-192.12" y="-1.38" class="H"/><use xlink:href="#J" x="-192.12" y="-1.4" class="H"/><use xlink:href="#H" x="-156.44" y="-1.38" class="H"/><use xlink:href="#C" x="-205.84" y="-139.97" class="H"/><use xlink:href="#D" x="-205.84" y="-139.97" class="H"/><use xlink:href="#D" x="-193.49" y="-139.97" class="H"/><use xlink:href="#F" x="-205.85" y="-139.97" class="H"/><use xlink:href="#C" x="-157.81" y="-139.97" class="H"/><use xlink:href="#D" x="-157.82" y="-139.97" class="H"/><use xlink:href="#D" x="-145.46" y="-139.97" class="H"/><use xlink:href="#F" x="-157.81" y="-139.97" class="H"/><use xlink:href="#D" x="-122.12" y="-139.97" class="H"/><use xlink:href="#D" x="-109.78" y="-139.97" class="H"/><use xlink:href="#D" x="-97.42" y="-139.97" class="H"/><use xlink:href="#F" x="-109.78" y="-139.97" class="H"/><use xlink:href="#D" x="-74.1" y="-139.97" class="H"/><use xlink:href="#D" x="-61.75" y="-139.97" class="H"/><use xlink:href="#K" class="H"/><use xlink:href="#F" x="-61.75" y="-139.97" class="H"/><use xlink:href="#G" x="82.35" y="-138.6" class="H"/><use xlink:href="#D" x="-13.72" y="-139.97" class="H"/><use xlink:href="#K" x="48.03" class="H"/><use xlink:href="#D" x="-334.82" y="-275.83" class="H"/><use xlink:href="#D" x="-322.48" y="-275.83" class="H"/><use xlink:href="#F" x="-334.83" y="-275.83" class="H"/><use xlink:href="#F" x="-322.48" y="-275.83" class="H"/><use xlink:href="#D" x="-286.8" y="-275.83" class="H"/></g></g><path d="M195.76 32.314l-.028-.36q-.344.422-.958.422-.592 0-.958-.484-.363-.484-.363-1.22v-.065q0-.77.363-1.24.366-.47.964-.47.592 0 .93.397v-1.742h.577v4.763zm-1.73-1.64q0 .5.2.86.2.357.676.357.3 0 .5-.136.2-.136.304-.35V29.86q-.112-.208-.304-.34-.2-.136-.484-.136-.468 0-.682.366-.2.363-.2.862zm.3 34.946q-.537 0-.852-.345v1.436h-.513v-4.13h.47l.025.328q.314-.383.863-.383.565 0 .865.42.3.42.3 1.102v.058q0 .653-.303 1.083-.3.43-.854.43zm-.157-2.662q-.26 0-.427.12-.168.116-.267.292v1.428q.102.176.267.292.168.113.433.113.413 0 .604-.325.193-.325.193-.77v-.058q0-.444-.193-.766-.2-.325-.6-.325zm1.447 39.112q0-.165-.124-.295-.12-.132-.562-.22-.5-.105-.788-.298-.287-.193-.287-.562 0-.353.3-.612.303-.26.805-.26.535 0 .835.273.3.273.3.66h-.5q0-.185-.163-.347-.163-.165-.463-.165-.317 0-.455.138-.138.138-.138.3 0 .165.132.267.132.1.554.193.548.127.8.328.262.2.262.562 0 .394-.317.64-.314.245-.835.245-.593 0-.907-.303-.314-.303-.314-.672h.513q.017.317.243.438.23.12.466.12.3 0 .477-.12.165-.12.165-.306z"/><path d="M105.52 119.27l-1.34-97.323" fill="url(#A)" marker-end="url(#X)" marker-mid="url(#W)" marker-start="url(#W)" stroke-dasharray="4.00000011, 2.00000006000000008" stroke-width=".5" class="I"/><g fill="none" class="J"><g stroke-dasharray="4.8, 4.79999999999999982"><path d="M104.93 74.432H11.618" stroke="#f90000"/><path d="M103.83 81.884H10.518" stroke="#fc0000"/></g><path d="M101.07 38.588H7.758m97.402 70.432H11.848" stroke="#f90000" stroke-dasharray="4.80000005, 4.80000005"/></g><g class="I"><path d="M35.77 73.98l-.413-33.668" fill="url(#M)" marker-end="url(#O)" marker-start="url(#N)" stroke-dasharray="4.8, 2.4" class="J"/><path d="M36.52 107.06l-.413-24.112" fill="url(#I)" marker-end="url(#p)" marker-start="url(#o)" stroke-dasharray="4.06202091, 2.03101046" stroke-width=".508"/><path d="M44.245 80.75l-.413-6.68" fill="url(#A)" marker-end="url(#AC)" marker-start="url(#AB)" stroke-dasharray="3.2, 1.6" stroke-width=".4"/></g><path d="M7.17 50.807c-.222-.254-.52-.375-.92-.375-1.048 0-1.848.832-1.848 1.702 0 .813.508 1.314 1.346 1.314.413 0 .8-.14 1.175-.42.2-.152.305-.292.305-.375 0-.114-.063-.178-.17-.178-.14 0-.26.114-.445.248-.267.2-.52.286-.82.286a.81.81 0 0 1-.87-.864 1.31 1.31 0 0 1 1.276-1.283c.33 0 .584.14.705.362.114.222.057.457.298.457.16 0 .23-.083.267-.248l.16-.75c.006-.02.006-.032.006-.05 0-.095-.07-.152-.216-.152-.12 0-.184.05-.2.16zm.95 1.366c0 .775.552 1.276 1.403 1.276 1.04 0 1.8-.787 1.8-1.746 0-.768-.546-1.276-1.403-1.276-1.03 0-1.8.787-1.8 1.746zm1.778-1.327c.565 0 .914.337.914.87 0 .743-.533 1.327-1.257 1.327-.57 0-.92-.33-.92-.883 0-.718.54-1.314 1.264-1.314zm4.662 2.1l.33-1.537a.92.92 0 0 0 .025-.222c0-.438-.305-.756-.8-.756-.356 0-.7.152-1.03.45l.064-.23c.006-.02.006-.038.006-.057 0-.063-.05-.1-.152-.1h-.483c-.184 0-.286.1-.286.248 0 .12.07.178.2.178h.197l-.432 2.013h-.17c-.184 0-.28.1-.28.254 0 .114.057.17.184.17h.825c.184 0 .28-.1.28-.248 0-.12-.063-.178-.184-.178h-.197l.26-1.238c.102-.483.584-.825 1.04-.825.318 0 .5.146.5.42 0 .07-.02.16-.044.267l-.292 1.378h-.17c-.184 0-.28.1-.28.254 0 .114.057.17.184.17h.825c.184 0 .28-.1.28-.248 0-.12-.07-.178-.2-.178zm3.58.426h.457c.184 0 .28-.1.28-.248 0-.12-.07-.178-.2-.178h-.222l.737-3.416c.006-.02.006-.032.006-.05 0-.102-.07-.165-.2-.165h-.64c-.184 0-.28.1-.28.248 0 .12.07.178.2.178h.406l-.254 1.162c-.235-.337-.56-.476-1-.476-.952 0-1.727.78-1.727 1.784 0 .762.483 1.232 1.2 1.232a1.56 1.56 0 0 0 1.187-.533l-.1.3c-.006.02-.006.038-.006.057 0 .064.05.095.146.095zm-1.918-1.187c0-.756.533-1.34 1.2-1.34.495 0 .832.305.832.775 0 .85-.546 1.403-1.226 1.403-.502 0-.806-.298-.806-.838zm5.553-1.25h.368l-.267 1.232c-.102.483-.584.838-1.073.838-.33 0-.495-.146-.495-.42 0-.057.02-.152.044-.28l.356-1.65c.006-.02.006-.038.006-.057 0-.07-.044-.1-.146-.1h-.483c-.184 0-.28.1-.28.248 0 .12.07.178.2.178h.2l-.33 1.53a1.46 1.46 0 0 0-.032.286c0 .394.337.7.806.7.4 0 .737-.146 1.073-.45l-.064.222c-.006.025-.013.044-.013.057 0 .07.05.095.152.095h.5c.184 0 .28-.1.28-.248 0-.12-.064-.178-.184-.178h-.197l.5-2.292c.006-.02.006-.038.006-.057 0-.07-.044-.1-.146-.1h-.648c-.184 0-.286.1-.286.248 0 .12.07.178.2.178zm4.493-.127c-.222-.254-.52-.375-.92-.375-1.048 0-1.848.832-1.848 1.702 0 .813.508 1.314 1.346 1.314.413 0 .8-.14 1.175-.42.2-.152.305-.292.305-.375 0-.114-.064-.178-.17-.178-.14 0-.26.114-.445.248-.267.2-.52.286-.82.286a.81.81 0 0 1-.87-.864 1.31 1.31 0 0 1 1.276-1.283c.33 0 .584.14.705.362.114.222.057.457.298.457.16 0 .23-.083.267-.248l.16-.75c.006-.02.006-.032.006-.05 0-.095-.07-.152-.216-.152-.12 0-.184.05-.2.16zm1.814.313l-.26 1.264a1.59 1.59 0 0 0-.038.324c0 .476.298.724.864.724.337 0 .692-.07 1.067-.216.273-.102.4-.178.4-.35 0-.102-.1-.178-.23-.178-.2 0-.6.3-1.187.3-.273 0-.425-.146-.425-.394 0-.05.013-.127.032-.216l.26-1.27h1.18c.222 0 .337-.083.337-.254 0-.146-.076-.184-.24-.184h-1.18l.152-.705a.87.87 0 0 0 .025-.16c0-.095-.102-.197-.222-.197-.14 0-.235.108-.28.317l-.165.743h-.432c-.222 0-.337.1-.337.26 0 .146.076.178.24.178zm4.678 1.827l.5-2.292c.006-.025.006-.044.006-.057 0-.07-.044-.1-.14-.1h-.92c-.184 0-.28.1-.28.248 0 .12.07.178.2.178h.622l-.425 2.013H31.4c-.184 0-.273.1-.273.254 0 .114.057.17.184.17h2.37c.184 0 .286-.1.286-.248 0-.12-.07-.178-.2-.178zm.584-3.83c-.273 0-.438.12-.438.603 0 .14.057.197.23.197.273 0 .432-.127.432-.603 0-.14-.05-.197-.222-.197zm1.514 3.055c0 .775.552 1.276 1.403 1.276 1.04 0 1.8-.787 1.8-1.746 0-.768-.546-1.276-1.403-1.276-1.03 0-1.8.787-1.8 1.746zm1.778-1.327c.565 0 .914.337.914.87 0 .743-.533 1.327-1.257 1.327-.572 0-.92-.33-.92-.883 0-.718.54-1.314 1.264-1.314zm4.664 2.1l.33-1.537a.92.92 0 0 0 .025-.222c0-.438-.305-.756-.8-.756-.356 0-.698.152-1.03.45l.063-.23c.006-.02.006-.038.006-.057 0-.063-.05-.1-.152-.1h-.483c-.184 0-.286.1-.286.248 0 .12.07.178.2.178h.197l-.432 2.013h-.17c-.184 0-.28.1-.28.254 0 .114.057.17.184.17h.825c.184 0 .28-.1.28-.248 0-.12-.064-.178-.184-.178H39.4l.26-1.238c.102-.483.584-.825 1.04-.825.318 0 .5.146.5.42 0 .07-.02.16-.044.267l-.292 1.378h-.17c-.184 0-.28.1-.28.254 0 .114.057.17.184.17h.825c.184 0 .28-.1.28-.248 0-.12-.07-.178-.2-.178zm5.983-1.992l.324-1.486c.006-.02.006-.038.006-.057 0-.07-.044-.095-.146-.095h-.5c-.184 0-.28.1-.28.248 0 .12.064.178.184.178h.197l-.673 3.207h-.178c-.184 0-.273.1-.273.254 0 .114.057.17.184.17h.4c.165 0 .248-.057.28-.2l.038-.184c.2.317.54.476 1 .476.94 0 1.708-.762 1.708-1.734 0-.743-.476-1.213-1.194-1.213-.394 0-.762.146-1.1.445zm1-.025c.45 0 .768.298.768.78 0 .775-.514 1.327-1.18 1.327-.502 0-.838-.3-.838-.78 0-.78.527-1.327 1.25-1.327zm4.217 2.444h.387c.184 0 .267-.076.267-.248 0-.114-.057-.178-.184-.178h-.298l.33-1.53a1.02 1.02 0 0 0 .025-.24c0-.45-.318-.743-.946-.743-.7 0-1.25.254-1.25.502 0 .102.083.178.203.178.197 0 .527-.26 1-.26.337 0 .514.152.514.45 0 .063-.013.17-.05.324-.24-.07-.47-.108-.7-.108-.978 0-1.613.5-1.613 1.086 0 .5.362.825.92.825.42 0 .825-.2 1.168-.572-.032.14-.05.235-.05.305 0 .2.076.2.286.2zm-.095-1.378l-.032.17c-.083.432-.635.813-1.175.813-.337 0-.52-.165-.52-.42 0-.362.406-.667 1.13-.667a1.95 1.95 0 0 1 .597.102zm4.175.952l.33-1.537a.92.92 0 0 0 .025-.222c0-.438-.305-.756-.8-.756-.356 0-.7.152-1.03.45l.063-.23c.006-.02.006-.038.006-.057 0-.063-.05-.1-.152-.1h-.483c-.184 0-.286.1-.286.248 0 .12.07.178.2.178h.197l-.432 2.013h-.17c-.184 0-.28.1-.28.254 0 .114.057.17.184.17h.825c.184 0 .28-.1.28-.248 0-.12-.064-.178-.184-.178h-.197l.26-1.238c.102-.483.584-.825 1.04-.825.318 0 .5.146.5.42 0 .07-.02.16-.044.267l-.292 1.378h-.17c-.184 0-.28.1-.28.254 0 .114.057.17.184.17h.825c.184 0 .28-.1.28-.248 0-.12-.07-.178-.2-.178zm3.58.426h.457c.184 0 .28-.1.28-.248 0-.12-.07-.178-.2-.178h-.222l.737-3.416c.006-.02.006-.032.006-.05 0-.102-.07-.165-.2-.165h-.64c-.184 0-.28.1-.28.248 0 .12.07.178.2.178h.406l-.254 1.162c-.235-.337-.56-.476-1-.476-.953 0-1.727.78-1.727 1.784 0 .762.483 1.232 1.2 1.232a1.56 1.56 0 0 0 1.187-.533l-.1.3c-.006.02-.006.038-.006.057 0 .064.05.095.146.095zm-1.918-1.187c0-.756.533-1.34 1.2-1.34.495 0 .832.305.832.775 0 .85-.546 1.403-1.226 1.403-.502 0-.806-.298-.806-.838zM7.696 94.27l.903 2c.073.17.135.243.322.243.198 0 .254-.068.333-.243l.9-2h.05c.22 0 .316-.04.316-.198 0-.13-.073-.192-.22-.192h-.852c-.18 0-.26.028-.26.192s.102.203.36.203l.164-.006-.796 1.784L8.2 94.27h.102c.226 0 .322-.04.322-.198 0-.164-.08-.192-.26-.192H7.6c-.147 0-.22.062-.22.192 0 .158.1.198.316.198z"/><use xlink:href="#L"/><path d="M15.565 93.213v2.822h-.762c-.152 0-.23.062-.23.192s.073.198.22.198h2.032c.164 0 .226-.04.226-.198 0-.135-.068-.192-.2-.192h-.858V92.93c0-.068-.05-.113-.158-.113h-.9c-.147 0-.22.068-.22.198 0 .14.08.192.26.192l.14.006zm2.662 1.7c.107-.457.463-.728.948-.728.446 0 .796.288.847.728zm-.01.36h1.85c.34 0 .457 0 .457-.26 0-.615-.514-1.208-1.35-1.208-.852 0-1.44.548-1.44 1.338 0 .824.53 1.35 1.383 1.35a2.63 2.63 0 0 0 1.151-.277c.164-.08.243-.164.243-.277 0-.102-.085-.18-.192-.18-.248 0-.604.344-1.163.344-.57 0-.914-.3-.943-.83zm3.298.762h-.056c-.226 0-.322.034-.322.192 0 .13.073.198.23.198h.65c.2 0 .294-.01.294-.198 0-.152-.073-.198-.265-.198l-.12.006V94.9c0-.412.384-.66.717-.66.36 0 .564.22.564.66v1.146h-.1c-.198 0-.277.04-.277.192 0 .18.08.198.277.198h.6c.198 0 .294-.04.294-.198 0-.14-.085-.192-.26-.192h-.124V94.8c0-.638-.373-.982-.897-.982-.288 0-.542.124-.807.373v-.186c0-.068-.05-.113-.158-.113h-.26c-.254 0-.378 0-.378.192 0 .14.08.198.254.198h.124zM27.18 94.7v-.514c0-.237-.028-.34-.198-.34-.14 0-.214.05-.214.175v.01c-.305-.152-.58-.23-.87-.23-.8 0-1.4.58-1.4 1.343s.593 1.338 1.394 1.338c.666 0 1.287-.412 1.287-.672 0-.113-.08-.192-.192-.192-.147 0-.254.135-.423.248-.198.13-.423.203-.643.203-.576 0-.943-.384-.943-.93 0-.53.395-.9.965-.9.327 0 .587.152.756.452.085.152.14.22.26.22.135 0 .2-.068.2-.203zm1.233.212c.107-.457.463-.728.948-.728.446 0 .796.288.847.728zm-.01.36h1.85c.34 0 .457 0 .457-.26 0-.615-.514-1.208-1.35-1.208-.852 0-1.44.548-1.44 1.338 0 .824.53 1.35 1.383 1.35a2.63 2.63 0 0 0 1.152-.277c.164-.08.243-.164.243-.277 0-.102-.085-.18-.192-.18-.248 0-.604.344-1.163.344-.57 0-.914-.3-.943-.83zm7-.998V92.93c0-.08-.05-.113-.158-.113h-.418c-.147 0-.22.068-.22.198 0 .14.08.192.254.192l.124.006v2.822h-.056c-.226 0-.322.034-.322.192 0 .13.073.198.22.198h.502c.085 0 .113-.045.113-.14v-.22c.186.277.474.412.858.412a1.29 1.29 0 0 0 1.304-1.298 1.27 1.27 0 0 0-1.293-1.298c-.4 0-.7.135-.9.395zm.858 1.767a.84.84 0 0 1-.869-.881.84.84 0 0 1 .869-.881c.514 0 .87.378.87.88a.83.83 0 0 1-.869.881z"/><use xlink:href="#L" x="27.163"/><path d="M41.888 96.035h-.056c-.226 0-.322.034-.322.192 0 .13.073.198.23.198h.65c.2 0 .294-.01.294-.198 0-.152-.073-.198-.265-.198l-.12.006V94.9c0-.412.384-.66.717-.66.36 0 .564.22.564.66v1.146h-.1c-.198 0-.277.04-.277.192 0 .18.08.198.277.198h.6c.198 0 .294-.04.294-.198 0-.14-.085-.192-.26-.192H44V94.8c0-.638-.373-.982-.897-.982-.288 0-.542.124-.807.373v-.186c0-.068-.05-.113-.158-.113h-.26c-.254 0-.378 0-.378.192 0 .14.08.198.254.198h.124zm3.446-.845c0-.548.35-.9.87-.9a.84.84 0 0 1 .869.881c0 .508-.367.892-.875.892-.5 0-.864-.344-.864-.864zm1.806 1.236h.525c.12 0 .198-.073.198-.198 0-.14-.08-.192-.254-.192h-.124V92.93c0-.08-.05-.113-.158-.113h-.564c-.147 0-.22.068-.22.198 0 .18.12.198.378.198h.147v1.056c-.214-.265-.52-.395-.897-.395a1.28 1.28 0 0 0-1.3 1.304c0 .773.53 1.315 1.225 1.315.4 0 .728-.158.948-.435v.226c0 .096.023.14.107.14zM7.456 77.573l.288-1.32c.006-.017.006-.034.006-.05 0-.062-.04-.085-.13-.085h-.435c-.164 0-.248.08-.248.22 0 .107.056.158.164.158h.175l-.598 2.85H6.52c-.164 0-.243.08-.243.226 0 .102.05.152.164.152h.356c.147 0 .22-.05.248-.186l.034-.164c.186.282.48.423.897.423.835 0 1.518-.677 1.518-1.54 0-.66-.423-1.078-1.06-1.078-.35 0-.677.13-.976.395zm.897-.023c.4 0 .683.265.683.694 0 .7-.457 1.18-1.05 1.18-.446 0-.745-.277-.745-.694 0-.694.468-1.18 1.112-1.18z"/><use xlink:href="#M"/><path d="M15.72 79.345l.294-1.366c.017-.068.023-.135.023-.198 0-.4-.27-.672-.7-.672-.316 0-.62.135-.914.4l.056-.203c.006-.017.006-.034.006-.05 0-.056-.045-.08-.135-.08h-.43c-.164 0-.254.08-.254.22 0 .107.062.158.17.158H14l-.384 1.8h-.152c-.164 0-.248.08-.248.226 0 .102.05.152.164.152h.734c.164 0 .248-.08.248-.22 0-.107-.056-.158-.164-.158h-.175l.23-1.1c.1-.43.52-.734.926-.734.282 0 .435.13.435.373a1.14 1.14 0 0 1-.04.237l-.26 1.225h-.152c-.164 0-.248.08-.248.226 0 .102.05.152.164.152h.734c.164 0 .248-.08.248-.22 0-.107-.062-.158-.17-.158zm3.18.378h.406c.164 0 .248-.08.248-.22 0-.107-.062-.158-.17-.158h-.198l.655-3.037c.006-.017.006-.028.006-.045 0-.1-.062-.147-.17-.147h-.57c-.164 0-.248.08-.248.22 0 .107.062.158.17.158h.36l-.226 1.033c-.2-.3-.497-.423-.897-.423-.847 0-1.535.694-1.535 1.586 0 .677.43 1.095 1.067 1.095a1.39 1.39 0 0 0 1.055-.474l-.08.277c-.006.017-.006.034-.006.05 0 .056.045.085.13.085zm-1.705-1.055c0-.672.474-1.2 1.067-1.2.44 0 .74.27.74.7 0 .756-.485 1.247-1.1 1.247-.446 0-.717-.265-.717-.745zm7.875-1.186c.395 0 .655.26.655.62 0 .66-.463 1.14-.96 1.14-.406 0-.655-.248-.655-.66 0-.638.43-1.1.96-1.1zm.446 1.755c-.14.83-.34 1.168-.954 1.168-.198 0-.356-.05-.485-.05-.14 0-.26.102-.26.226 0 .192.198.243.62.243.8 0 1.197-.322 1.343-1.016l.48-2.252h.17c.164 0 .248-.08.248-.22 0-.107-.056-.158-.164-.158h-.468c-.068 0-.12.05-.135.152l-.028.186c-.152-.26-.44-.406-.807-.406-.768 0-1.422.638-1.422 1.485a.96.96 0 0 0 .999 1.016 1.11 1.11 0 0 0 .864-.373z"/><use xlink:href="#M" x="16.977"/><path d="M32.822 78.194c0 .66-.457 1.163-1.05 1.163-.446 0-.74-.27-.74-.7 0-.7.5-1.185 1.072-1.185.44 0 .717.265.717.7zm-2.2 2.246l.243-1.135c.186.282.48.423.897.423a1.52 1.52 0 0 0 1.518-1.535c0-.66-.43-1.078-1.067-1.078-.35 0-.672.13-.97.395l.056-.203a.25.25 0 0 0 .01-.05c0-.056-.045-.08-.135-.08h-.463c-.164 0-.248.08-.248.22 0 .107.062.158.17.158h.198l-.615 2.884h-.18c-.164 0-.248.08-.248.226 0 .102.05.152.164.152h1.197c.164 0 .254-.073.254-.214 0-.107-.062-.164-.17-.164zm5-58.292v-4.514h3.02v.753h-2.087v1.076h1.783v.73h-1.783V21.4h2.096v.75zm4.96-2.7q-.38 0-.567.322v2.37h-.896v-3.355h.84l.03.384q.36-.446.964-.446.477 0 .77.285.3.285.3.995v2.136h-.9v-2.14q0-.322-.14-.437-.136-.115-.394-.115z"/><use xlink:href="#N"/><path d="M47.692 19.605q-.505 0-.664.344v2.198h-.9v-3.355h.846l.028.4q.264-.462.747-.462.17 0 .276.04l-.01.86q-.068-.006-.16-.015-.1-.01-.164-.01zm3.684 2.428q0 .7-.45 1.063-.446.372-1.166.372-.304 0-.67-.127-.363-.127-.58-.397l.397-.546q.332.372.815.372.357 0 .555-.192.198-.2.198-.543v-.18q-.316.353-.815.353-.626 0-.992-.484-.363-.484-.363-1.215v-.065q0-.766.363-1.24.366-.474.998-.474.295 0 .505.1.2.1.357.28l.034-.316h.812zm-2.173-1.522q0 .403.164.688.167.282.52.282.4 0 .6-.3v-1.408q-.177-.307-.583-.307-.35 0-.52.288-.17.285-.17.7zm4.36 2.14q-.06.167-.174.366-.115.202-.332.344-.214.143-.567.143-.124 0-.208-.015-.084-.015-.2-.043v-.68q.03.003.068.003.037 0 .07 0 .264 0 .4-.087.127-.084.192-.27l.1-.257-1.175-3.36h.964l.623 2.1.62-2.1h.958zM83.207 136.5v4.514h-.93V136.5zm2.26 1.8q-.38 0-.567.322V141h-.896v-3.355h.84l.03.384q.36-.446.964-.446.477 0 .77.285.3.285.3.995V141H86v-2.14q0-.322-.14-.437-.136-.115-.394-.115z"/><use xlink:href="#O"/><use xlink:href="#N" x="47.03" y="118.858"/><path d="M94.723 138.46q-.505 0-.664.344v2.198h-.9v-3.355h.846l.028.4q.264-.462.747-.462.17 0 .276.04l-.01.86q-.068-.006-.16-.016-.1-.01-.164-.01zm2.024 2.54l1.68-4.514h.862l1.7 4.514h-.992l-.3-.93h-1.634l-.3.93zm1.547-1.684h1.132l-.564-1.696z"/><use xlink:href="#O" x="13.7"/><path d="M103.22 139.36v-.065q0-.732.415-1.22.415-.5 1.172-.5.766 0 1.178.5.412.487.412 1.22v.065q0 .732-.412 1.218-.412.487-1.172.487-.763 0-1.178-.487-.415-.487-.415-1.218zm.9-.065v.065q0 .4.155.698.158.285.54.285.375 0 .53-.285.158-.288.158-.698v-.065q0-.4-.158-.7-.155-.295-.536-.295-.378 0-.533.295-.155.3-.155.7zm4.28-.995q-.372 0-.55.316V141h-.9v-3.355h.843l.03.37q.35-.43.96-.43.3 0 .53.12.233.12.36.4.16-.24.412-.375.254-.136.595-.136.487 0 .78.288.295.288.295.992V141h-.9v-2.14q0-.335-.136-.443-.133-.1-.366-.1-.397 0-.555.375 0 .037 0 .078V141h-.896v-2.133q0-.332-.136-.443-.136-.115-.372-.115z"/><use xlink:href="#P"/><path d="M115.53 140.34q.245 0 .403-.133.158-.136.16-.366h.843q-.006.533-.4.877-.4.344-.983.344-.778 0-1.166-.5-.384-.493-.384-1.206v-.087q0-.7.384-1.203.384-.493 1.163-.493.617 0 1 .353.388.353.394.958h-.843q-.003-.245-.15-.415-.146-.174-.42-.174-.394 0-.515.3-.118.298-.118.673v.087q0 .388.118.682.12.3.518.3zm5.32-.27q0-.143-.133-.24-.13-.1-.552-.2-.515-.1-.856-.344-.338-.24-.338-.673 0-.42.353-.73.357-.313.983-.313.654 0 1.03.307.375.307.375.775h-.896q0-.192-.124-.32-.124-.127-.388-.127-.223 0-.35.105-.124.102-.124.257 0 .146.136.24.14.093.5.16.546.1.905.332.36.223.36.722 0 .443-.38.735-.38.3-1.03.3-.704 0-1.076-.36-.372-.363-.372-.772h.853q.012.264.192.378.183.115.422.115.52 0 .52-.353zm3.18 1q-.502 0-.822-.357v1.584h-.9v-4.645h.834l.034.326q.32-.388.843-.388.64 0 .974.468.338.468.338 1.234v.065q0 .732-.338 1.222-.335.5-.964.5zm-.242-2.753q-.42 0-.58.326v1.374q.167.332.586.332.35 0 .496-.3.146-.3.146-.698v-.065q0-.415-.152-.695-.15-.282-.496-.282zM127.82 141q-.056-.118-.1-.3-.133.15-.34.257-.205.105-.505.105-.48 0-.8-.282-.33-.285-.33-.722 0-.527.4-.815.4-.3 1.157-.3h.4v-.195q0-.233-.12-.37-.118-.14-.375-.14-.48 0-.48.403h-.896q0-.437.388-.75.388-.316 1.04-.316.58 0 .96.295.384.295.384.884v1.42q0 .285.034.462.034.177.1.304v.05zm-.74-.623q.226 0 .384-.1.16-.102.23-.223v-.583h-.366q-.357 0-.52.152-.164.15-.164.37 0 .167.115.276.118.1.322.1zm3.6-.037q.245 0 .403-.133.158-.136.16-.366h.843q-.006.533-.4.877-.4.344-.983.344-.778 0-1.166-.5-.384-.493-.384-1.206v-.087q0-.7.384-1.203.384-.493 1.163-.493.617 0 1.002.353.388.353.394.958h-.843q-.003-.245-.15-.415-.146-.174-.42-.174-.394 0-.515.3-.118.298-.118.673v.087q0 .388.118.682.12.3.518.3z"/><use xlink:href="#P" x="20.16"/><path d="M135.73 138.3q-.38 0-.567.322V141h-.896v-3.355h.84l.03.384q.36-.446.964-.446.477 0 .77.285.3.285.3.995V141h-.9v-2.14q0-.322-.14-.437-.136-.115-.394-.115zm5.07 2.6q0 .7-.45 1.064-.446.372-1.166.372-.304 0-.67-.127-.363-.127-.58-.397l.397-.546q.332.372.815.372.357 0 .555-.192.198-.2.198-.543v-.18q-.316.353-.815.353-.626 0-.992-.484-.363-.484-.363-1.215v-.065q0-.766.363-1.24.366-.474.998-.474.295 0 .505.1.2.1.357.28l.034-.316h.812zm-2.173-1.522q0 .403.164.688.167.282.52.282.4 0 .6-.3v-1.408q-.177-.307-.583-.307-.35 0-.52.288-.17.285-.17.7z"/></svg>