<svg 
    xmlns="http://www.w3.org/2000/svg" width="400" height="300" viewBox="60 0 100 145">
    <defs>
        <pattern width="30.066" height="5.181" patternUnits="userSpaceOnUse">
            <path d="M7.597.06C5.08-.187 2.656.302-.01 1.788V3.06c2.783-1.63 5.183-2.01 7.482-1.78s4.497 1.08 6.78 1.938c4.567 1.713 9.55 3.458 15.813-.157l-.004-1.273c-6.44 3.71-10.816 1.982-15.37.273-2.278-.854-4.576-1.75-7.094-2z"/>
        </pattern>
        <filter id="B" x="-.173" y="-.027" width="1.346" height="1.054" color-interpolation-filters="sRGB">
            <feGaussianBlur stdDeviation=".981"/>
        </filter>
    </defs>
    <g fill="none" stroke="#000" stroke-width=".265">
        <path d="M53.395 26.6l.267 94.88c0 .267 133.9.267 133.9.267" marker-end="url(#F)" marker-start="url(#G)"/>
        <path d="M67.352 118.73v5.88m10.7-5.6v5.88M89 119v5.88m22.48-6.13v5.88m12.02-5.88v5.88m13.37-6.4v5.88m11.23-5.9v5.88m32.04-4.83v5.88"/>
    </g>
    <path d="M197.06 117.1v-.022q0-.243.137-.406.137-.163.38-.163.246 0 .383.163.137.163.137.406v.022q0 .244-.137.406-.136.162-.38.162-.246 0-.383-.162-.137-.162-.137-.406zm.25-.022v.022q0 .15.064.26.065.107.207.107.138 0 .203-.107.065-.1.065-.26v-.022q0-.148-.065-.257-.064-.1-.205-.1-.14 0-.205.1-.064.1-.064.257zm-152.796-81.7v-3.5h2.207v.38h-1.74v1.13h1.52v.38h-1.52V35h1.765v.38zm23.57 92.182v4.035h-.5v-3.398l-1.028.375v-.46l1.458-.55zm10.878 3.96v.42h-2.626v-.367l1.315-1.464q.364-.405.5-.637.127-.234.127-.47 0-.295-.185-.504-.182-.2-.515-.2-.402 0-.6.23-.198.23-.198.587h-.5q0-.507.333-.87.333-.364.976-.364.568 0 .887.295.322.295.322.777 0 .356-.223.717-.22.36-.53.695l-1.075 1.166zm10.295-1.22h-.364v-.42h.364q.4 0 .595-.196.196-.196.196-.5 0-.706-.7-.706-.325 0-.526.187-.2.185-.2.5h-.5q0-.46.34-.783.342-.322.898-.322.543 0 .876.3.336.287.336.846 0 .223-.152.477-.15.254-.48.394.4.13.546.4.146.27.146.543 0 .562-.364.868-.364.306-.907.306-.524 0-.898-.3-.375-.292-.375-.827h.5q0 .317.204.507.207.2.56.2.35 0 .554-.185.204-.185.204-.56 0-.375-.232-.55-.232-.18-.62-.18zm21.08-.43l-.408-.105.2-1.998h2.06v.47h-1.626l-.12 1.1q.1-.063.278-.12.17-.055.4-.055.554 0 .874.367.322.364.322.978 0 .576-.314.956-.314.378-.956.378-.488 0-.843-.273-.356-.276-.4-.838h.485q.096.692.77.692.36 0 .56-.245.198-.245.198-.664 0-.378-.2-.634-.207-.26-.593-.26-.256 0-.4.07-.132.07-.267.187zm15.347.507q0 .57-.32.967-.317.397-.926.397-.433 0-.72-.23-.287-.232-.43-.584-.14-.356-.14-.728v-.24q0-.565.157-1.1.16-.526.576-.863.416-.34 1.2-.34h.044v.433h-.044q-.488 0-.785.187-.298.187-.444.488-.143.298-.174.64.165-.187.386-.273.223-.088.477-.088.4 0 .653.193.256.193.378.5.12.303.12.63zm-2.023-.16q0 .535.237.82.24.284.54.284.353 0 .546-.256.196-.26.196-.66 0-.358-.18-.642-.18-.284-.55-.284-.267 0-.485.16-.218.16-.303.4z"/>
    <text x="176.635" y="130.121" font-family="'Adobe Times'" font-size="4.939" letter-spacing="0" word-spacing="0" writing-mode="lr" xml:space="preserve">
        <tspan x="176.635" y="130.121" writing-mode="lr">N</tspan>
    </text>
    <path d="M149.474 131.037q0 .55-.37.846-.367.295-.907.295-.54 0-.9-.295-.367-.295-.367-.846 0-.336.18-.593.182-.26.5-.4-.267-.13-.424-.367-.154-.237-.154-.532 0-.526.333-.813.336-.287.85-.287.515 0 .85.287.336.287.336.813 0 .298-.16.535-.16.234-.427.364.3.132.496.4.185.26.185.593zm-.604-1.874q0-.3-.187-.493-.187-.196-.488-.196-.3 0-.485.187-.185.185-.185.502 0 .3.185.5.185.187.488.187.3 0 .485-.187.187-.187.187-.5zm.1 1.863q0-.336-.215-.548-.212-.212-.554-.212-.35 0-.557.212-.204.212-.204.548 0 .347.204.54.207.193.562.193.356 0 .56-.193.204-.193.204-.54zm-10.236-3.26v.287l-1.662 3.726h-.537l1.66-3.594h-2.172v-.42z"/>
    <path d="M194.35 122.6L193 25.277" fill="url(#A)" marker-end="url(#D)" marker-mid="url(#C)" marker-start="url(#C)" stroke="#000" stroke-dasharray="4.00000011, 2.00000006" stroke-width=".5"/>
    <path d="M35.622 22.148v-4.514h3.02v.753h-2.087v1.076h1.783v.73h-1.783V21.4h2.096v.75zm4.96-2.7q-.38 0-.567.322v2.37h-.896v-3.355h.84l.03.384q.36-.446.964-.446.477 0 .77.285.3.285.3.995v2.136h-.9V20q0-.322-.14-.437-.136-.115-.394-.115zm4.968 2.144q-.16.23-.5.42-.33.2-.82.2-.784 0-1.225-.474-.44-.477-.44-1.15v-.12q0-.76.422-1.246.425-.487 1.144-.487.722 0 1.1.453.378.453.378 1.197v.38h-2.136q.047.326.257.527.2.198.555.198.512 0 .8-.375zm-1.414-2.15q-.285 0-.44.192-.155.192-.202.502h1.246v-.068q-.006-.27-.152-.446-.143-.18-.453-.18zm3.556.153q-.505 0-.664.344v2.198h-.9v-3.355h.846l.028.4q.264-.462.747-.462.17 0 .276.04l-.01.86q-.068-.006-.16-.015-.1-.01-.164-.01zm3.684 2.438q0 .7-.45 1.063-.446.372-1.166.372-.304 0-.67-.127-.363-.127-.58-.397l.397-.546q.332.372.815.372.357 0 .555-.192.198-.2.198-.543v-.18q-.316.353-.815.353-.626 0-.992-.484-.363-.484-.363-1.215v-.065q0-.766.363-1.24.366-.474.998-.474.295 0 .505.1.2.1.357.28l.034-.316h.812zm-2.173-1.522q0 .403.164.688.167.282.52.282.4 0 .6-.3v-1.408q-.177-.307-.583-.307-.35 0-.52.288-.17.285-.17.7zm4.36 2.14q-.06.167-.174.366-.115.202-.332.344-.214.143-.567.143-.124 0-.208-.015-.084-.015-.2-.043v-.68q.03.003.068.003.037 0 .07 0 .264 0 .4-.087.127-.084.192-.27l.1-.257-1.175-3.36h.964l.623 2.1.62-2.1h.958z"/>
    <text x="138.638" y="143.471" font-family="'Arabic Newspaper'" font-size="5.644" font-weight="normal" letter-spacing="0" word-spacing="0" xml:space="preserve">
        <tspan x="106.803" y="141.674">No of wells</tspan>
    </text>
    <path d="M100.38 118.7v5.88" fill="none" stroke="#000" stroke-width=".265"/>
    <text x="98.844" y="131.918" font-family="'Adobe Utopia'" font-size="5.644" letter-spacing="0" word-spacing="0" xml:space="preserve">
        <tspan x="98.844" y="131.918">4</tspan>
    </text>
    <path d="M61.103 72.355h7.96m2.437-5.648h7.96m-7.702 11.296h7.96m5.198-5.648h7.96m-8.1-11.553h7.96m-6.933 24.133h7.96M96.02 67.22h7.96m-8.1-11.553h7.96M96.918 79.8h7.96m-7.96 11.297h7.96m1.922-29.78h7.96m-8.1-11.554h7.96m-6.92 24.133h7.96m-7.96 11.296h7.96m-8.22 11.04h7.96m2.44-40.18h7.96M117.97 44.5h7.96m-7.2 24.133h7.96m-7.95 11.297h7.96m-8.22 11.04h7.96m-7.96 10.9h7.96m4.16-51.797h7.96m-7.82-11.553h7.96m-7.2 24.134h7.96M131.5 73.96h7.96M131.26 85h7.96m-7.96 10.9h7.96m-7.64 11.62h7.96m2.86-62.732h7.96m-7.84-11.553h7.96m-7.18 24.133h7.96m-7.96 11.297h7.96m-8.23 11.04H151m-7.96 10.9H151m-7.64 11.615h7.96m-7.42 9.92h7.96" fill="none" stroke="#000" stroke-width=".265"/>
    <path transform="matrix(.98549 0 0 1.0628 2.5393 -1.5272)" fill-rule="evenodd" filter="url(#B)" d="M168.16 25.886h13.607v86.777H168.16z"/>
    <path opacity="0" d="M199.23 42.06h4.62v13.607h-4.62z"/>
    <path opacity="0" d="M199.23 42.06h5.648v7.702h-5.648z"/>
    <text transform="rotate(87.728)" x="61.406" y="-194.944" font-family="sans-serif" font-size="10.583" letter-spacing="0" word-spacing="0" xml:space="preserve">
        <tspan x="61.406" y="-194.944">Band</tspan>
    </text>
</svg>