<svg 
    xmlns="http://www.w3.org/2000/svg" width="400" height="100" viewBox="0 5 200 60">
    <style>
        <![CDATA[.B{writing-mode:lr}.C{word-spacing:0}.D{stroke-width:.265}.E{font-family:sans-serif}.F{stroke-dasharray:14.40000016, 7.20000007999999969}]]>
    </style>
    <g fill="none" stroke="#000" class="D">
        <path d="M31.588 22.5l135.97.182M30.68 34.3h10.166v20.514H56.64l-.363-19.788 16.883-.363.363 19.243H88.6l.182-19.062 15.976.182.363 19.062 16.52-.182-.726-19.062 15.43-.182.545 18.336 16.52-.363-1.452-17.972 15.612.182.726 17.8"/>
        <path d="M35.037 34.13c9.075 2.704 14.04 8.632 14.523 17.065C51 41.607 57.42 36.26 64.083 32.86m.001 0c9.075 2.704 18.024 9.593 18.506 18.026 1.43-9.588 7.858-14.208 14.523-17.6m0-.01c9.075 2.704 17.88 9.176 18.363 17.6 1.43-9.588 6.406-13.664 13.07-17.065m.004-.001c9.075 2.704 14.04 8.632 14.523 17.065 1.43-9.588 8.403-14.753 15.068-18.154"/>
    </g>
    <g fill="#f00000" fill-rule="evenodd" stroke="red" stroke-linecap="round" stroke-linejoin="bevel" stroke-width="1.8">
        <circle cx="49.651" cy="22.42" r="2.269" stroke-dasharray="14.4, 7.20000000000000018"/>
        <circle cx="80.967" cy="22.329" r="2.269" class="F"/>
        <circle cx="113.46" cy="22.693" r="2.269" stroke-dasharray="14.40000016, 7.20000008"/>
        <circle cx="143.24" cy="22.874" r="2.269" class="F"/>
    </g>
    <g fill="none" stroke="#000" class="D">
        <path d="M30.68 41.936l146.14-.363" stroke-dasharray="2.11666654,1.05833327"/>
        <path d="M31.043 48.3l145.05-.908" stroke-dasharray="1.5874999,1.5874999"/>
    </g>
    <text x="177.728" y="42.299" font-size="4.939" letter-spacing="0" xml:space="preserve" class="B C E">
        <tspan x="177.728" y="42.299" class="B">E2</tspan>
    </text>
    <text x="177.91" y="49.561" font-size="4.939" letter-spacing="0" xml:space="preserve" class="B C E">
        <tspan x="177.91" y="49.561" class="B">E1</tspan>
    </text>
    <path d="M148.95 19.828l15.17-9.583" fill="none" marker-start="url(#A)" stroke="#000" class="D"/>
    <text x="164.118" y="10.245" font-size="10.583" letter-spacing="0" xml:space="preserve" class="C E">
        <tspan x="164.118" y="10.245" font-size="5.644" class="B">atoms</tspan>
    </text>
    <text x="173.189" y="59.364" font-family="'Adobe Helvetica'" font-size="5.644" letter-spacing="0" xml:space="preserve" class="C">
        <tspan x="173.189" y="59.364">energy </tspan>
    </text>
</svg>