<svg xmlns="http://www.w3.org/2000/svg" width="210" height="297" viewBox="0 0 210 297">
    <style>
        <![CDATA[.B{stroke-linejoin:bevel}.C{stroke:#000}.D{stroke-width:.525}.E{font-size:6.488px}.F{word-spacing:0}.G{stroke-linecap:round}]]>
    </style>
    <g fill="none" class="C B D">
        <g stroke-dasharray="1.05086814, 2.10173626" class="G">
            <ellipse cx="49.434" cy="67.578" rx="41.388" ry="38.027"/>
            <ellipse cx="147.05" cy="68.756" stroke-dashoffset=".4" rx="40.473" ry="37.186"/>
        </g>
        <ellipse cx="48.337" cy="67.107" rx="26.005" ry="23.893"/>
        <ellipse cx="147.24" cy="68.116" rx="26.005" ry="23.893"/>
    </g>
    <g fill-rule="evenodd" class="B C D">
        <ellipse cx="47.238" cy="67.78" rx="1.465" ry="1.346"/>
        <ellipse cx="147.45" cy="67.969" rx="1.465" ry="1.346"/>
    </g>
    <text x="169.622" y="145.96" class="E F" font-family="sans-serif" letter-spacing="0" transform="scale(1.0433 .95854)" xml:space="preserve">
        <tspan x="169.622" y="145.96">Bands</tspan>
    </text>
    <text x="165.036" y="20.614" class="E F" font-family="'Bitstream Charter'" letter-spacing="0" transform="scale(1.0433 .95854)" xml:space="preserve">
        <tspan x="165.036" y="20.614">Orbital</tspan>
    </text>
    <g fill="none" class="C">
        <path stroke-width=".341" marker-start="url(#A)" d="M165.2 33.057l17.262-12.94"/>
        <path stroke-width=".537" marker-start="url(#B)" d="M149.6 67.82l46.965 1.947" class="B G"/>
    </g>
    <text x="165.08" y="79.821" class="E F" font-family="'Courier 10 Pitch'" letter-spacing="0" transform="scale(1.0433 .95854)" xml:space="preserve">
        <tspan x="165.08" y="79.821">nucleus</tspan>
    </text>
    <path fill="none" stroke-width=".265" d="M15.875 122.38H74.84m45.73 34.58l58.02-.567m-162.904.567l59.153-.378m44.8-34.782l60.476-.2" class="C"/>
</svg>
