<svg xmlns="http://www.w3.org/2000/svg" width="210" height="297" viewBox="0 0 210 297">
    <style>
        <![CDATA[.B{stroke-width:.525}.C{stroke:#000}.D{stroke-linejoin:bevel}.E{font-size:6.488px}.F{word-spacing:0}.G{stroke-linecap:round}.H{stroke-width:.341}]]>
    </style>
    <g fill="none" class="C B">
        <g stroke-dasharray="1.05086814, 2.10173626" class="D G">
            <ellipse cx="75.892" cy="67.578" rx="41.388" ry="38.027"/>
            <ellipse cx="125.89" cy="68.756" stroke-dashoffset=".4" rx="40.473" ry="37.186"/>
        </g>
        <ellipse cx="74.796" cy="67.107" class="D" rx="26.005" ry="23.893"/>
        <ellipse cx="126.07" cy="68.116" class="D" rx="26.005" ry="23.893"/>
        <path d="M41.1 133.07l117.94-1.346M41.465 141.82l117.94-1.346M42.564 172.1l117.94-1.346m-119.04 9.426l117.94-1.346"/>
    </g>
    <g fill-rule="evenodd" class="D B C">
        <ellipse cx="73.697" cy="67.78" rx="1.465" ry="1.346"/>
        <ellipse cx="125.34" cy="67.78" rx="1.465" ry="1.346"/>
    </g>
    <text x="164.731" y="164.099" class="E F" font-family="sans-serif" letter-spacing="0" transform="scale(1.0433 .95854)" xml:space="preserve">
        <tspan x="164.731" y="164.099">Bands</tspan>
    </text>
    <path fill="none" marker-start="url(#A)" d="M144.33 32.7l17.26-12.94" class="C H"/>
    <text x="154.892" y="20.614" class="E F" font-family="'Bitstream Charter'" letter-spacing="0" transform="scale(1.0433 .95854)" xml:space="preserve">
        <tspan x="154.892" y="20.614">Orbital</tspan>
    </text>
    <g fill="none" class="C">
        <path marker-start="url(#B)" d="M144.02 33.057l17.262-12.94" class="H"/>
        <path stroke-width=".537" marker-start="url(#C)" d="M128.42 67.82l46.965 1.947" class="D G"/>
    </g>
    <text x="172.326" y="74.892" class="E F" font-family="'Courier 10 Pitch'" letter-spacing="0" transform="scale(1.0433 .95854)" xml:space="preserve">
        <tspan x="172.326" y="74.892">nucleus</tspan>
    </text>
</svg>
