<svg xmlns="http://www.w3.org/2000/svg" width="200" height="227" viewBox="40 0 109.35 127.29">
    <g fill="none" stroke="#000000" stroke-linejoin="bevel" stroke-width=".525">
        <ellipse cx="86.6" cy="65.9" stroke-dasharray="1.1 2.1" stroke-dashoffset=".4" stroke-linecap="round" rx="40.5" ry="37.2"/>
        <ellipse cx="86.8" cy="65.3" rx="26" ry="23.9"/>
    </g>
    <ellipse cx="87" cy="65.1" fill-rule="evenodd" stroke="#000000" stroke-linejoin="bevel" stroke-width=".525" rx="1.5" ry="1.3"/>
    <text x="111.7" y="143" font-family="sans-serif" font-size="6.5" letter-spacing="0" transform="scale(1,1)" word-spacing="0" xml:space="preserve">
        <tspan x="111.653" y="143.003">Bands</tspan>
    </text>
    <text x="107.1" y="17.7" font-family="'Bitstream Charter'" font-size="6.5" letter-spacing="0" transform="scale(1,1)" word-spacing="0" xml:space="preserve">
        <tspan x="107.068" y="17.657">Orbital</tspan>
    </text>
    <g fill="none" stroke="#000000">
        <path stroke-width=".341" marker-start="url(#A)" d="M 103.6 30.2 l 17.3 -12.9" transform="matrix(1,0,0,1,-4.5,0)"/>
        <path stroke-linecap="round" stroke-linejoin="bevel" stroke-width=".537" marker-start="url(#B)" d="M 93.5 64.9 l 47 1.9" transform="matrix(1,0,0,1,-4.6,0.1)"/>
    </g>
    <text x="127.2" y="76.9" font-family="'Courier 10 Pitch'" font-size="6.5" letter-spacing="0" transform="scale(1,1)" word-spacing="0" xml:space="preserve">
        <tspan x="127.219" y="76.864">nucleus</tspan>
    </text>
    <path fill="none" stroke="#000000" stroke-width=".265" d="M 60.1 154.1 l 58 -0.6 M 59.2 119 l 60.5 -0.2 M 86.7 41.9 l -0.2 21.4"/>
    <text x="74.7" y="54.1" font-family="'Adobe Courier'" font-size="3.5" letter-spacing="0" word-spacing="0" xml:space="preserve">
        <tspan x="74.65" y="54.15">0.52 A</tspan>
    </text>
    <path fill="rgb(255, 255, 255)" d="M 144.4 65.6 S 144.4 65.6 144.4 65.6"/>
</svg>
