<svg xmlns="http://www.w3.org/2000/svg" width="794" height="1123" viewBox="0 0 210 297"><style><![CDATA[.B{stroke-linejoin:bevel}.C{stroke:#000}.D{stroke-width:.525}.E{font-size:6.488px}.F{word-spacing:0}.G{stroke-linecap:round}]]></style><g fill="none" class="C B D"><g stroke-dasharray="1.05086814, 2.10173626" class="G"><ellipse cx="49.434" cy="67.578" rx="41.388" ry="38.027"/><ellipse cx="147.05" cy="68.756" rx="40.473" ry="37.186" stroke-dashoffset=".4"/></g><ellipse cx="48.337" cy="67.107" rx="26.005" ry="23.893"/><ellipse cx="147.24" cy="68.116" rx="26.005" ry="23.893"/></g><g fill-rule="evenodd" class="B C D"><ellipse cx="47.238" cy="67.78" rx="1.465" ry="1.346"/><ellipse cx="147.45" cy="67.969" rx="1.465" ry="1.346"/></g><text transform="scale(1.0433 .95854)" x="169.622" y="145.96" font-family="sans-serif" letter-spacing="0" xml:space="preserve" class="E F"><tspan x="169.622" y="145.96">Bands</tspan></text><text transform="scale(1.0433 .95854)" x="165.036" y="20.614" font-family="'Bitstream Charter'" letter-spacing="0" xml:space="preserve" class="E F"><tspan x="165.036" y="20.614">Orbital</tspan></text><g fill="none" class="C"><path d="M165.2 33.057l17.262-12.94" marker-start="url(#A)" stroke-width=".341"/><path d="M149.6 67.82l46.965 1.947" marker-start="url(#B)" stroke-width=".537" class="B G"/></g><text transform="scale(1.0433 .95854)" x="165.08" y="79.821" font-family="'Courier 10 Pitch'" letter-spacing="0" xml:space="preserve" class="E F"><tspan x="165.08" y="79.821">nucleus</tspan></text><path d="M15.875 122.38H74.84m45.73 34.58l58.02-.567m-162.904.567l59.153-.378m44.8-34.782l60.476-.2" fill="none" stroke-width=".265" class="C"/></svg>