<?xml version="1.0" standalone="no"?>
<!DOCTYPE svg PUBLIC "-//W3C//DTD SVG 20010904//EN"
 "http://www.w3.org/TR/2001/REC-SVG-20010904/DTD/svg10.dtd">
<svg version="1.0" xmlns="http://www.w3.org/2000/svg"
 width="240.000000pt" height="320.000000pt" viewBox="0 0 240.000000 320.000000"
 preserveAspectRatio="xMidYMid meet">

<g transform="translate(0.000000,320.000000) scale(0.100000,-0.100000)"
fill="#000000" stroke="none">
<path d="M1502 2948 c-14 -14 -16 -38 -3 -38 5 0 14 7 21 15 17 20 0 41 -18
23z"/>
<path d="M1742 2938 c-16 -16 -15 -35 2 -41 17 -7 26 1 26 24 0 23 -14 31 -28
17z"/>
<path d="M750 2879 c-13 -24 -4 -41 10 -19 10 16 13 40 5 40 -2 0 -9 -9 -15
-21z"/>
<path d="M946 2861 c-4 -7 -5 -15 -2 -18 9 -9 19 4 14 18 -4 11 -6 11 -12 0z"/>
<path d="M1965 2841 c-8 -15 3 -31 21 -31 9 0 14 7 12 17 -4 20 -24 28 -33 14z"/>
<path d="M606 2831 c-4 -7 -5 -15 -2 -18 9 -9 19 4 14 18 -4 11 -6 11 -12 0z"/>
<path d="M1207 2833 c-13 -12 -7 -33 8 -33 8 0 15 9 15 20 0 20 -11 26 -23 13z"/>
<path d="M1046 2821 c-3 -5 1 -14 8 -20 16 -13 32 2 21 19 -8 12 -22 13 -29 1z"/>
<path d="M1480 2780 c-64 -13 -168 -68 -219 -115 l-50 -47 -33 26 c-269 204
-663 62 -767 -278 -26 -84 -28 -193 -4 -267 19 -60 99 -169 162 -218 110 -87
258 -119 407 -86 100 21 137 39 195 93 l47 43 65 -50 c74 -55 108 -69 199 -79
168 -19 327 35 444 152 111 112 161 241 151 393 -6 95 -23 150 -73 229 -89
142 -224 214 -399 213 -49 -1 -106 -5 -125 -9z m323 -54 c207 -101 305 -345
228 -568 -28 -82 -46 -111 -105 -176 -93 -99 -226 -155 -371 -155 -68 0 -92 5
-156 32 -42 17 -94 47 -114 65 l-38 32 36 65 c96 172 88 382 -19 532 -31 42
-33 50 -21 67 18 27 52 52 120 90 82 46 145 59 263 56 93 -2 107 -5 177 -40z
m-799 -22 c68 -17 129 -50 164 -87 l23 -24 -29 -44 c-82 -123 -100 -227 -65
-380 15 -70 58 -164 89 -200 13 -14 10 -20 -27 -54 -23 -20 -69 -50 -103 -66
-273 -127 -589 38 -638 334 -8 52 -7 79 7 148 22 109 63 186 140 257 125 117
278 157 439 116z m247 -177 c57 -82 73 -137 73 -252 -1 -107 -14 -158 -70
-252 l-27 -47 -24 30 c-14 16 -39 58 -55 94 -42 88 -50 232 -20 327 20 63 67
153 80 153 4 0 23 -24 43 -53z"/>
<path d="M1382 2637 c-9 -11 -10 -17 -2 -22 15 -9 23 -1 18 21 -3 15 -4 16
-16 1z"/>
<path d="M1453 2515 c-3 -9 -3 -19 1 -22 8 -9 37 18 30 28 -8 14 -24 11 -31
-6z"/>
<path d="M1497 2363 c-12 -11 -8 -23 8 -23 8 0 15 7 15 15 0 16 -12 20 -23 8z"/>
<path d="M1527 2337 c-8 -21 8 -39 29 -35 11 2 20 13 22 26 3 18 -1 22 -21 22
-14 0 -27 -6 -30 -13z"/>
<path d="M1446 2184 c-4 -9 -4 -19 -2 -21 8 -8 26 8 26 23 0 19 -16 18 -24 -2z"/>
<path d="M1380 1995 c-9 -11 -10 -19 -2 -27 14 -14 32 -1 32 23 0 23 -13 25
-30 4z"/>
<path d="M1017 2573 c-11 -10 -8 -20 8 -27 10 -4 15 1 15 14 0 20 -11 26 -23
13z"/>
<path d="M960 2434 c-9 -10 -10 -18 -2 -26 12 -12 32 -2 32 17 0 21 -16 26
-30 9z"/>
<path d="M787 2286 c-7 -19 18 -40 39 -32 8 3 14 14 12 23 -4 22 -43 29 -51 9z"/>
<path d="M924 2239 c-10 -17 13 -36 27 -22 12 12 4 33 -11 33 -5 0 -12 -5 -16
-11z"/>
<path d="M961 2081 c-15 -10 -8 -41 9 -41 15 0 25 29 14 40 -5 5 -15 5 -23 1z"/>
<path d="M1047 1944 c-3 -4 -2 -16 4 -26 13 -24 35 -9 26 16 -7 17 -19 21 -30
10z"/>
<path d="M1231 2766 c-9 -11 -8 -15 5 -20 23 -9 24 -8 24 14 0 23 -13 26 -29
6z"/>
<path d="M490 2739 c0 -11 5 -17 10 -14 6 3 10 13 10 21 0 8 -4 14 -10 14 -5
0 -10 -9 -10 -21z"/>
<path d="M2133 2693 c-21 -7 -15 -33 7 -33 11 0 20 6 20 14 0 18 -11 25 -27
19z"/>
<path d="M386 2615 c-3 -9 0 -15 9 -15 16 0 20 16 6 24 -5 3 -11 -1 -15 -9z"/>
<path d="M2207 2485 c-4 -8 -2 -17 4 -21 12 -7 41 15 33 27 -8 14 -31 11 -37
-6z"/>
<path d="M295 2449 c-4 -6 -5 -12 -2 -15 7 -7 37 7 37 17 0 13 -27 11 -35 -2z"/>
<path d="M250 2265 c0 -8 5 -15 10 -15 6 0 10 7 10 15 0 8 -4 15 -10 15 -5 0
-10 -7 -10 -15z"/>
<path d="M2200 2211 c0 -28 15 -33 34 -12 18 20 12 31 -16 31 -11 0 -18 -7
-18 -19z"/>
<path d="M260 2079 c0 -11 5 -17 10 -14 6 3 10 13 10 21 0 8 -4 14 -10 14 -5
0 -10 -9 -10 -21z"/>
<path d="M2100 1965 c-10 -12 -10 -19 -2 -27 15 -15 48 14 38 31 -10 15 -21
14 -36 -4z"/>
<path d="M307 1933 c-12 -11 -8 -23 8 -23 8 0 15 7 15 15 0 16 -12 20 -23 8z"/>
<path d="M490 1791 c-15 -29 -13 -33 13 -25 29 9 29 8 21 28 -8 21 -21 20 -34
-3z"/>
<path d="M1233 1785 c-3 -9 -3 -18 0 -21 9 -9 27 6 27 22 0 19 -19 18 -27 -1z"/>
<path d="M1914 1759 c-3 -6 -1 -16 4 -21 13 -13 45 8 36 23 -7 12 -31 11 -40
-2z"/>
<path d="M1288 1754 c-7 -7 2 -44 11 -44 14 0 29 23 24 36 -5 14 -25 19 -35 8z"/>
<path d="M656 1718 c-3 -13 -2 -26 3 -31 12 -12 32 18 25 37 -9 23 -21 20 -28
-6z"/>
<path d="M1086 1683 c-12 -12 -6 -33 9 -33 8 0 15 6 15 14 0 17 -14 28 -24 19z"/>
<path d="M1540 1660 c0 -11 4 -20 9 -20 13 0 32 26 24 33 -13 14 -33 6 -33
-13z"/>
<path d="M1713 1645 c-8 -21 -2 -24 25 -14 13 5 20 13 17 19 -9 15 -35 12 -42
-5z"/>
<path d="M906 1643 c-12 -12 -6 -33 9 -33 8 0 15 6 15 14 0 17 -14 28 -24 19z"/>
<path d="M1545 1409 c-82 -4 -287 -15 -455 -24 -410 -21 -464 -25 -452 -37 7
-7 106 -5 294 6 435 25 452 25 628 31 207 7 290 14 290 26 0 10 -86 10 -305
-2z"/>
<path d="M1385 1313 c-278 -9 -619 -24 -672 -30 -109 -10 -71 -25 50 -19 254
14 310 16 482 21 167 6 451 13 538 14 20 1 37 6 37 11 0 9 -211 11 -435 3z"/>
<path d="M1717 945 c-1 -2 -128 -5 -282 -9 -321 -8 -855 -33 -863 -41 -16 -16
32 -17 265 -6 142 6 308 14 368 16 246 12 582 25 619 25 66 0 30 14 -39 15
-36 1 -66 1 -68 0z"/>
<path d="M1395 809 c-695 -20 -815 -26 -815 -41 0 -6 31 -7 78 -4 166 12 858
31 1120 31 77 0 102 3 102 13 0 14 -20 14 -485 1z"/>
</g>
</svg>
