<svg xmlns="http://www.w3.org/2000/svg" xmlns:xlink="http://www.w3.org/1999/xlink" viewBox="0 0 281 137"><defs><symbol id="a" overflow="visible"><path d="M2.406-6.594c-.094-.218-.125-.218-.36-.218H.376v.312h.234c.766 0 .782.11.782.469v4.984c0 .266 0 .734-1.016.734V0c.344-.016.828-.031 1.156-.031.328 0 .828.015 1.172.031v-.313c-1.031 0-1.031-.468-1.031-.734v-5.375h.016L4.094-.219c.047.125.093.219.187.219.11 0 .14-.078.188-.188L6.922-6.5v5.719c0 .36-.016.469-.781.469h-.235V0c.36-.031 1.047-.031 1.438-.031.375 0 1.047 0 1.422.031v-.313h-.25c-.766 0-.782-.109-.782-.468v-5.25c0-.36.016-.469.782-.469h.25v-.313H7.078c-.266 0-.266.016-.328.188L4.562-1z"/></symbol><symbol id="b" overflow="visible"><path d="M1.11-2.516C1.171-4 2.015-4.25 2.36-4.25c1.015 0 1.124 1.344 1.124 1.734zm0 .22h2.78c.22 0 .25 0 .25-.22 0-.984-.546-1.953-1.78-1.953C1.202-4.469.28-3.437.28-2.187.281-.86 1.328.108 2.47.108 3.688.11 4.14-1 4.14-1.187c0-.094-.079-.125-.141-.125-.078 0-.11.062-.125.14C3.531-.14 2.625-.14 2.531-.14c-.5 0-.89-.296-1.125-.671-.297-.47-.297-1.125-.297-1.485z"/></symbol><symbol id="c" overflow="visible"><path d="M1.719-3.984h1.437v-.313H1.72v-1.828h-.25c0 .813-.297 1.875-1.282 1.922v.219h.844v2.75c0 1.218.938 1.343 1.297 1.343.703 0 .985-.703.985-1.343v-.563h-.25v.547c0 .734-.297 1.11-.672 1.11-.672 0-.672-.907-.672-1.079z"/></symbol><symbol id="d" overflow="visible"><path d="M3.313-.75c.046.39.312.813.78.813.22 0 .829-.141.829-.954v-.562h-.25v.562c0 .579-.25.641-.36.641-.328 0-.375-.453-.375-.5v-1.984c0-.422 0-.813-.359-1.188-.39-.39-.89-.547-1.36-.547-.827 0-1.515.469-1.515 1.125 0 .297.203.469.469.469a.435.435 0 0 0 .453-.453c0-.125-.047-.453-.516-.453.282-.36.766-.469 1.079-.469.5 0 1.062.39 1.062 1.281v.36c-.516.03-1.203.062-1.828.359-.75.344-1 .86-1 1.297 0 .812.969 1.062 1.594 1.062.656 0 1.109-.406 1.296-.859zM3.25-2.39v1c0 .937-.719 1.28-1.172 1.28-.484 0-.89-.343-.89-.843 0-.547.421-1.375 2.062-1.438z"/></symbol><symbol id="e" overflow="visible"><path d="M1.766-6.922l-1.438.11v.312c.703 0 .781.063.781.563V-.75c0 .438-.109.438-.78.438V0c.327-.016.859-.031 1.109-.031s.734.015 1.109.031v-.313c-.672 0-.781 0-.781-.437z"/></symbol><symbol id="f" overflow="visible"><path d="M3.484-3.875l-1.28-.297c-.626-.156-1-.687-1-1.266 0-.703.53-1.312 1.312-1.312 1.656 0 1.875 1.64 1.937 2.078.016.063.016.125.125.125.125 0 .125-.047.125-.234v-2c0-.172 0-.25-.11-.25-.062 0-.077.015-.14.14l-.36.563c-.296-.297-.702-.703-1.593-.703-1.11 0-1.938.875-1.938 1.937 0 .828.532 1.563 1.297 1.828.11.032.625.157 1.329.329.265.062.562.14.843.5.203.265.313.593.313.921 0 .704-.5 1.422-1.344 1.422-.281 0-1.047-.047-1.578-.531-.578-.547-.61-1.172-.61-1.531-.015-.11-.093-.11-.125-.11-.125 0-.125.079-.125.25v2c0 .172 0 .235.11.235.062 0 .078-.016.14-.125 0-.016.032-.047.36-.578.312.343.953.703 1.844.703 1.156 0 1.953-.969 1.953-2.078 0-.985-.657-1.813-1.485-2.016z"/></symbol><symbol id="g" overflow="visible"><path d="M1.094-3.422V-.75c0 .438-.11.438-.782.438V0c.36-.016.86-.031 1.141-.031.25 0 .766.015 1.11.031v-.313c-.672 0-.782 0-.782-.437v-1.844c0-1.031.719-1.594 1.344-1.594.64 0 .75.532.75 1.11V-.75c0 .438-.11.438-.781.438V0c.344-.016.86-.031 1.125-.031.25 0 .781.015 1.11.031v-.313c-.657 0-.766 0-.766-.437v-1.844c0-1.031.703-1.594 1.343-1.594.625 0 .735.532.735 1.11V-.75c0 .438-.11.438-.782.438V0c.344-.016.86-.031 1.125-.031.266 0 .782.015 1.125.031v-.313c-.515 0-.765 0-.78-.296v-1.907c0-.859 0-1.156-.313-1.515-.141-.172-.47-.375-1.047-.375-.828 0-1.282.593-1.438.984-.14-.875-.875-.984-1.328-.984-.734 0-1.203.422-1.484 1.047v-1.047l-1.407.11v.312c.704 0 .782.062.782.562z"/></symbol><symbol id="h" overflow="visible"><path d="M1.766-4.406l-1.391.11v.312c.64 0 .734.062.734.546V-.75c0 .438-.109.438-.78.438V0c.312-.016.859-.031 1.093-.031.36 0 .703.015 1.047.031v-.313c-.672 0-.703-.046-.703-.437zm.03-1.735a.514.514 0 0 0-.515-.53.537.537 0 0 0-.531.53c0 .266.219.532.531.532a.514.514 0 0 0 .516-.532z"/></symbol><symbol id="i" overflow="visible"><path d="M1.172-2.172c0-1.625.812-2.047 1.344-2.047.093 0 .718.016 1.062.375-.406.031-.469.328-.469.453 0 .266.188.454.454.454.265 0 .468-.157.468-.47 0-.671-.765-1.062-1.531-1.062C1.25-4.469.344-3.39.344-2.156c0 1.281.984 2.265 2.14 2.265 1.329 0 1.657-1.203 1.657-1.296 0-.094-.11-.094-.141-.094-.078 0-.11.031-.125.093C3.594-.265 2.937-.14 2.578-.14c-.531 0-1.406-.421-1.406-2.03z"/></symbol><symbol id="j" overflow="visible"><path d="M4.688-2.14c0-1.266-.985-2.329-2.188-2.329C1.25-4.469.281-3.375.281-2.14A2.22 2.22 0 0 0 2.484.11c1.204 0 2.204-.984 2.204-2.25zM2.5-.14c-.438 0-.875-.204-1.14-.672-.25-.438-.25-1.047-.25-1.407 0-.39 0-.922.234-1.36a1.347 1.347 0 0 1 1.14-.671c.438 0 .86.219 1.125.656.266.422.266 1 .266 1.375 0 .36 0 .906-.219 1.344-.234.453-.672.734-1.156.734z"/></symbol><symbol id="k" overflow="visible"><path d="M1.094-3.422V-.75c0 .438-.11.438-.782.438V0c.36-.016.86-.031 1.141-.031.25 0 .766.015 1.11.031v-.313c-.672 0-.782 0-.782-.437v-1.844c0-1.031.719-1.594 1.344-1.594.64 0 .75.532.75 1.11V-.75c0 .438-.11.438-.781.438V0c.344-.016.86-.031 1.125-.031.25 0 .781.015 1.11.031v-.313c-.516 0-.766 0-.766-.296v-1.907c0-.859 0-1.156-.313-1.515-.14-.172-.469-.375-1.047-.375-.734 0-1.203.422-1.484 1.047v-1.047l-1.407.11v.312c.704 0 .782.062.782.562z"/></symbol><symbol id="l" overflow="visible"><path d="M3.781-.547V.11L5.25 0v-.313c-.688 0-.781-.062-.781-.562v-6.047l-1.422.11v.312c.687 0 .765.063.765.563v2.156a1.582 1.582 0 0 0-1.25-.625c-1.171 0-2.218.984-2.218 2.265 0 1.266.969 2.25 2.11 2.25.64 0 1.077-.343 1.327-.656zm0-2.672v2.047c0 .172 0 .188-.11.36-.296.484-.733.703-1.171.703-.453 0-.813-.266-1.047-.641-.25-.406-.281-.969-.281-1.39 0-.36.016-.954.297-1.407.218-.312.593-.64 1.14-.64.344 0 .766.156 1.063.593.11.172.11.188.11.375z"/></symbol><symbol id="m" overflow="visible"><path d="M3.89-.781v.89L5.329 0v-.313c-.687 0-.766-.062-.766-.562v-3.531l-1.468.11v.312c.687 0 .781.062.781.562v1.766c0 .875-.484 1.547-1.219 1.547-.828 0-.875-.47-.875-.985v-3.312l-1.468.11v.312c.78 0 .78.03.78.906v1.5c0 .781 0 1.687 1.516 1.687.563 0 1-.28 1.282-.89z"/></symbol><symbol id="n" overflow="visible"><path d="M1.672-3.313v-1.093l-1.39.11v.312c.702 0 .78.062.78.562V-.75c0 .438-.109.438-.78.438V0c.39-.016.859-.031 1.14-.031.39 0 .86 0 1.266.031v-.313h-.22c-.734 0-.75-.109-.75-.468v-1.531c0-.985.423-1.876 1.173-1.876.062 0 .093 0 .109.016-.031 0-.234.125-.234.39 0 .266.218.423.437.423a.421.421 0 0 0 .422-.438c0-.312-.313-.61-.734-.61-.735 0-1.094.673-1.22 1.095z"/></symbol><symbol id="o" overflow="visible"><path d="M2.25-6.031c0-.36.016-.469.813-.469h.25v-.313c-.344.032-1.126.032-1.516.032-.375 0-1.172 0-1.516-.032v.313h.25c.797 0 .828.11.828.469v5.25c0 .36-.03.469-.828.469h-.25V0c.344-.031 1.14-.031 1.516-.031.39 0 1.172 0 1.516.031v-.313h-.25c-.797 0-.813-.109-.813-.468z"/></symbol><symbol id="p" overflow="visible"><path d="M2.078-1.938c.219.047 1.031.204 1.031.922 0 .5-.343.907-1.125.907-.843 0-1.203-.563-1.39-1.422-.031-.125-.031-.157-.14-.157-.126 0-.126.063-.126.235v1.328c0 .172 0 .234.11.234C.483.11.5.094.688-.094.703-.109.703-.125.89-.312c.437.406.89.421 1.093.421 1.141 0 1.61-.671 1.61-1.39 0-.516-.297-.828-.422-.938-.328-.328-.719-.406-1.14-.484-.563-.11-1.22-.235-1.22-.813 0-.359.25-.765 1.11-.765 1.094 0 1.156.906 1.172 1.203 0 .094.094.094.11.094.14 0 .14-.047.14-.235v-1.015c0-.157 0-.235-.11-.235-.046 0-.078 0-.203.125-.031.032-.125.125-.172.157-.375-.282-.78-.282-.937-.282-1.219 0-1.594.672-1.594 1.235 0 .343.156.625.422.843.328.25.61.313 1.328.454z"/></symbol><symbol id="t" overflow="visible"><path d="M2.75-1.86v-.577H.11v.578z"/></symbol><symbol id="u" overflow="visible"><path d="M4.14-3.344c.25-.64.766-.64.923-.64v-.313c-.235.016-.516.031-.75.031-.172 0-.641-.015-.86-.03v.312c.313 0 .469.171.469.421 0 .11-.016.126-.063.25L2.844-.874 1.75-3.547c-.047-.11-.063-.14-.063-.187 0-.25.36-.25.563-.25v-.313c-.266.016-.922.031-1.094.031-.265 0-.672-.015-.968-.03v.312c.484 0 .671 0 .812.343L2.5 0a6.764 6.764 0 0 0-.25.594c-.219.547-.5 1.234-1.14 1.234-.048 0-.282 0-.47-.187.313-.032.391-.25.391-.422C1.031.969.844.812.61.812c-.203 0-.421.125-.421.422 0 .454.421.813.921.813.625 0 1.032-.578 1.266-1.14z"/></symbol><symbol id="v" overflow="visible"><path d="M1.719-3.75v-.656l-1.438.11v.312c.703 0 .781.062.781.5v4.656c0 .453-.109.453-.78.453v.313c.343-.016.859-.032 1.109-.032.28 0 .78.016 1.125.032v-.313c-.657 0-.766 0-.766-.453V-.594c.047.172.469.703 1.219.703 1.187 0 2.219-.984 2.219-2.265 0-1.266-.954-2.25-2.079-2.25-.78 0-1.203.437-1.39.656zm.031 2.61v-2.22c.281-.515.766-.796 1.281-.796.735 0 1.328.875 1.328 2C4.36-.953 3.672-.11 2.938-.11c-.407 0-.782-.204-1.047-.61-.141-.203-.141-.219-.141-.422z"/></symbol><symbol id="x" overflow="visible"><path d="M1.906-.531a.534.534 0 0 0-.515-.531.537.537 0 0 0-.532.53.524.524 0 1 0 1.047 0z"/></symbol><symbol id="q" overflow="visible"><path d="M7.063-2.328c.015-.047.046-.11.046-.14 0 0 0-.11-.125-.11-.093 0-.109.062-.125.125-.656 1.469-1.015 2.14-2.718 2.14H2.469c-.11-.015-.14-.03-.14-.109 0-.031 0-.047.046-.219l.688-2.734h.984c.844 0 .844.219.844.469 0 .062 0 .187-.063.484-.016.047-.031.078-.031.11 0 .046.031.109.125.109.078 0 .11-.047.156-.203l.563-2.328c0-.063-.047-.11-.125-.11-.079 0-.11.063-.125.172-.22.766-.391 1-1.313 1h-.937l.593-2.406c.094-.36.11-.39.547-.39h1.407c1.203 0 1.515.28 1.515 1.109 0 .234 0 .25-.047.53 0 .048-.015.126-.015.173 0 .047.03.125.125.125.109 0 .125-.063.14-.25l.203-1.735c.032-.265-.015-.265-.265-.265H2.297c-.188 0-.297 0-.297.203 0 .11.094.11.281.11.375 0 .656 0 .656.171 0 .047 0 .063-.062.25L1.562-.78c-.093.39-.109.469-.906.469-.172 0-.281 0-.281.187C.375 0 .469 0 .656 0h5.172c.234 0 .25-.016.313-.172z"/></symbol><symbol id="s" overflow="visible"><path d="M.453 1.219c-.078.343-.11.406-.547.406-.11 0-.218 0-.218.188 0 .078.046.125.124.125.266 0 .563-.032.829-.032.343 0 .671.032 1 .032.046 0 .171 0 .171-.204 0-.109-.093-.109-.234-.109-.5 0-.5-.063-.5-.156 0-.125.422-1.75.484-2 .125.297.407.64.922.64 1.157 0 2.407-1.453 2.407-2.921 0-.938-.579-1.594-1.329-1.594-.5 0-.984.36-1.312.75-.094-.547-.531-.75-.89-.75-.47 0-.657.39-.735.562-.188.344-.313.938-.313.969 0 .11.094.11.11.11.11 0 .11-.016.172-.235.172-.703.375-1.188.734-1.188.172 0 .313.079.313.454 0 .234-.032.343-.079.515zm1.75-4.328c.063-.266.344-.547.516-.704.36-.296.64-.374.812-.374.39 0 .64.343.64.937 0 .594-.327 1.734-.515 2.11-.344.702-.812 1.03-1.187 1.03-.656 0-.781-.828-.781-.89 0-.016 0-.031.03-.156z"/></symbol><symbol id="w" overflow="visible"><path d="M.875-.594c-.031.156-.094.39-.094.438 0 .172.14.265.297.265a.414.414 0 0 0 .375-.28c0-.016.125-.485.188-.735l.218-.89c.047-.235.11-.454.172-.673.031-.172.11-.469.125-.5.14-.312.672-1.219 1.625-1.219.453 0 .531.375.531.704 0 .609-.484 1.89-.64 2.312-.094.234-.11.36-.11.469 0 .469.36.812.829.812.937 0 1.296-1.453 1.296-1.53 0-.11-.078-.11-.109-.11-.11 0-.11.031-.156.187-.203.672-.531 1.235-1.016 1.235-.172 0-.234-.094-.234-.329 0-.25.078-.484.172-.703.187-.53.61-1.625.61-2.203 0-.656-.423-1.062-1.141-1.062-.907 0-1.391.64-1.563.875-.047-.563-.453-.875-.922-.875-.453 0-.64.39-.734.562-.172.344-.297.938-.297.969 0 .11.094.11.11.11.109 0 .109-.016.171-.235.172-.703.375-1.188.735-1.188.187 0 .296.125.296.454 0 .218-.03.328-.156.843z"/></symbol><symbol id="r" overflow="visible"><path d="M4.547-4.734H.39v.25h.171c.532 0 .547.078.547.312v3.61c0 .234-.015.312-.546.312H.39V0s.796-.031 1.062-.031c.281 0 1.11.031 1.219.031v-.25h-.25c-.656 0-.656-.094-.656-.328V-2.25h.687c.688 0 .781.219.781.828h.25v-1.89h-.25c0 .609-.093.812-.78.812h-.688v-1.703c0-.219.015-.281.343-.281h.97c1.124 0 1.312.375 1.437 1.359h.234z"/></symbol><linearGradient id="y" x2="0" y1="64" y2="96" gradientUnits="userSpaceOnUse"><stop offset="0" stop-color="#404040"/><stop offset="1" stop-color="#fff"/></linearGradient><linearGradient id="z" x2="0" y1="64" y2="96" gradientTransform="translate(16)" gradientUnits="userSpaceOnUse"><stop offset="0" stop-color="#404040"/><stop offset="1" stop-color="#fff"/></linearGradient><clipPath id="A"><path d="M80 .5h25V5H80z"/></clipPath><clipPath id="B"><path d="M79 .5h26V5H79z"/></clipPath><clipPath id="C"><path d="M80 108h25v4.5H80z"/></clipPath><clipPath id="D"><path d="M79 108h26v4.5H79z"/></clipPath><clipPath id="E"><path d="M32 .5h25V17H32z"/></clipPath><clipPath id="F"><path d="M31 .5h26V17H31z"/></clipPath><clipPath id="G"><path d="M32 96h25v16.5H32z"/></clipPath><clipPath id="H"><path d="M31 96h26v16.5H31z"/></clipPath><linearGradient id="I" x2="0" y1="64" y2="96" gradientUnits="userSpaceOnUse"><stop offset="0" stop-color="#404040"/><stop offset="1" stop-color="#fff"/></linearGradient><clipPath id="J"><path d="M124 .5h25V43h-25z"/></clipPath><linearGradient id="K" x2="0" y1="64" y2="96" gradientTransform="matrix(1 0 0 -1 .2 136.5)" gradientUnits="userSpaceOnUse"><stop offset="0" stop-color="#404040"/><stop offset="1" stop-color="#fff"/></linearGradient><clipPath id="L"><path d="M123 .5h26V43h-26z"/></clipPath><clipPath id="M"><path d="M160 64h25v48.5h-25z"/></clipPath><linearGradient id="N" x2="0" y1="64" y2="96" gradientTransform="matrix(1 0 0 -1 .2 136.5)" gradientUnits="userSpaceOnUse"><stop offset="0" stop-color="#404040"/><stop offset="1" stop-color="#fff"/></linearGradient><clipPath id="O"><path d="M159 64h26v48.5h-26z"/></clipPath><clipPath id="P"><path d="M160 .5h25V49h-25z"/></clipPath><linearGradient id="Q" x2="0" y1="64" y2="96" gradientTransform="matrix(1 0 0 -1 .2 136.5)" gradientUnits="userSpaceOnUse"><stop offset="0" stop-color="#404040"/><stop offset="1" stop-color="#fff"/></linearGradient><clipPath id="R"><path d="M159 .5h26V49h-26z"/></clipPath><clipPath id="S"><path d="M196 70h25v42.5h-25z"/></clipPath><linearGradient id="T" x2="0" y1="64" y2="96" gradientTransform="matrix(1 0 0 -1 .2 136.5)" gradientUnits="userSpaceOnUse"><stop offset="0" stop-color="#404040"/><stop offset="1" stop-color="#fff"/></linearGradient><clipPath id="U"><path d="M195 70h26v42.5h-26z"/></clipPath><linearGradient id="V" x2="0" y1="64" y2="96" gradientUnits="userSpaceOnUse"><stop offset="0" stop-color="#404040"/><stop offset="1" stop-color="#fff"/></linearGradient><clipPath id="W"><path d="M244 .5h25V41h-25z"/></clipPath><clipPath id="X"><path d="M243 .5h26V41h-26z"/></clipPath><clipPath id="Y"><path d="M244 72h25v40.5h-25z"/></clipPath><clipPath id="Z"><path d="M243 72h26v40.5h-26z"/></clipPath></defs><path fill="none" stroke="#000" stroke-dasharray="4" stroke-linejoin="round" stroke-miterlimit="10" d="M16.2 56.5h264"/><use x="31.387" y="133.126" xlink:href="#a"/><use x="40.512" y="133.126" xlink:href="#b"/><use x="44.936" y="133.126" xlink:href="#c"/><use x="48.801" y="133.126" xlink:href="#d"/><use x="53.782" y="133.126" xlink:href="#e"/><use x="69.285" y="133.126" xlink:href="#f"/><use x="74.815" y="133.126" xlink:href="#b"/><use x="79.238" y="133.126" xlink:href="#g"/><use x="87.537" y="133.126" xlink:href="#h"/><use x="90.297" y="133.126" xlink:href="#g"/><use x="98.595" y="133.126" xlink:href="#b"/><use x="103.019" y="133.126" xlink:href="#c"/><use x="106.884" y="133.126" xlink:href="#d"/><use x="111.866" y="133.126" xlink:href="#e"/><use x="139.863" y="133.126" xlink:href="#f"/><use x="145.392" y="133.126" xlink:href="#b"/><use x="149.815" y="133.126" xlink:href="#g"/><use x="158.114" y="133.126" xlink:href="#h"/><use x="160.874" y="133.126" xlink:href="#i"/><use x="165.297" y="133.126" xlink:href="#j"/><use x="170.278" y="133.126" xlink:href="#k"/><use x="175.808" y="133.126" xlink:href="#l"/><use x="181.337" y="133.126" xlink:href="#m"/><use x="186.866" y="133.126" xlink:href="#i"/><use x="191.289" y="133.126" xlink:href="#c"/><use x="195.155" y="133.126" xlink:href="#j"/><use x="200.136" y="133.126" xlink:href="#n"/><use x="236.427" y="133.126" xlink:href="#o"/><use x="240.023" y="133.126" xlink:href="#k"/><use x="245.552" y="133.126" xlink:href="#p"/><use x="249.478" y="133.126" xlink:href="#m"/><use x="255.007" y="133.126" xlink:href="#e"/><use x="257.766" y="133.126" xlink:href="#d"/><use x="262.748" y="133.126" xlink:href="#c"/><use x="266.613" y="133.126" xlink:href="#j"/><use x="271.594" y="133.126" xlink:href="#n"/><use x="2.2" y="58.96" xlink:href="#q"/><use x="9.554" y="60.454" xlink:href="#r"/><use x="122.264" y="119.254" xlink:href="#s"/><use x="127.276" y="119.254" xlink:href="#t"/><use x="130.594" y="119.254" xlink:href="#c"/><use x="134.18" y="119.254" xlink:href="#u"/><use x="139.43" y="119.254" xlink:href="#v"/><use x="145.239" y="119.254" xlink:href="#b"/><path fill="none" stroke="#000" stroke-linejoin="round" stroke-miterlimit="10" d="M20.2 12.5v100"/><path fill-rule="evenodd" stroke="#000" stroke-linejoin="round" stroke-miterlimit="10" d="M20.2 12.5l-2.333 7h4.664z"/><g><use x="16.2" y="10.964" xlink:href="#q"/></g><g><use x="193.78" y="119.254" xlink:href="#w"/></g><g><use x="199.76" y="119.254" xlink:href="#t"/><use x="203.078" y="119.254" xlink:href="#c"/><use x="206.664" y="119.254" xlink:href="#u"/><use x="211.914" y="119.254" xlink:href="#v"/><use x="217.723" y="119.254" xlink:href="#b"/></g><g><use x="158.542" y="119.78" xlink:href="#h"/><use x="161.302" y="119.78" xlink:href="#k"/><use x="166.552" y="119.78" xlink:href="#c"/><use x="170.417" y="119.78" xlink:href="#n"/><use x="174.313" y="119.78" xlink:href="#h"/><use x="177.072" y="119.78" xlink:href="#k"/><use x="182.602" y="119.78" xlink:href="#x"/></g><path fill="url(#y)" fill-rule="evenodd" stroke="#000" stroke-linejoin="round" stroke-miterlimit="10" d="M32 56c13.253 0 24 10.746 24 24s-10.747 24-24 24z" transform="matrix(1 0 0 -1 .2 136.5)"/><path fill="none" stroke="#000" stroke-linejoin="round" stroke-miterlimit="10" d="M32.2 80.5c13.253 0 24-10.746 24-24s-10.747-24-24-24z"/><path fill="url(#z)" fill-rule="evenodd" stroke="#000" stroke-linejoin="round" stroke-miterlimit="10" d="M100 100c0 11.047-8.954 20-20 20V40c11.046 0 20 8.953 20 20v1.332c0 1.336 0 4-2.665 6.668-2.668 2.668-8 5.332-10.668 8-2.668 2.668-2.668 5.332 0 8s8 5.332 10.668 8C100 94.668 100 97.332 100 98.668V100z" transform="matrix(1 0 0 -1 .2 136.5)"/><path fill="none" stroke="#000" stroke-linejoin="round" stroke-miterlimit="10" d="M100.2 36.5c0-11.047-8.954-20-20-20v80c11.046 0 20-8.953 20-20v-1.332c0-1.336 0-4-2.665-6.668-2.668-2.668-8-5.332-10.668-8-2.668-2.668-2.668-5.332 0-8s8-5.332 10.668-8c2.664-2.668 2.664-5.332 2.664-6.668V36.5z"/><g clip-path="url(#A)"><path fill="#fff" fill-rule="evenodd" d="M80.2 4.5c13.253 0 24-10.746 24-24s-10.747-24-24-24z"/></g><g clip-path="url(#B)"><path fill="none" stroke="#000" stroke-linejoin="round" stroke-miterlimit="10" d="M80.2 4.5c13.253 0 24-10.746 24-24s-10.747-24-24-24z"/></g><g clip-path="url(#C)"><path fill="#404040" fill-rule="evenodd" d="M80.2 156.5c13.253 0 24-10.746 24-24s-10.747-24-24-24z"/></g><g clip-path="url(#D)"><path fill="none" stroke="#000" stroke-linejoin="round" stroke-miterlimit="10" d="M80.2 156.5c13.253 0 24-10.746 24-24s-10.747-24-24-24z"/></g><g clip-path="url(#E)"><path fill="#fff" fill-rule="evenodd" d="M32.2 16.5c13.253 0 24-10.746 24-24s-10.747-24-24-24z"/></g><g clip-path="url(#F)"><path fill="none" stroke="#000" stroke-linejoin="round" stroke-miterlimit="10" d="M32.2 16.5c13.253 0 24-10.746 24-24s-10.747-24-24-24z"/></g><g clip-path="url(#G)"><path fill="#404040" fill-rule="evenodd" d="M32.2 144.5c13.253 0 24-10.746 24-24s-10.747-24-24-24z"/></g><g clip-path="url(#H)"><path fill="none" stroke="#000" stroke-linejoin="round" stroke-miterlimit="10" d="M32.2 144.5c13.253 0 24-10.746 24-24s-10.747-24-24-24z"/></g><path fill="url(#I)" fill-rule="evenodd" stroke="#000" stroke-linejoin="round" stroke-miterlimit="10" d="M124 30c13.253 0 24 10.746 24 24s-10.747 24-24 24z" transform="matrix(1 0 0 -1 .2 136.5)"/><path fill="none" stroke="#000" stroke-linejoin="round" stroke-miterlimit="10" d="M124.2 106.5c13.253 0 24-10.746 24-24s-10.747-24-24-24z"/><g clip-path="url(#J)"><path fill="url(#K)" fill-rule="evenodd" d="M124.2 42.5c13.253 0 24-10.746 24-24s-10.747-24-24-24z"/></g><g fill="none" stroke="#000" stroke-linejoin="round" stroke-miterlimit="10" clip-path="url(#L)"><path d="M124.2 42.5c13.253 0 24-10.746 24-24s-10.747-24-24-24z"/><path d="M124.2 42.5c13.253 0 24-10.746 24-24s-10.747-24-24-24z"/></g><g clip-path="url(#M)"><path fill="url(#N)" fill-rule="evenodd" d="M160.2 112.5c13.253 0 24-10.746 24-24s-10.747-24-24-24z"/></g><g fill="none" stroke="#000" stroke-linejoin="round" stroke-miterlimit="10" clip-path="url(#O)"><path d="M160.2 112.5c13.253 0 24-10.746 24-24s-10.747-24-24-24z"/><path d="M160.2 112.5c13.253 0 24-10.746 24-24s-10.747-24-24-24z"/></g><g clip-path="url(#P)"><path fill="url(#Q)" fill-rule="evenodd" d="M160.2 48.5c13.253 0 24-10.746 24-24s-10.747-24-24-24z"/></g><g fill="none" stroke="#000" stroke-linejoin="round" stroke-miterlimit="10" clip-path="url(#R)"><path d="M160.2 48.5c13.253 0 24-10.746 24-24s-10.747-24-24-24z"/><path d="M160.2 48.5c13.253 0 24-10.746 24-24s-10.747-24-24-24z"/></g><g clip-path="url(#S)"><path fill="url(#T)" fill-rule="evenodd" d="M196.2 118.5c13.253 0 24-10.746 24-24s-10.747-24-24-24z"/></g><g fill="none" stroke="#000" stroke-linejoin="round" stroke-miterlimit="10" clip-path="url(#U)"><path d="M196.2 118.5c13.253 0 24-10.746 24-24s-10.747-24-24-24z"/><path d="M196.2 118.5c13.253 0 24-10.746 24-24s-10.747-24-24-24z"/></g><path fill="url(#V)" fill-rule="evenodd" stroke="#000" stroke-linejoin="round" stroke-miterlimit="10" d="M196 82c13.253 0 24 10.746 24 24s-10.747 24-24 24z" transform="matrix(1 0 0 -1 .2 136.5)"/><path fill="none" stroke="#000" stroke-linejoin="round" stroke-miterlimit="10" d="M196.2 54.5c13.253 0 24-10.746 24-24s-10.747-24-24-24z"/><g clip-path="url(#W)"><path fill="#fff" fill-rule="evenodd" d="M244.2 40.5c13.253 0 24-10.746 24-24s-10.747-24-24-24z"/></g><g clip-path="url(#X)"><path fill="none" stroke="#000" stroke-linejoin="round" stroke-miterlimit="10" d="M244.2 40.5c13.253 0 24-10.746 24-24s-10.747-24-24-24z"/></g><g clip-path="url(#Y)"><path fill="#404040" fill-rule="evenodd" d="M244.2 120.5c13.253 0 24-10.746 24-24s-10.747-24-24-24z"/></g><g clip-path="url(#Z)"><path fill="none" stroke="#000" stroke-linejoin="round" stroke-miterlimit="10" d="M244.2 120.5c13.253 0 24-10.746 24-24s-10.747-24-24-24z"/></g></svg>