<?xml version="1.0" standalone="no"?>
<!DOCTYPE svg PUBLIC "-//W3C//DTD SVG 20010904//EN"
 "http://www.w3.org/TR/2001/REC-SVG-20010904/DTD/svg10.dtd">
<svg version="1.0" xmlns="http://www.w3.org/2000/svg"
 width="192.000000pt" height="256.000000pt" viewBox="0 0 192.000000 256.000000"
 preserveAspectRatio="xMidYMid meet">

<g transform="translate(0.000000,256.000000) scale(0.100000,-0.100000)"
fill="#000000" stroke="none">
<path d="M769 1900 c-167 -28 -382 -175 -442 -301 -73 -156 -98 -298 -73 -427
51 -267 218 -463 466 -548 81 -28 280 -26 370 3 36 12 84 25 107 28 24 4 46
11 49 17 4 6 -2 8 -17 4 -22 -7 -23 -6 -4 5 97 58 205 173 250 268 59 121 70
169 70 296 0 143 -21 221 -87 331 -54 89 -77 116 -158 183 -138 115 -350 171
-531 141z m101 -306 c0 -177 -4 -303 -10 -314 -13 -25 -2 -50 22 -50 18 0 19
4 13 33 -5 17 -10 166 -12 330 l-4 297 38 0 c61 0 164 -26 235 -58 267 -121
414 -393 368 -679 -17 -105 -68 -218 -135 -302 -71 -88 -195 -171 -302 -199
-87 -24 -222 -29 -313 -12 -68 13 -185 68 -254 120 -139 105 -237 289 -253
476 -7 91 16 209 63 311 49 107 155 211 276 271 48 24 98 46 110 49 24 6 111
19 141 22 16 1 17 -19 17 -295z"/>
<path d="M1042 1558 c-16 -16 -15 -55 1 -61 36 -12 65 20 47 54 -12 22 -30 25
-48 7z m34 -19 c8 -14 -11 -33 -25 -25 -11 7 -4 36 9 36 5 0 12 -5 16 -11z"/>
<path d="M563 1533 c-18 -7 -17 -63 1 -63 18 0 39 -27 31 -40 -4 -7 -12 -7
-26 1 -27 14 -34 6 -14 -15 24 -24 44 -20 56 11 9 24 7 31 -15 50 -24 20 -36
46 -18 41 4 -2 8 1 10 7 4 11 -8 15 -25 8z"/>
<path d="M645 1519 c-4 -6 0 -9 11 -7 28 4 30 -37 5 -59 -26 -21 -27 -43 -3
-43 9 0 27 -3 40 -6 12 -4 22 -2 22 4 0 5 -11 13 -25 16 -24 6 -25 7 -9 31 21
32 12 75 -16 75 -10 0 -22 -5 -25 -11z"/>
<path d="M376 1504 c-20 -19 -21 -58 -2 -73 21 -18 62 2 68 34 9 46 -34 71
-66 39z m47 -16 c6 -18 -11 -48 -28 -48 -18 0 -25 21 -13 43 10 20 34 23 41 5z"/>
<path d="M962 1493 c-17 -32 -24 -83 -13 -83 6 0 11 6 11 14 0 7 12 16 26 19
20 4 27 -1 35 -21 14 -36 23 -19 10 19 -12 34 -38 69 -52 69 -5 0 -12 -8 -17
-17z m28 -23 c0 -5 -4 -10 -10 -10 -5 0 -10 5 -10 10 0 6 5 10 10 10 6 0 10
-4 10 -10z"/>
<path d="M480 1475 c0 -8 7 -15 15 -15 8 0 15 7 15 15 0 8 -7 15 -15 15 -8 0
-15 -7 -15 -15z"/>
</g>
</svg>
