<?xml version="1.0" encoding="UTF-8"?>
<svg width="640" height="480" enable-background="new 0 0 1024 600" version="1.1" viewBox="0 0 639.99999 480" xml:space="preserve" xmlns="http://www.w3.org/2000/svg" xmlns:cc="http://creativecommons.org/ns#" xmlns:dc="http://purl.org/dc/elements/1.1/" xmlns:rdf="http://www.w3.org/1999/02/22-rdf-syntax-ns#"><metadata><rdf:RDF><cc:Work rdf:about=""><dc:format>image/svg+xml</dc:format><dc:type rdf:resource="http://purl.org/dc/dcmitype/StillImage"/><dc:title/></cc:Work></rdf:RDF></metadata><g transform="translate(-845.48 243.72)"><text x="856.4585" y="221.68475" fill="#000000" font-family="sans-serif" font-size="2.6676px" letter-spacing="0px" stroke-width="1px" word-spacing="0px" style="line-height:125%" xml:space="preserve"><tspan x="856.4585" y="221.68475" font-family="Haettenschweiler"/></text>
<g transform="matrix(42.696 0 0 42.752 -35144 -9870.3)"><path d="m850.5 225.91c-0.19586 0.0105-0.22878 0.0256-0.6875 0.28906-0.19664 0.11295-0.39039 0.22234-0.42969 0.24414s-0.13273 0.0754-0.20703 0.11914c-0.0743 0.0437-0.15886 0.0941-0.18946 0.11133-0.0506 0.0285-0.31814 0.18111-1.2324 0.70703-0.17479 0.10055-0.33903 0.19604-0.36523 0.21094s-0.187 0.10658-0.35742 0.20508-0.3369 0.19429-0.3711 0.21289c-0.10129 0.055-0.25159 0.21432-0.30859 0.32812-0.1052 0.20922-0.0977 0.0771-0.0977 2.3691 0 2.02 9.2e-4 2.1468 0.0449 2.2617 0.0746 0.19489 0.16917 0.31924 0.32032 0.42188 0.0509 0.0345 0.0956 0.0644 0.0996 0.0644s0.0859 0.0448 0.18359 0.10156c0.0978 0.0568 0.18059 0.10352 0.18359 0.10352s0.0519 0.0289 0.10742 0.0625c0.0555 0.0336 0.13258 0.0794 0.17188 0.10156 0.0906 0.0512 0.3746 0.2131 0.4375 0.25 0.0262 0.0154 0.11963 0.0689 0.20703 0.11914 0.0874 0.0502 0.17888 0.10374 0.20508 0.11914 0.0563 0.0331 0.44607 0.25635 0.54883 0.31445 0.0393 0.0222 0.11637 0.068 0.17187 0.10157 0.0555 0.0336 0.10442 0.0605 0.10742 0.0605s0.0643 0.0356 0.13672 0.0781c0.0724 0.0425 0.16383 0.0952 0.20313 0.11719 0.0393 0.022 0.22616 0.12733 0.41406 0.23632 0.40916 0.23729 0.44356 0.25412 0.60352 0.29102 0.11279 0.0262 0.14933 0.0279 0.26367 8e-3 0.0892-0.0157 0.25055-0.0698 0.28515-0.0957 0.0167-0.0125 0.16218-0.0973 0.30664-0.17774 0.0471-0.0262 0.2339-0.13338 0.41407-0.23828 0.18017-0.10489 0.35913-0.20837 0.39843-0.23047 0.0631-0.0355 0.62997-0.36069 0.75586-0.43359 0.0897-0.052 0.36485-0.21 0.43555-0.25 0.0389-0.022 0.10619-0.0617 0.15039-0.0879 0.0943-0.056 0.16537-0.0958 0.26367-0.15039 0.0393-0.0218 0.13274-0.0753 0.20703-0.11914 0.0743-0.0437 0.17456-0.10261 0.22266-0.12891s0.12382-0.0704 0.16992-0.0996c0.046-0.0292 0.0878-0.0527 0.0918-0.0527 0.0294 0 0.19212-0.12517 0.26172-0.20117 0.10029-0.10954 0.16376-0.24035 0.19726-0.40039 0.0365-0.17408 0.0384-4.1054 2e-3 -4.2812-0.0308-0.14897-0.10076-0.2896-0.19336-0.39258-0.099-0.11014-0.15122-0.14491-0.59375-0.39453-0.0393-0.0222-0.15684-0.0894-0.26172-0.15039-0.15958-0.0928-0.93798-0.54172-1.0977-0.63282-0.0262-0.0149-0.13341-0.0757-0.23828-0.13672-0.10487-0.061-0.22242-0.13044-0.26172-0.15234s-0.24337-0.13716-0.45312-0.25781c-0.20975-0.12064-0.49025-0.28122-0.62305-0.35742-0.29727-0.17061-0.38539-0.1992-0.60351-0.1875z" fill="none" stroke="#3c3c3c" stroke-linecap="round" stroke-linejoin="round" stroke-opacity=".39216" stroke-width=".8"/><path d="m850.5 225.91c-0.19586 0.0105-0.22878 0.0256-0.6875 0.28906-0.19664 0.11295-0.39039 0.22234-0.42969 0.24414s-0.13273 0.0754-0.20703 0.11914c-0.0743 0.0437-0.15886 0.0941-0.18946 0.11133-0.0506 0.0285-0.31814 0.18111-1.2324 0.70703-0.17479 0.10055-0.33903 0.19604-0.36523 0.21094s-0.187 0.10658-0.35742 0.20508-0.3369 0.19429-0.3711 0.21289c-0.10129 0.055-0.25159 0.21432-0.30859 0.32812-0.1052 0.20922-0.0977 0.0771-0.0977 2.3691 0 2.02 9.2e-4 2.1468 0.0449 2.2617 0.0746 0.19489 0.16917 0.31924 0.32032 0.42188 0.0509 0.0345 0.0956 0.0644 0.0996 0.0644s0.0859 0.0448 0.18359 0.10156c0.0978 0.0568 0.18059 0.10352 0.18359 0.10352s0.0519 0.0289 0.10742 0.0625c0.0555 0.0336 0.13258 0.0794 0.17188 0.10156 0.0906 0.0512 0.3746 0.2131 0.4375 0.25 0.0262 0.0154 0.11963 0.0689 0.20703 0.11914 0.0874 0.0502 0.17888 0.10374 0.20508 0.11914 0.0563 0.0331 0.44607 0.25635 0.54883 0.31445 0.0393 0.0222 0.11637 0.068 0.17187 0.10157 0.0555 0.0336 0.10442 0.0605 0.10742 0.0605s0.0643 0.0356 0.13672 0.0781c0.0724 0.0425 0.16383 0.0952 0.20313 0.11719 0.0393 0.022 0.22616 0.12733 0.41406 0.23632 0.40916 0.23729 0.44356 0.25412 0.60352 0.29102 0.11279 0.0262 0.14933 0.0279 0.26367 8e-3 0.0892-0.0157 0.25055-0.0698 0.28515-0.0957 0.0167-0.0125 0.16218-0.0973 0.30664-0.17774 0.0471-0.0262 0.2339-0.13338 0.41407-0.23828 0.18017-0.10489 0.35913-0.20837 0.39843-0.23047 0.0631-0.0355 0.62997-0.36069 0.75586-0.43359 0.0897-0.052 0.36485-0.21 0.43555-0.25 0.0389-0.022 0.10619-0.0617 0.15039-0.0879 0.0943-0.056 0.16537-0.0958 0.26367-0.15039 0.0393-0.0218 0.13274-0.0753 0.20703-0.11914 0.0743-0.0437 0.17456-0.10261 0.22266-0.12891s0.12382-0.0704 0.16992-0.0996c0.046-0.0292 0.0878-0.0527 0.0918-0.0527 0.0294 0 0.19212-0.12517 0.26172-0.20117 0.10029-0.10954 0.16376-0.24035 0.19726-0.40039 0.0365-0.17408 0.0384-4.1054 2e-3 -4.2812-0.0308-0.14897-0.10076-0.2896-0.19336-0.39258-0.099-0.11014-0.15122-0.14491-0.59375-0.39453-0.0393-0.0222-0.15684-0.0894-0.26172-0.15039-0.15958-0.0928-0.93798-0.54172-1.0977-0.63282-0.0262-0.0149-0.13341-0.0757-0.23828-0.13672-0.10487-0.061-0.22242-0.13044-0.26172-0.15234s-0.24337-0.13716-0.45312-0.25781c-0.20975-0.12064-0.49025-0.28122-0.62305-0.35742-0.29727-0.17061-0.38539-0.1992-0.60351-0.1875z" fill="none" stroke="#fff" stroke-linecap="round" stroke-linejoin="round" stroke-width=".5"/><path d="m850.5 225.9c-0.19586 0.0105-0.22878 0.0256-0.6875 0.28906-0.19664 0.11295-0.39039 0.22234-0.42969 0.24414s-0.13273 0.0754-0.20703 0.11914c-0.0743 0.0437-0.15886 0.0941-0.18946 0.11133-0.0506 0.0285-0.31814 0.18111-1.2324 0.70703-0.17479 0.10055-0.33903 0.19604-0.36523 0.21094s-0.187 0.10658-0.35742 0.20508-0.3369 0.19429-0.3711 0.21289c-0.10129 0.055-0.25159 0.21432-0.30859 0.32812-0.1052 0.20922-0.0977 0.0771-0.0977 2.3691 0 2.02 9.2e-4 2.1468 0.0449 2.2617 0.0746 0.19489 0.16917 0.31924 0.32032 0.42188 0.0509 0.0345 0.0956 0.0644 0.0996 0.0644s0.0859 0.0448 0.18359 0.10156c0.0978 0.0568 0.18059 0.10352 0.18359 0.10352s0.0519 0.0289 0.10742 0.0625c0.0555 0.0336 0.13258 0.0794 0.17188 0.10156 0.0906 0.0512 0.3746 0.2131 0.4375 0.25 0.0262 0.0154 0.11963 0.0689 0.20703 0.11914 0.0874 0.0502 0.17888 0.10374 0.20508 0.11914 0.0563 0.0331 0.44607 0.25635 0.54883 0.31445 0.0393 0.0222 0.11637 0.068 0.17187 0.10157 0.0555 0.0336 0.10442 0.0605 0.10742 0.0605s0.0643 0.0356 0.13672 0.0781c0.0724 0.0425 0.16383 0.0952 0.20313 0.11719 0.0393 0.022 0.22616 0.12733 0.41406 0.23632 0.40916 0.23729 0.44356 0.25412 0.60352 0.29102 0.11279 0.0262 0.14933 0.0279 0.26367 8e-3 0.0892-0.0157 0.25055-0.0698 0.28515-0.0957 0.0167-0.0125 0.16218-0.0973 0.30664-0.17774 0.0471-0.0262 0.2339-0.13338 0.41407-0.23828 0.18017-0.10489 0.35913-0.20837 0.39843-0.23047 0.0631-0.0355 0.62997-0.36069 0.75586-0.43359 0.0897-0.052 0.36485-0.21 0.43555-0.25 0.0389-0.022 0.10619-0.0617 0.15039-0.0879 0.0943-0.056 0.16537-0.0958 0.26367-0.15039 0.0393-0.0218 0.13274-0.0753 0.20703-0.11914 0.0743-0.0437 0.17456-0.10261 0.22266-0.12891s0.12382-0.0704 0.16992-0.0996c0.046-0.0292 0.0878-0.0527 0.0918-0.0527 0.0294 0 0.19212-0.12517 0.26172-0.20117 0.10029-0.10954 0.16376-0.24035 0.19726-0.40039 0.0365-0.17408 0.0384-4.1054 2e-3 -4.2812-0.0308-0.14897-0.10076-0.2896-0.19336-0.39258-0.099-0.11014-0.15122-0.14491-0.59375-0.39453-0.0393-0.0222-0.15684-0.0894-0.26172-0.15039-0.15958-0.0928-0.93798-0.54172-1.0977-0.63282-0.0262-0.0149-0.13341-0.0757-0.23828-0.13672-0.10487-0.061-0.22242-0.13044-0.26172-0.15234s-0.24337-0.13716-0.45312-0.25781c-0.20975-0.12064-0.49025-0.28122-0.62305-0.35742-0.29727-0.17061-0.38539-0.1992-0.60351-0.1875z" fill="#9b4f96" fill-rule="evenodd"/><path d="m846.4 233.17c0.10702 0.16437 0.15609 0.16189 0.61361 0.42743 0.19614 0.11382 0.38775 0.22691 0.42628 0.25005 0.0385 0.0231 0.13166 0.0772 0.20669 0.11972 0.075 0.0425 0.16092 0.0905 0.19114 0.10841 0.05 0.0296 0.31592 0.18497 1.2285 0.7138 0.17447 0.10109 0.33929 0.19558 0.36529 0.21082 0.026 0.0152 0.18581 0.10866 0.35632 0.207 0.17051 0.0983 0.33671 0.19462 0.36992 0.21494 0.0983 0.0602 0.31141 0.11071 0.43846 0.10318 0.23379-0.0135 0.11562 0.0461 2.1006-1.1 1.7494-1.01 1.8587-1.0742 1.9362-1.1697 0.13148-0.16205 0.19189-0.30613 0.2052-0.48835 4e-3 -0.0613 8e-3 -0.11499 6e-3 -0.11845-2e-3 -3e-3 -4e-3 -0.0968-4e-3 -0.20978 2.9e-4 -0.11309-6.4e-4 -0.20815-2e-3 -0.21075-1e-3 -3e-3 -9.2e-4 -0.0594 4.2e-4 -0.12428 1e-3 -0.0649 2e-3 -0.15452 2e-3 -0.19963-9.6e-4 -0.10406-3e-3 -0.43096-2e-3 -0.50389 2.3e-4 -0.0304-1.5e-4 -0.13805-3.4e-4 -0.23886-2.3e-4 -0.10079 4e-4 -0.20678 6.4e-4 -0.23717 5.1e-4 -0.0653-1e-3 -0.51449-2e-3 -0.63253-4.2e-4 -0.0451 7.1e-4 -0.13478 2e-3 -0.19963 1e-3 -0.0649 2.7e-4 -0.12073-1e-3 -0.12333-1e-3 -3e-3 -1e-3 -0.0735-7.2e-4 -0.15745 6.1e-4 -0.0839 5.3e-4 -0.18948-8e-5 -0.23451-6e-4 -0.045-3e-3 -0.25953-2e-3 -0.47675 9.2e-4 -0.47299-2e-3 -0.51119-0.0497-0.66817-0.0195-0.064-0.0498-0.0964-0.0727-0.13393l-8.333 4.8232c0.01 0.0164 0.01 0.0308 0.0212 0.0486z" fill="#68217a" fill-rule="evenodd"/><path d="m854.75 233.09c0.0888-0.17487 0.0922-0.21092 0.0934-0.73992 5e-4 -0.22677 3e-3 -0.44926 3e-3 -0.49419 7.7e-4 -0.0449 1e-3 -0.15265 3.4e-4 -0.23886-6.9e-4 -0.0862-2e-3 -0.18463-2e-3 -0.21975 6.1e-4 -0.0581 2e-3 -0.36607 4e-3 -1.4208 3.2e-4 -0.20165-2.6e-4 -0.39163-6e-5 -0.42177 1.9e-4 -0.0301 1e-3 -0.21523 1e-3 -0.41207-9e-5 -0.19684 1.9e-4 -0.38891 1e-3 -0.42783 3e-3 -0.10963-0.066-0.30047-0.1319-0.41068l-4.1674 2.4153 4.1662 2.4133c9e-3 -0.0167 0.0218-0.0238 0.0315-0.0426z" fill="#813787" fill-rule="evenodd"/><path d="m850.36 227.87v2e-3c-0.37745 0.0264-0.74751 0.12184-1.0703 0.28711-1.1218 0.57435-1.7358 1.7512-1.5566 2.9844 0.0557 0.38337 0.20966 0.79191 0.41796 1.1094 0.0409 0.0623 0.078 0.11709 0.082 0.12109s0.0408 0.051 0.0801 0.10352c0.0983 0.13116 0.34692 0.38018 0.5 0.5 0.43082 0.3372 0.99729 0.5537 1.5586 0.5957 0.11997 9e-3 0.4933-7e-3 0.61914-0.0254 0.0612-9e-3 0.13541-0.0213 0.16601-0.0293s0.0911-0.0228 0.13477-0.0332c0.51119-0.12136 1.0389-0.44177 1.4199-0.86328 0.10199-0.11283 0.23852-0.29293 0.29492-0.39063l0.041-0.0723-0.5918-0.3418c-0.325-0.18752-0.60183-0.3437-0.61523-0.3457-0.0142-2e-3 -0.0477 0.032-0.0801 0.0801-0.15725 0.23352-0.43181 0.4406-0.70703 0.5332-0.1998 0.0672-0.25223 0.0743-0.48438 0.0742-0.25681-1.7e-4 -0.3972-0.0288-0.59961-0.1211-0.15119-0.0689-0.24913-0.13605-0.39843-0.27539-0.25813-0.24091-0.41641-0.57826-0.44141-0.9414-0.0481-0.69827 0.39904-1.3141 1.0859-1.5 0.16689-0.0454 0.53262-0.0511 0.6875-0.01 0.13788 0.037 0.29216 0.0979 0.39453 0.15625 0.17235 0.0982 0.38571 0.29905 0.47851 0.44922 0.0192 0.031 0.0445 0.0548 0.0547 0.0547s0.054-0.0202 0.0977-0.0449c0.0854-0.0484 0.36711-0.20996 0.44531-0.25586 0.0262-0.0154 0.11768-0.0689 0.20508-0.11914 0.0874-0.0502 0.18766-0.10821 0.22266-0.12891s0.10595-0.0604 0.15625-0.0879 0.0898-0.0546 0.0898-0.0606-0.0387-0.0709-0.0879-0.14453c-0.34931-0.52215-0.8833-0.92885-1.4785-1.125-0.3572-0.11767-0.74364-0.16116-1.1211-0.13476zm2.6719 2.1523v0.18164h-0.18164v0.36523h0.18164v0.36329h-0.18164v0.36523h0.18164v0.18164h0.36524v-0.18164h0.36328v0.18164h0.36523v-0.18164h0.18165v-0.36523h-0.18165v-0.36329h0.18165v-0.36523h-0.18165v-0.18164h-0.36523v0.18164h-0.36328v-0.18164h-0.36524zm0.36524 0.54687h0.36328v0.36329h-0.36328v-0.36329z" fill="#fff" fill-rule="evenodd"/></g></g></svg>
