<?xml version="1.0" encoding="UTF-8"?>
<svg version="1.0"  width="200" height="227" viewBox="0 0 109.35 127.29" xmlns="http://www.w3.org/2000/svg" xmlns:cc="http://web.resource.org/cc/" xmlns:dc="http://purl.org/dc/elements/1.1/" xmlns:rdf="http://www.w3.org/1999/02/22-rdf-syntax-ns#">
<path d="m82.524 75.911c1.2224 1.4961 1.0002 3.7025-0.49599 4.9248-1.4961 1.2224-3.7025 1.0002-4.9248-0.49599s-1.0002-3.7025 0.49599-4.9248 3.7025-1.0002 4.9248 0.49599z" fill="#c0c0c0" fill-rule="evenodd"/>
<path d="m96.407 112.44l0.03125-0.28125-0.125-0.28125-16.219-34.375-0.25-0.5h-0.53125-71.873-0.71875l-0.15625 0.71875 1.5938 1.0312h70.592l15.875 33.625 1.7812 0.0625z" fill="#c0c0c0" fill-rule="evenodd"/>
<path d="m79.762 7.6596l0.2904 69.75" fill="none" stroke="#c0c0c0" stroke-width="1.75"/>
<path d="m7.3948 81.53c-1.9179 0.23278-3.6634-1.1349-3.8962-3.0528-0.23278-1.9179 1.1349-3.6634 3.0528-3.8962 1.9179-0.23278 3.6634 1.1349 3.8962 3.0528 0.23278 1.9179-1.1349 3.6634-3.0528 3.8962z" fill-rule="evenodd"/>
<path d="m6.1336 3.9329l-0.022577 74.018-0.03125 0.28125 0.125 0.28125 16.219 34.375 0.25 0.5h0.53125 71.873 0.71875l0.15625-0.71875 0.02256-73.55-1.7188-0.34375 0.10244 72.862h-70.592l-15.875-33.625-0.039923-73.737-1.7188-0.34375z" fill-rule="evenodd"/>
<path d="m26.112 114.34c-1.0341 1.6319-3.1979 2.1171-4.8298 1.083-1.6319-1.0341-2.1171-3.1979-1.083-4.8298 1.0341-1.6319 3.1979-2.1171 4.8298-1.083s2.1171 3.1979 1.083 4.8298z" fill-rule="evenodd"/>
<path d="m5.7936 5.6714l0.59375 1.25 16.719 34.375 0.25 0.5h0.53125 71.873 1.4063l-0.59375-1.25-16.25-34.375-0.21875-0.5h-0.5625-72.342-1.4063zm2.8125 1.75h70.404l15.375 32.625h-69.904l-15.875-32.625z" fill-rule="evenodd"/>
<path d="m97.748 110.33c1.2224 1.4961 1.0002 3.7025-0.49599 4.9248-1.4961 1.2224-3.7025 1.0002-4.9248-0.49599-1.2224-1.4962-1.0002-3.7025 0.49599-4.9248s3.7025-1.0002 4.9248 0.49599z" fill-rule="evenodd"/>
<path d="m93.165 43.81c-1.6319-1.0341-2.1171-3.1979-1.083-4.8298 1.0341-1.6319 3.1979-2.1171 4.8298-1.083 1.6319 1.0341 2.1171 3.1979 1.083 4.8298-1.0341 1.6319-3.1979 2.1171-4.8298 1.083z" fill-rule="evenodd"/>
<path d="m20.189 39.093c1.0249-1.6378 3.1858-2.1352 4.8236-1.1103s2.1352 3.1859 1.1103 4.8236c-1.0249 1.6378-3.1859 2.1352-4.8236 1.1103-1.6378-1.0249-2.1352-3.1859-1.1103-4.8236z" fill-rule="evenodd"/>
<path d="m82.77 8.372c-1.0341 1.6319-3.1979 2.1171-4.8298 1.083-1.6319-1.0341-2.1171-3.1979-1.083-4.8298 1.0341-1.6319 3.1979-2.1171 4.8298-1.083s2.1171 3.1979 1.083 4.8298z" fill-rule="evenodd"/>
<path d="m8.8295 3.6284c1.6378 1.0249 2.1352 3.1858 1.1103 4.8236-1.0249 1.6378-3.1859 2.1352-4.8236 1.1103-1.6378-1.0249-2.1352-3.1859-1.1103-4.8236 1.0249-1.6378 3.1859-2.1352 4.8236-1.1103z" fill-rule="evenodd"/>
<path d="m23.285 40.93l0.2904 73.215" fill="none" stroke="#000" stroke-width="1.75"/>
<path d="m9.124 91.78l0.74708-0.53595 0.51971 0.12993-1.1937 5.1484c-0.11911 0.5143-0.17866 0.91491-0.17865 1.2018-6.9e-6 0.21655 0.035182 0.37354 0.10557 0.47099 0.07037 0.097446 0.18135 0.14617 0.33294 0.14617 0.1624 1e-6 0.33564-0.066316 0.51971-0.19895 0.18406-0.13263 0.44391-0.38572 0.77956-0.75926l0.46287 0.45475c-0.48724 0.51971-0.90273 0.88919-1.2465 1.1084-0.34377 0.21925-0.71596 0.32888-1.1166 0.32888-0.33565 0-0.60363-0.11098-0.80393-0.33294-0.20031-0.22196-0.30046-0.517-0.30046-0.88513-5.6e-6 -0.29775 0.062251-0.61445 0.18677-0.95009l-0.10557-0.032482c-0.51971 0.75791-1.0124 1.3128-1.4779 1.6647-0.46558 0.35189-0.95822 0.52783-1.4779 0.52783-0.5955 0-1.057-0.22467-1.3845-0.674-0.32753-0.44933-0.49129-1.08-0.49129-1.8921-9e-7 -0.93114 0.18271-1.8257 0.54813-2.6838 0.36542-0.85806 0.86753-1.5348 1.5063-2.0301 0.63881-0.49534 1.3507-0.74301 2.1357-0.74302 0.35188 8e-6 0.68076 0.039256 0.98664 0.11775 0.30586 0.078506 0.62121 0.21791 0.94603 0.4182zm-0.7146 2.4199c0.048716-0.22196 0.081198-0.41414 0.097446-0.57655 0.016234-0.1624 0.024355-0.33835 0.024361-0.52783-6.4e-6 -0.41684-0.089331-0.72272-0.26798-0.91761-0.17866-0.19488-0.48182-0.29233-0.90949-0.29234-0.55761 8e-6 -1.0584 0.22467-1.5023 0.674-0.44392 0.44934-0.79039 1.0516-1.0394 1.8068-0.24903 0.75521-0.37354 1.5091-0.37354 2.2615-2.3e-6 0.56302 0.077142 0.98393 0.23143 1.2627 0.15429 0.2788 0.41279 0.4182 0.7755 0.4182 0.3573 0 0.70783-0.15429 1.0516-0.46287 0.34376-0.30858 0.69835-0.74843 1.0638-1.3196 0.36542-0.57114 0.62392-1.2302 0.7755-1.9773l0.073084-0.34918z"/>
<path d="m61.642 116.8l0.74708-0.53595 0.51971 0.12992-1.1937 5.1484c-0.11911 0.51429-0.17866 0.9149-0.17865 1.2018-6e-6 0.21654 0.035182 0.37354 0.10557 0.47098 0.070371 0.09745 0.18135 0.14617 0.33294 0.14617 0.1624 0 0.33564-0.06632 0.51971-0.19895 0.18406-0.13263 0.44391-0.38572 0.77956-0.75926l0.46287 0.45474c-0.48724 0.51971-0.90273 0.88919-1.2465 1.1084-0.34377 0.21925-0.71596 0.32887-1.1166 0.32887-0.33565 0-0.60363-0.11098-0.80393-0.33293-0.20031-0.22196-0.30046-0.51701-0.30046-0.88514-6e-6 -0.29774 0.062251-0.61444 0.18677-0.95009l-0.10557-0.03248c-0.51972 0.75791-1.0124 1.3128-1.4779 1.6647-0.46558 0.35189-0.95822 0.52783-1.4779 0.52783-0.5955 0-1.057-0.22466-1.3845-0.67399-0.32753-0.44934-0.49129-1.08-0.49129-1.8921 0-0.93115 0.18271-1.8258 0.54813-2.6838 0.36542-0.85805 0.86753-1.5348 1.5063-2.0301 0.63881-0.49534 1.3507-0.74302 2.1357-0.74302 0.35188 0 0.68076 0.03925 0.98664 0.11774 0.30586 0.07851 0.62121 0.21791 0.94603 0.41821zm-0.7146 2.4199c0.048716-0.22195 0.081198-0.41413 0.097445-0.57655 0.016235-0.1624 0.024355-0.33835 0.024362-0.52783-7e-6 -0.41684-0.089332-0.72271-0.26798-0.91761-0.17866-0.19489-0.48182-0.29233-0.90949-0.29234-0.55761 1e-5 -1.0584 0.22467-1.5023 0.674-0.44392 0.44934-0.79039 1.0516-1.0394 1.8068-0.24903 0.75521-0.37354 1.5091-0.37354 2.2616-3e-6 0.56302 0.077142 0.98393 0.23143 1.2627 0.15429 0.27881 0.41279 0.41821 0.7755 0.41821 0.3573 0 0.70783-0.15429 1.0516-0.46287 0.34376-0.30857 0.69836-0.74843 1.0638-1.3196 0.36542-0.57114 0.62392-1.2302 0.7755-1.9773l0.073085-0.34918z"/>
<path d="m104.25 73.22l0.74708-0.53595 0.51971 0.12993-1.1937 5.1484c-0.11911 0.5143-0.17866 0.91491-0.17865 1.2018-1e-5 0.21655 0.03518 0.37354 0.10557 0.47099 0.07037 0.097447 0.18134 0.14617 0.33293 0.14617 0.16241 1e-6 0.33564-0.066316 0.51971-0.19895 0.18406-0.13263 0.44391-0.38572 0.77957-0.75926l0.46286 0.45475c-0.48723 0.51971-0.90273 0.88919-1.2465 1.1084-0.34377 0.21925-0.71596 0.32888-1.1166 0.32888-0.33565 0-0.60363-0.11098-0.80393-0.33294-0.20031-0.22196-0.30046-0.517-0.30045-0.88513-1e-5 -0.29775 0.06225-0.61445 0.18677-0.95009l-0.10557-0.032482c-0.51971 0.75791-1.0124 1.3128-1.4779 1.6647-0.46558 0.35189-0.95822 0.52783-1.4779 0.52783-0.5955 0-1.057-0.22467-1.3845-0.674-0.32753-0.44933-0.49129-1.08-0.49129-1.8921-1e-6 -0.93114 0.18271-1.8257 0.54813-2.6838 0.36542-0.85806 0.86753-1.5348 1.5063-2.0301 0.63881-0.49534 1.3507-0.74301 2.1357-0.74302 0.35189 8e-6 0.68076 0.039257 0.98664 0.11775 0.30587 0.078505 0.62121 0.21791 0.94604 0.4182zm-0.71461 2.4199c0.04872-0.22195 0.0812-0.41414 0.09745-0.57655 0.01623-0.1624 0.02435-0.33835 0.02436-0.52783-1e-5 -0.41684-0.08933-0.72272-0.26797-0.91761-0.17866-0.19488-0.48182-0.29233-0.9095-0.29234-0.55761 8e-6 -1.0584 0.22467-1.5023 0.674-0.44392 0.44934-0.7904 1.0516-1.0394 1.8068-0.24903 0.75521-0.37354 1.5091-0.37354 2.2616-2e-6 0.56302 0.077142 0.98393 0.23143 1.2627 0.15429 0.2788 0.41279 0.4182 0.7755 0.4182 0.3573 0 0.70783-0.15429 1.0516-0.46287 0.34377-0.30858 0.69836-0.74843 1.0638-1.3196 0.36541-0.57114 0.62391-1.2302 0.7755-1.9773l0.07308-0.34918z"/>
</svg>
