<?xml version="1.0" standalone="no"?>
<!DOCTYPE svg PUBLIC "-//W3C//DTD SVG 20010904//EN"
 "http://www.w3.org/TR/2001/REC-SVG-20010904/DTD/svg10.dtd">
<svg version="1.0" xmlns="http://www.w3.org/2000/svg"
 width="320.000000pt" height="240.000000pt" viewBox="0 0 320.000000 240.000000"
 preserveAspectRatio="xMidYMid meet">

<g transform="translate(0.000000,240.000000) scale(0.100000,-0.100000)"
fill="#000000" stroke="none">
<path d="M465 2175 c-5 -2 -23 -6 -38 -9 -27 -6 -28 -8 -25 -64 l3 -57 35 3
c46 4 65 22 22 22 -38 0 -42 15 -7 24 14 4 25 11 25 16 0 6 -11 10 -25 10 -35
0 -31 17 5 25 17 4 30 10 30 15 0 11 -12 18 -25 15z"/>
<path d="M2504 2085 c-17 -40 -18 -55 -4 -55 6 0 10 5 10 12 0 6 2 9 4 7 3 -3
10 -128 15 -279 12 -313 20 -405 32 -393 5 5 4 85 -1 178 -5 94 -12 253 -16
355 l-6 185 26 -29 c37 -39 44 -26 11 18 -34 45 -52 45 -71 1z"/>
<path d="M2120 2060 c0 -5 4 -10 9 -10 6 0 13 5 16 10 3 6 -1 10 -9 10 -9 0
-16 -4 -16 -10z"/>
<path d="M295 2020 c-19 -37 -19 -50 0 -50 13 0 15 -25 16 -162 0 -90 2 -183
4 -208 2 -25 8 -211 14 -415 6 -203 13 -413 16 -465 2 -52 8 -174 11 -270 4
-96 8 -178 10 -181 1 -3 33 -2 71 2 62 7 69 6 85 -14 l18 -22 0 23 c0 21 4 22
79 22 61 0 80 -3 85 -15 8 -22 26 -18 26 5 0 19 7 20 90 20 71 0 92 -3 96 -15
8 -19 24 -19 24 0 0 11 12 15 43 15 23 1 60 3 81 6 31 5 43 2 53 -12 14 -18
15 -18 27 -2 11 14 28 18 89 18 42 0 79 -4 82 -10 9 -15 25 -12 25 5 0 23 158
22 167 -1 6 -15 7 -15 18 -1 7 10 35 18 78 23 56 6 68 4 73 -10 8 -20 24 -21
24 -2 0 10 22 16 81 21 71 6 82 5 94 -11 13 -18 14 -18 15 -1 0 13 9 17 38 19
72 4 127 -3 135 -18 10 -18 27 -18 27 0 0 7 14 16 31 20 17 3 62 6 100 6 62 0
69 -2 69 -19 0 -22 19 -39 21 -19 1 7 5 -5 8 -27 7 -46 31 -55 42 -15 l6 25
12 -28 c6 -16 15 -25 21 -22 15 9 12 51 -6 65 -8 8 -20 22 -25 32 -9 17 -5 18
53 18 48 0 59 -3 50 -12 -13 -13 -16 -48 -4 -48 4 0 23 16 43 35 32 29 45 34
95 38 l59 3 -70 2 c-57 2 -74 6 -88 22 -20 23 -37 26 -37 6 0 -25 -18 -28 -40
-6 -11 11 -29 20 -39 20 -11 0 -26 3 -35 6 -31 12 -15 -17 17 -31 29 -13 19
-14 -125 -17 -143 -3 -157 -1 -162 15 -6 24 -26 22 -26 -3 0 -18 -7 -20 -57
-20 -32 0 -68 -3 -80 -6 -18 -5 -25 -1 -33 22 -8 21 -13 25 -20 15 -4 -8 -6
-20 -3 -28 4 -9 -5 -13 -35 -13 -21 0 -59 -3 -84 -6 -41 -6 -46 -4 -51 16 -6
23 -27 19 -27 -6 0 -10 -13 -14 -47 -14 -27 0 -57 -3 -69 -6 -17 -5 -22 0 -27
25 -8 40 -27 40 -27 1 l0 -30 -79 0 c-61 0 -80 3 -85 15 -8 21 -23 19 -29 -5
-5 -18 -14 -20 -86 -20 -65 0 -81 3 -81 15 0 8 -7 15 -15 15 -8 0 -15 -7 -15
-15 0 -10 -10 -15 -27 -15 -16 -1 -53 -3 -84 -6 -51 -6 -57 -4 -62 15 -7 27
-27 27 -27 1 0 -19 -7 -20 -90 -20 -71 0 -92 3 -96 15 -4 8 -13 15 -21 15 -9
0 -13 -6 -10 -14 8 -20 -14 -26 -89 -26 -50 0 -64 3 -64 15 0 8 -7 15 -15 15
-8 0 -15 -7 -15 -15 0 -11 -12 -15 -49 -15 -27 0 -56 -3 -64 -6 -13 -5 -15 7
-14 68 1 76 -12 539 -18 618 -2 25 -8 250 -15 500 -6 253 -16 470 -21 488 -13
41 -4 54 17 24 15 -22 34 -29 34 -13 0 13 -50 71 -61 71 -5 0 -15 -13 -24 -30z"/>
<path d="M2235 2041 c-3 -6 17 -11 47 -13 l53 -4 -63 -8 c-88 -12 -94 -31 -7
-21 86 9 94 12 88 36 -4 16 -14 19 -59 19 -29 0 -55 -4 -59 -9z"/>
<path d="M2015 2000 c-10 -11 -16 -22 -14 -25 7 -6 49 24 49 36 0 15 -16 10
-35 -11z"/>
<path d="M2253 1963 c-63 -6 -52 -23 15 -23 66 0 104 9 96 21 -5 9 -28 9 -111
2z"/>
<path d="M1857 1923 c-10 -9 -9 -23 1 -23 5 0 17 7 28 15 19 14 19 14 -2 15
-11 0 -24 -3 -27 -7z"/>
<path d="M2240 1900 c-8 -5 -12 -11 -10 -14 9 -8 130 6 130 15 0 12 -101 11
-120 -1z"/>
<path d="M1727 1853 c-4 -3 -7 -12 -7 -20 0 -11 5 -11 20 -3 11 6 20 15 20 20
0 11 -23 13 -33 3z"/>
<path d="M2228 1853 c-16 -2 -28 -9 -28 -15 0 -7 16 -9 46 -4 26 3 62 6 80 6
19 0 34 5 34 10 0 10 -76 11 -132 3z"/>
<path d="M2220 1801 c-14 -4 -20 -9 -15 -12 17 -8 145 2 145 12 0 10 -93 10
-130 0z"/>
<path d="M1575 1759 c-12 -19 5 -23 22 -6 16 16 16 17 1 17 -9 0 -20 -5 -23
-11z"/>
<path d="M2263 1750 c-89 -7 -89 -20 0 -20 43 0 77 4 77 9 0 15 -11 17 -77 11z"/>
<path d="M2195 1700 c-8 -12 -15 -11 79 -13 55 -1 81 3 84 11 5 15 -154 17
-163 2z"/>
<path d="M1450 1685 c-7 -9 -10 -18 -7 -21 10 -11 37 5 37 21 0 19 -14 19 -30
0z"/>
<path d="M2190 1630 c0 -6 35 -9 85 -9 47 1 85 6 85 10 0 5 -38 9 -85 9 -49 0
-85 -4 -85 -10z"/>
<path d="M1313 1595 c-3 -9 -3 -18 0 -21 9 -9 27 6 27 22 0 19 -19 18 -27 -1z"/>
<path d="M2200 1590 c0 -6 39 -10 96 -10 61 0 93 4 89 10 -3 6 -46 10 -96 10
-53 0 -89 -4 -89 -10z"/>
<path d="M2210 1530 c0 -6 37 -10 90 -10 53 0 90 4 90 10 0 6 -37 10 -90 10
-53 0 -90 -4 -90 -10z"/>
<path d="M1243 1493 c-80 -6 -63 -23 22 -23 43 0 75 4 75 10 0 6 -4 10 -9 10
-5 0 -15 1 -23 3 -7 2 -37 2 -65 0z"/>
<path d="M2225 1481 c-16 -3 -25 -10 -19 -13 15 -10 154 3 154 13 0 10 -90 10
-135 0z"/>
<path d="M2233 1433 c-13 -2 -23 -9 -23 -15 0 -5 7 -7 16 -4 9 3 45 6 80 6 36
0 64 4 64 10 0 10 -92 12 -137 3z"/>
<path d="M1007 1383 c-9 -2 -15 -9 -12 -14 7 -11 122 -11 150 0 33 13 -92 26
-138 14z"/>
<path d="M2273 1383 c-91 -6 -77 -23 18 -23 60 0 80 3 77 13 -5 14 -11 15 -95
10z"/>
<path d="M2710 1371 c-20 -5 -26 -14 -28 -45 -4 -48 12 -68 52 -64 35 3 33 23
-2 23 -28 -1 -23 19 7 23 30 5 20 27 -10 25 -22 -1 -22 0 4 10 45 18 26 41
-23 28z"/>
<path d="M2562 1321 c-32 -57 -30 -62 33 -59 30 1 55 5 55 9 0 7 -58 89 -63
89 -2 0 -13 -17 -25 -39z m42 -20 c3 -5 -1 -11 -9 -15 -9 -3 -15 0 -15 9 0 16
16 20 24 6z"/>
<path d="M2329 1326 c-2 -2 -31 -6 -64 -8 -33 -2 -58 -8 -55 -13 5 -9 127 -8
143 2 4 2 5 9 2 14 -6 9 -19 12 -26 5z"/>
<path d="M1195 1311 c-3 -5 -2 -12 2 -14 14 -8 173 5 173 14 0 12 -167 11
-175 0z"/>
<path d="M798 1273 c-16 -2 -28 -9 -28 -15 0 -6 21 -8 58 -4 31 3 61 5 65 5 5
1 5 6 2 11 -6 10 -44 11 -97 3z"/>
<path d="M2258 1263 c-32 -2 -58 -9 -58 -14 0 -15 162 -7 168 9 2 8 -6 11 -25
10 -15 -1 -54 -3 -85 -5z"/>
<path d="M2200 1190 c0 -6 36 -10 89 -10 50 0 93 5 96 10 4 6 -28 10 -89 10
-57 0 -96 -4 -96 -10z"/>
<path d="M1003 1178 c2 -8 18 -12 38 -11 19 0 44 1 57 2 12 1 22 6 22 11 0 6
-27 10 -61 10 -44 0 -60 -3 -56 -12z"/>
<path d="M2549 1148 c-3 -55 2 -539 6 -606 3 -63 3 -64 -21 -58 -28 7 -32 -7
-6 -26 10 -7 21 -20 24 -29 4 -9 17 -16 31 -16 21 -1 27 6 36 43 6 23 11 48
11 53 0 18 -28 13 -39 -6 -8 -13 -10 14 -11 97 0 234 -13 580 -22 580 -4 0 -9
-15 -9 -32z"/>
<path d="M618 1152 c-16 -2 -28 -8 -28 -14 0 -7 16 -9 46 -4 26 3 60 6 76 6
18 0 27 4 23 10 -6 10 -46 10 -117 2z"/>
<path d="M2210 1130 c0 -6 33 -10 80 -10 47 0 80 4 80 10 0 6 -33 10 -80 10
-47 0 -80 -4 -80 -10z"/>
<path d="M1206 1091 c-3 -5 3 -11 13 -14 29 -7 151 4 151 14 0 12 -157 12
-164 0z"/>
<path d="M825 1063 c-60 -9 -49 -23 18 -23 37 0 67 4 67 9 0 10 -26 22 -43 20
-7 -1 -25 -4 -42 -6z"/>
<path d="M2288 1063 c-84 -6 -71 -23 17 -23 60 0 75 3 75 15 0 8 -8 14 -17 13
-10 -1 -44 -3 -75 -5z"/>
<path d="M465 1043 c-68 -7 -65 -23 4 -23 44 0 61 4 59 12 -5 14 -12 16 -63
11z"/>
<path d="M2293 1011 c-24 -4 -46 -10 -49 -14 -16 -15 9 -19 81 -12 55 5 75 11
75 21 0 15 -33 17 -107 5z"/>
<path d="M1058 973 c-27 -2 -48 -8 -48 -14 0 -12 137 -12 144 0 6 10 -18 22
-37 19 -7 -1 -33 -3 -59 -5z"/>
<path d="M628 963 c-16 -2 -28 -9 -28 -14 0 -10 38 -12 92 -3 21 4 35 10 32
15 -5 9 -45 10 -96 2z"/>
<path d="M2258 953 c-41 -11 -13 -23 53 -23 52 0 70 3 67 13 -5 12 -87 20
-120 10z"/>
<path d="M2340 903 c-14 -2 -44 -6 -67 -9 -24 -3 -43 -9 -43 -15 0 -8 139 -2
149 8 10 8 -16 19 -39 16z"/>
<path d="M1297 890 c-37 -3 -66 -9 -65 -14 4 -11 140 -8 151 3 13 13 -13 16
-86 11z"/>
<path d="M808 853 c-57 -9 -25 -23 53 -23 60 0 80 3 77 13 -5 12 -79 18 -130
10z"/>
<path d="M2298 843 c-91 -6 -70 -24 25 -21 48 2 81 7 80 13 -3 12 -25 13 -105
8z"/>
<path d="M2322 792 c-44 -2 -62 -7 -59 -15 4 -13 113 -19 135 -8 26 15 -12 26
-76 23z"/>
<path d="M1033 738 c2 -7 9 -13 15 -12 7 1 39 2 72 3 88 2 74 21 -16 21 -56 0
-75 -3 -71 -12z"/>
<path d="M2250 720 c0 -5 29 -11 65 -11 36 -1 70 -2 77 -3 6 -1 13 5 16 12 3
9 -17 12 -77 12 -47 0 -81 -4 -81 -10z"/>
<path d="M2323 673 c-42 -4 -54 -15 -32 -28 17 -11 130 6 126 19 -4 12 -31 15
-94 9z"/>
<path d="M1275 661 c-27 -4 -36 -9 -27 -15 18 -11 164 3 156 15 -6 10 -65 10
-129 0z"/>
<path d="M1494 621 c9 -13 66 -32 66 -21 0 12 -34 30 -55 30 -9 0 -14 -4 -11
-9z"/>
<path d="M2347 621 c-63 -8 -56 -26 11 -27 60 0 86 10 62 26 -8 5 -17 9 -20 8
-3 -1 -26 -4 -53 -7z"/>
<path d="M1687 574 c-12 -12 4 -24 30 -24 21 0 24 2 13 15 -13 16 -32 20 -43
9z"/>
<path d="M2340 571 c-65 -9 -46 -27 25 -23 70 3 89 8 80 22 -7 11 -31 11 -105
1z"/>
<path d="M1880 521 c0 -14 62 -33 73 -22 5 5 -5 13 -24 20 -39 13 -49 14 -49
2z"/>
<path d="M2323 523 c-18 -2 -33 -9 -33 -14 0 -15 142 -7 148 9 4 12 -40 14
-115 5z"/>
<path d="M2050 481 c0 -5 11 -12 24 -15 13 -3 31 -9 40 -12 10 -4 16 -1 16 9
0 8 -7 18 -16 21 -24 9 -64 7 -64 -3z"/>
<path d="M2315 469 c-4 -6 -5 -13 -2 -15 8 -9 127 8 127 17 0 13 -118 11 -125
-2z"/>
<path d="M2186 441 c14 -13 86 -31 97 -24 6 3 2 12 -8 20 -21 15 -105 19 -89
4z"/>
<path d="M2901 306 c-18 -21 -7 -46 21 -47 19 -1 17 -3 -7 -8 -38 -9 -52 -4
-58 20 -7 27 -27 24 -28 -6 -1 -14 -2 -31 -3 -37 -1 -8 9 -12 24 -10 14 1 48
4 75 5 l50 2 0 45 c0 43 -1 45 -31 48 -19 2 -36 -3 -43 -12z"/>
<path d="M2100 295 c-15 -18 -5 -35 21 -35 14 0 19 -7 19 -25 0 -14 5 -25 10
-25 17 0 12 87 -6 94 -23 9 -30 8 -44 -9z"/>
<path d="M1898 281 c-8 -11 -14 -34 -13 -53 0 -28 3 -33 25 -33 20 0 25 6 32
40 5 21 6 45 4 52 -8 19 -33 16 -48 -6z"/>
<path d="M2667 293 c-4 -3 -7 -26 -7 -50 0 -42 1 -43 28 -37 47 10 50 12 47
31 -2 10 -4 28 -4 41 -1 17 -7 22 -29 22 -16 0 -32 -3 -35 -7z"/>
<path d="M2616 254 l7 -37 -30 32 c-17 17 -33 31 -37 31 -3 0 -6 -18 -6 -40 0
-38 12 -52 25 -29 5 7 14 4 27 -8 19 -17 20 -17 34 2 17 22 18 40 4 66 -18 32
-32 22 -24 -17z"/>
<path d="M2762 254 c2 -32 7 -40 26 -42 15 -2 22 2 22 12 0 9 -4 16 -9 16 -5
0 -11 10 -13 22 -2 12 -9 23 -16 26 -10 3 -12 -6 -10 -34z"/>
<path d="M1515 250 c-23 -25 -13 -70 16 -70 23 0 36 27 21 42 -8 8 -8 15 -2
24 18 21 -16 25 -35 4z"/>
<path d="M1695 260 c-3 -6 0 -13 9 -16 10 -4 13 -15 9 -40 -3 -19 -1 -34 4
-34 12 0 36 77 28 90 -8 13 -42 13 -50 0z"/>
<path d="M2200 256 c0 -8 5 -18 10 -21 6 -3 10 3 10 14 0 12 -4 21 -10 21 -5
0 -10 -6 -10 -14z"/>
<path d="M2246 262 c-2 -4 0 -14 5 -22 8 -13 10 -13 18 0 10 15 6 30 -9 30 -5
0 -11 -4 -14 -8z"/>
<path d="M1337 253 c-14 -13 -7 -54 10 -60 15 -6 14 -7 -3 -14 -18 -6 -18 -7
-1 -14 40 -17 67 32 30 54 -17 10 -17 10 0 11 9 0 17 7 17 15 0 15 -40 21 -53
8z"/>
<path d="M327 224 c-13 -13 -7 -62 9 -78 20 -20 27 -20 54 2 21 17 22 21 9 48
-14 28 -55 44 -72 28z m43 -43 c0 -6 -4 -13 -10 -16 -5 -3 -10 1 -10 9 0 9 5
16 10 16 6 0 10 -4 10 -9z"/>
<path d="M730 215 c0 -8 5 -15 11 -15 8 0 8 -4 -1 -15 -17 -21 -3 -36 28 -29
36 9 40 14 21 27 -16 12 -19 18 -19 37 0 6 -9 10 -20 10 -11 0 -20 -7 -20 -15z"/>
<path d="M947 223 c-4 -3 -2 -12 4 -19 9 -10 7 -15 -5 -20 -22 -8 -2 -44 25
-44 17 0 19 5 15 38 -3 20 -5 40 -5 45 -1 9 -25 9 -34 0z"/>
<path d="M1127 212 c-22 -24 -22 -42 -1 -42 9 0 23 -8 30 -17 12 -17 13 -16
14 5 0 13 6 22 15 22 8 0 15 5 15 10 0 6 -7 10 -15 10 -9 0 -18 7 -21 15 -8
20 -17 19 -37 -3z"/>
<path d="M542 180 c2 -19 8 -34 13 -33 17 3 17 27 0 48 -15 19 -15 18 -13 -15z"/>
</g>
</svg>
