<?xml version="1.0" standalone="no"?>
<!DOCTYPE svg PUBLIC "-//W3C//DTD SVG 20010904//EN"
 "http://www.w3.org/TR/2001/REC-SVG-20010904/DTD/svg10.dtd">
<svg version="1.0" xmlns="http://www.w3.org/2000/svg"
 width="320.000000pt" height="240.000000pt" viewBox="0 0 320.000000 240.000000"
 preserveAspectRatio="xMidYMid meet">

<g transform="translate(0.000000,240.000000) scale(0.100000,-0.100000)"
fill="#000000" stroke="none">
<path d="M1242 2173 c-8 -17 -12 -40 -9 -50 3 -14 6 -12 16 11 6 16 11 39 9
50 -3 18 -5 16 -16 -11z"/>
<path d="M1200 2182 c0 -12 19 -26 26 -19 2 2 -2 10 -11 17 -9 8 -15 8 -15 2z"/>
<path d="M967 2172 c-3 -4 -3 -19 0 -35 4 -20 11 -27 27 -26 20 0 20 1 1 9
l-20 9 20 1 c20 1 20 1 1 15 -11 8 -14 15 -7 15 7 0 9 5 6 10 -7 12 -22 13
-28 2z"/>
<path d="M1036 2171 c-11 -17 5 -39 32 -46 14 -3 55 -32 91 -64 127 -112 283
-215 326 -216 13 0 127 -78 220 -150 113 -87 334 -222 457 -278 37 -17 68 -34
68 -37 0 -3 -19 -13 -43 -22 -23 -10 -91 -47 -152 -82 -87 -51 -111 -61 -114
-48 -2 10 -8 4 -18 -18 -8 -19 -10 -36 -6 -38 7 -2 81 -51 193 -126 19 -13 61
-44 94 -69 l58 -46 -37 -15 c-21 -9 -46 -16 -55 -16 -10 0 -21 -6 -24 -12 -3
-7 -3 7 0 31 4 31 3 41 -5 37 -6 -4 -11 -24 -11 -46 0 -25 -5 -40 -16 -44 -33
-12 -37 -7 -30 41 3 25 4 44 0 41 -3 -3 -8 -28 -12 -54 l-7 -48 -56 -17 -56
-16 3 66 3 66 -11 -68 c-11 -72 -7 -68 -85 -81 -30 -5 -33 -3 -38 27 -3 18 -7
57 -9 87 -2 30 -3 16 -2 -32 l1 -87 -29 -5 c-16 -3 -44 -6 -63 -6 -28 0 -33 3
-29 18 15 53 38 174 33 178 -3 3 -16 -41 -29 -97 l-25 -102 -41 -4 c-23 -2
-42 -2 -42 1 0 3 9 44 20 92 11 48 19 92 17 98 -3 9 -16 -34 -47 -152 -8 -33
-15 -42 -28 -38 -9 2 -30 7 -45 10 -17 4 -25 11 -21 18 7 11 35 146 33 163 -2
20 -39 -111 -39 -137 0 -21 -5 -28 -20 -28 -25 0 -26 22 -4 144 8 48 13 90 11
93 -5 4 -33 -112 -44 -180 -4 -28 -10 -37 -20 -33 -8 4 -17 6 -19 6 -9 0 -3
64 16 155 11 53 20 102 19 109 -1 17 -58 -206 -59 -231 0 -16 -5 -20 -20 -16
-14 4 -20 14 -21 37 0 29 -1 30 -10 8 -5 -15 -15 -22 -26 -20 -14 3 -17 12
-15 43 2 22 7 42 12 45 4 3 2 10 -5 17 -11 10 -15 3 -20 -37 -4 -28 -11 -50
-17 -50 -5 0 -34 12 -64 26 -41 19 -54 31 -54 47 0 17 -2 19 -10 7 -7 -12 -12
-12 -28 4 -11 9 -23 13 -26 8 -9 -15 56 -69 114 -95 30 -13 75 -33 100 -44 25
-11 78 -33 119 -49 40 -15 76 -34 78 -42 5 -11 7 -11 15 0 7 10 11 10 15 1 2
-7 20 -13 39 -13 29 0 34 -3 34 -24 0 -33 10 -57 21 -50 5 3 7 21 3 40 l-6 34
56 0 c83 0 310 39 396 67 41 14 99 38 130 53 109 55 145 61 443 69 153 5 281
11 284 14 3 4 3 13 -1 22 -4 12 -14 15 -33 11 -79 -15 -275 -27 -403 -24
l-146 3 -59 36 c-105 63 -238 149 -269 172 l-29 23 104 62 c132 78 211 113
257 117 20 1 55 5 77 9 22 4 127 13 232 20 179 12 215 17 201 31 -3 3 -86 -1
-185 -9 -99 -9 -220 -16 -269 -17 -83 -1 -95 2 -180 38 -108 47 -288 154 -434
259 -58 42 -133 94 -167 117 -43 27 -63 47 -64 61 0 18 -1 18 -7 4 -6 -15 -17
-12 -97 28 -90 45 -224 140 -250 177 -12 17 -12 22 1 34 7 8 18 12 24 8 6 -3
7 1 4 9 -8 21 -34 21 -34 0 0 -8 -5 -12 -11 -8 -6 3 -9 15 -6 25 3 11 1 19 -4
19 -5 0 -9 -9 -9 -20 0 -11 -3 -20 -7 -20 -15 0 -28 15 -28 30 0 17 -40 26
-49 11z m34 -11 c0 -5 -4 -10 -10 -10 -5 0 -10 5 -10 10 0 6 5 10 10 10 6 0
10 -4 10 -10z"/>
<path d="M782 2133 c3 -35 6 -38 37 -41 20 -2 31 1 27 6 -3 6 -15 8 -26 5 -11
-3 -20 0 -20 6 0 6 12 11 26 11 30 0 22 19 -9 21 -17 1 -18 2 -4 6 26 7 20 23
-9 23 -23 0 -25 -3 -22 -37z"/>
<path d="M882 2141 c-1 -33 12 -41 22 -14 4 9 1 23 -7 30 -12 12 -14 10 -15
-16z"/>
<path d="M923 2147 c-8 -16 -9 -29 -3 -32 12 -8 23 17 18 41 -2 14 -6 12 -15
-9z"/>
<path d="M936 2074 c-9 -23 -8 -24 10 -17 13 5 14 -5 9 -78 -7 -94 -12 -309
-14 -621 l-1 -207 -27 -4 -28 -4 28 -2 28 -1 -1 -257 c-1 -142 -1 -285 -1
-317 l1 -59 144 7 144 7 7 -31 c8 -39 25 -39 25 0 0 36 4 37 156 44 l112 4 6
-29 c7 -38 26 -37 26 1 0 29 2 30 43 30 23 0 85 3 138 6 l96 7 7 -42 c8 -54
31 -56 23 -2 l-5 40 52 5 c55 6 211 13 486 22 96 3 180 7 187 9 13 4 23 -17
23 -50 0 -13 5 -27 10 -30 11 -7 13 3 10 53 l-2 32 91 0 c89 0 102 -5 80 -27
-8 -8 -7 -13 1 -18 12 -7 65 49 65 68 0 14 -72 53 -81 44 -4 -4 1 -13 11 -21
17 -12 17 -13 -1 -18 -10 -3 -54 -6 -96 -7 l-78 -2 0 30 c0 17 -4 31 -10 31
-5 0 -10 -13 -10 -30 0 -16 -1 -30 -2 -31 -17 -4 -559 -28 -634 -29 -97 0
-102 1 -109 23 -8 21 -8 21 -12 -5 -4 -28 -4 -28 -87 -28 -46 0 -104 -3 -130
-6 l-46 -7 0 32 c0 41 -20 40 -21 -1 -1 -24 -3 -27 -6 -11 -5 28 -23 30 -23 3
0 -11 -6 -20 -12 -20 -45 -1 -226 -12 -241 -15 -12 -2 -17 2 -15 13 2 9 -5 18
-14 20 -13 2 -18 -3 -18 -17 0 -19 -6 -20 -135 -20 l-135 1 2 89 2 89 38 0
c21 0 38 5 38 10 0 6 -18 10 -41 10 l-41 0 6 458 c4 251 6 550 6 665 0 114 4
207 8 207 4 0 14 -6 22 -12 8 -7 6 -3 -4 10 -22 26 -51 29 -60 6z"/>
<path d="M1440 2050 c0 -5 5 -10 10 -10 6 0 10 5 10 10 0 6 -4 10 -10 10 -5 0
-10 -4 -10 -10z"/>
<path d="M784 1993 c2 -16 4 -34 5 -40 1 -15 47 -17 56 -3 4 6 -5 10 -19 10
-32 0 -35 20 -3 21 21 0 21 1 2 9 -17 7 -17 9 -2 9 30 2 19 21 -12 21 -27 0
-29 -3 -27 -27z"/>
<path d="M2780 1976 c0 -14 -4 -26 -10 -26 -5 0 -10 -4 -10 -10 0 -5 7 -10 16
-10 10 0 14 -6 10 -15 -3 -8 -1 -15 4 -15 13 0 13 87 0 95 -6 4 -10 -5 -10
-19z"/>
<path d="M1495 1930 c3 -5 8 -10 11 -10 2 0 4 5 4 10 0 6 -5 10 -11 10 -5 0
-7 -4 -4 -10z"/>
<path d="M1020 1916 c0 -3 20 -35 44 -70 25 -36 61 -94 80 -129 20 -36 54 -84
75 -108 21 -24 60 -78 86 -119 27 -41 81 -108 121 -147 47 -48 66 -73 55 -74
-9 -1 -1 -6 17 -11 17 -6 32 -15 32 -20 0 -5 4 -7 9 -4 5 4 42 -10 82 -29 l73
-35 -62 0 c-34 0 -62 3 -62 8 0 4 -25 8 -55 9 -56 1 -205 32 -205 42 0 3 -13
7 -29 8 -16 1 -61 13 -101 27 -84 30 -80 29 -80 17 0 -5 9 -13 20 -16 11 -3
20 -14 21 -23 0 -9 3 -12 5 -6 3 8 27 3 72 -13 37 -14 81 -27 97 -29 83 -11
114 -34 60 -44 l-30 -6 33 -5 c24 -4 35 -1 42 11 6 12 18 15 45 12 26 -3 33
-7 24 -13 -10 -6 -6 -9 14 -9 23 0 27 -4 27 -30 0 -40 18 -38 22 3 2 25 7 31
23 29 73 -9 191 0 208 17 5 5 -1 15 -13 24 -12 8 -19 20 -15 26 3 6 1 11 -4
11 -6 0 -11 -7 -11 -15 0 -8 -7 -15 -15 -15 -11 0 -15 12 -16 43 -1 42 -1 42
-9 9 -10 -43 -10 -43 -47 -27 -32 14 -33 16 -35 77 l-2 63 -3 -57 c-2 -32 -6
-58 -8 -58 -10 0 -86 47 -109 67 -13 12 -33 26 -44 32 -17 9 -19 19 -17 73 l4
63 -11 -52 -11 -52 -32 39 c-23 28 -31 47 -29 67 3 24 3 25 -4 5 -8 -26 -9
-25 -158 198 -42 63 -93 139 -112 168 -34 51 -62 81 -62 68z"/>
<path d="M1270 1840 c0 -5 9 -10 21 -10 11 0 17 5 14 10 -3 6 -13 10 -21 10
-8 0 -14 -4 -14 -10z"/>
<path d="M125 1830 c4 -6 110 -10 286 -10 179 0 279 4 279 10 0 6 -102 10
-286 10 -187 0 -283 -3 -279 -10z"/>
<path d="M1193 1833 c9 -2 25 -2 35 0 9 3 1 5 -18 5 -19 0 -27 -2 -17 -5z"/>
<path d="M1512 1700 c0 -14 2 -19 5 -12 2 6 2 18 0 25 -3 6 -5 1 -5 -13z"/>
<path d="M145 1691 c-8 -28 4 -51 29 -51 20 1 20 2 4 14 -22 16 -23 36 -2 36
8 0 12 5 9 10 -10 16 -33 11 -40 -9z"/>
<path d="M211 1701 c-18 -11 -5 -48 19 -56 38 -12 54 20 24 49 -18 18 -24 19
-43 7z m39 -31 c0 -5 -7 -10 -15 -10 -8 0 -15 5 -15 10 0 6 7 10 15 10 8 0 15
-4 15 -10z"/>
<path d="M393 1694 c-14 -37 40 -71 63 -40 10 14 13 15 24 1 14 -17 36 -20 45
-4 9 14 -3 59 -15 59 -6 0 -8 -11 -4 -25 4 -15 2 -25 -5 -25 -6 0 -11 6 -11
13 0 14 -45 37 -72 37 -10 0 -21 -7 -25 -16z"/>
<path d="M630 1700 c-13 -8 -12 -10 3 -10 10 0 17 -8 17 -20 0 -11 5 -20 10
-20 6 0 10 9 10 20 0 11 5 20 11 20 5 0 7 5 4 10 -8 13 -35 13 -55 0z"/>
<path d="M750 1681 c0 -34 10 -44 35 -35 25 10 16 58 -12 62 -20 3 -23 -1 -23
-27z m40 0 c0 -12 -20 -25 -27 -18 -7 7 6 27 18 27 5 0 9 -4 9 -9z"/>
<path d="M827 1695 c-9 -8 -13 -24 -10 -36 5 -16 8 -18 15 -7 7 10 11 10 15 1
12 -32 38 4 28 38 -8 23 -28 24 -48 4z m33 -15 c0 -5 -2 -10 -4 -10 -3 0 -8 5
-11 10 -3 6 -1 10 4 10 6 0 11 -4 11 -10z"/>
<path d="M290 1676 c0 -14 5 -28 10 -31 6 -3 10 -1 10 6 0 8 4 8 15 -1 21 -17
47 -5 43 22 -2 12 -9 23 -16 26 -7 2 -10 -2 -6 -12 8 -20 -10 -21 -26 -1 -18
22 -30 18 -30 -9z"/>
<path d="M550 1685 c-10 -12 -10 -18 0 -30 14 -17 60 -21 60 -5 0 6 -12 10
-27 10 -21 0 -24 3 -15 12 7 7 12 16 12 20 0 13 -17 9 -30 -7z"/>
<path d="M700 1676 c0 -14 5 -28 10 -31 6 -4 10 7 10 24 0 17 -4 31 -10 31 -5
0 -10 -11 -10 -24z"/>
<path d="M1510 1601 c0 -12 5 -21 10 -21 6 0 10 6 10 14 0 8 -4 18 -10 21 -5
3 -10 -3 -10 -14z"/>
<path d="M247 1572 c-14 -3 -17 -12 -15 -40 2 -30 7 -38 26 -40 13 -2 30 2 38
9 13 10 17 10 24 0 6 -10 9 -10 15 -1 4 7 17 9 32 5 14 -3 23 -2 21 2 -24 50
-33 63 -43 63 -7 0 -18 -12 -25 -27 -13 -27 -14 -27 -18 -5 -4 25 -28 40 -55
34z m33 -56 c0 -3 -4 -8 -10 -11 -5 -3 -10 -1 -10 4 0 6 5 11 10 11 6 0 10 -2
10 -4z"/>
<path d="M504 1556 c-10 -26 1 -51 22 -54 30 -4 48 21 34 47 -12 24 -48 28
-56 7z m33 -28 c-3 -8 -6 -5 -6 6 -1 11 2 17 5 13 3 -3 4 -12 1 -19z"/>
<path d="M407 1553 c-10 -21 0 -48 18 -49 11 -1 27 -3 35 -5 11 -3 16 6 18 29
2 23 -1 32 -11 32 -10 0 -14 -7 -10 -22 l5 -23 -20 23 c-21 23 -29 27 -35 15z"/>
<path d="M1510 1503 c0 -5 5 -15 10 -23 8 -12 10 -11 10 8 0 12 -4 22 -10 22
-5 0 -10 -3 -10 -7z"/>
<path d="M2878 1480 c-17 -10 -17 -11 10 -90 4 -11 6 -10 10 5 2 11 11 28 20
38 26 30 -5 67 -40 47z m32 -25 c0 -8 -4 -15 -10 -15 -5 0 -10 7 -10 15 0 8 5
15 10 15 6 0 10 -7 10 -15z"/>
<path d="M1503 1390 c0 -30 2 -43 4 -27 2 15 2 39 0 55 -2 15 -4 2 -4 -28z"/>
<path d="M1520 1375 c0 -14 5 -25 10 -25 6 0 10 11 10 25 0 14 -4 25 -10 25
-5 0 -10 -11 -10 -25z"/>
<path d="M1553 1326 c7 -50 17 -58 17 -13 0 20 -5 39 -11 43 -7 4 -9 -5 -6
-30z"/>
<path d="M1505 1320 c3 -5 8 -10 11 -10 2 0 4 5 4 10 0 6 -5 10 -11 10 -5 0
-7 -4 -4 -10z"/>
<path d="M198 1272 c-148 -3 -159 -22 -13 -22 98 0 105 -1 105 -20 0 -11 5
-20 11 -20 7 0 5 -10 -5 -25 -9 -14 -14 -30 -11 -35 4 -6 -43 -10 -125 -10
-101 0 -131 -3 -127 -12 3 -10 72 -13 308 -11 315 2 409 8 409 24 0 5 -80 8
-200 6 -129 -3 -197 0 -193 6 3 6 -2 16 -11 22 -16 12 -16 14 0 29 9 9 13 23
10 31 -4 12 5 15 47 16 29 1 63 2 77 3 14 1 71 3 128 4 66 1 102 6 102 13 0
10 -116 11 -512 1z"/>
<path d="M725 1270 c-4 -6 7 -10 25 -10 18 0 29 4 25 10 -3 6 -15 10 -25 10
-10 0 -22 -4 -25 -10z"/>
<path d="M840 1270 c-11 -7 -3 -10 28 -10 26 0 41 4 37 10 -8 13 -45 13 -65 0z"/>
<path d="M985 1270 c-4 -6 8 -10 30 -10 22 0 34 4 30 10 -3 6 -17 10 -30 10
-13 0 -27 -4 -30 -10z"/>
<path d="M1245 1260 c3 -5 19 -10 36 -10 16 0 29 5 29 10 0 6 -16 10 -36 10
-21 0 -33 -4 -29 -10z"/>
<path d="M1385 1260 c3 -5 12 -10 20 -10 8 0 17 5 20 10 4 6 -5 10 -20 10 -15
0 -24 -4 -20 -10z"/>
<path d="M466 1227 c-11 -8 -17 -23 -14 -38 3 -21 8 -24 51 -25 26 -1 47 3 47
8 0 5 9 6 20 3 26 -8 27 16 1 39 -18 17 -20 17 -29 0 -6 -10 -22 -18 -41 -18
-35 -1 -38 2 -14 19 9 7 12 14 6 18 -6 4 -18 1 -27 -6z"/>
<path d="M600 1202 c0 -36 9 -45 26 -27 8 7 19 15 26 17 21 7 0 38 -27 38 -21
0 -25 -5 -25 -28z"/>
<path d="M1812 1210 c0 -14 2 -19 5 -12 2 6 2 18 0 25 -3 6 -5 1 -5 -13z"/>
<path d="M1130 1199 c0 -34 -11 -47 -45 -52 l-30 -4 32 -2 c21 -1 33 -7 35
-18 3 -10 8 6 12 35 5 29 5 56 2 59 -3 4 -6 -5 -6 -18z"/>
<path d="M1211 1154 c0 -11 3 -14 6 -6 3 7 2 16 -1 19 -3 4 -6 -2 -5 -13z"/>
<path d="M1260 1153 c-24 -12 -24 -13 15 -13 22 0 36 4 30 8 -5 4 -12 10 -15
13 -3 3 -16 0 -30 -8z"/>
<path d="M765 1140 c3 -5 21 -10 40 -10 19 0 37 5 40 10 4 6 -12 10 -40 10
-28 0 -44 -4 -40 -10z"/>
<path d="M1841 1094 c0 -11 3 -14 6 -6 3 7 2 16 -1 19 -3 4 -6 -2 -5 -13z"/>
<path d="M1452 1070 c0 -14 2 -19 5 -12 2 6 2 18 0 25 -3 6 -5 1 -5 -13z"/>
<path d="M1725 1079 c-4 -6 -5 -12 -2 -15 2 -3 7 2 10 11 7 17 1 20 -8 4z"/>
<path d="M373 1073 c-8 -2 -13 -22 -13 -44 0 -38 1 -39 35 -39 38 0 50 20 13
21 -23 0 -23 0 -2 9 16 6 20 15 17 34 -5 25 -21 31 -50 19z"/>
<path d="M627 1073 c-4 -3 -7 -26 -7 -50 0 -36 3 -43 19 -43 46 0 72 29 29 31
-17 1 -19 2 -5 6 9 2 17 11 17 20 0 10 -6 13 -17 9 -17 -6 -17 -5 0 8 9 7 17
16 17 20 0 8 -45 8 -53 -1z"/>
<path d="M502 1049 c-7 -19 -10 -20 -15 -6 -12 32 -37 20 -37 -18 0 -24 5 -35
15 -35 8 0 15 5 15 11 0 8 4 8 15 -1 20 -17 35 -4 35 30 0 37 -18 48 -28 19z"/>
<path d="M552 1058 c-27 -27 -6 -68 35 -68 13 0 23 5 23 10 0 6 -9 10 -20 10
-21 0 -28 24 -10 35 6 3 10 10 10 16 0 13 -24 11 -38 -3z"/>
<path d="M1104 1056 c-3 -8 -4 -23 -2 -33 3 -11 6 -6 9 15 6 34 2 42 -7 18z"/>
<path d="M1836 1039 c-8 -44 -8 -149 2 -149 4 0 8 41 9 90 0 50 0 90 -2 90 -1
0 -5 -14 -9 -31z"/>
<path d="M215 1033 c-4 -15 -8 -34 -11 -40 -2 -7 3 -13 11 -13 8 0 15 5 15 10
0 6 11 8 26 4 25 -6 25 -6 11 27 -18 44 -44 50 -52 12z"/>
<path d="M290 1020 c0 -38 2 -40 31 -40 20 0 29 4 26 13 -2 6 -11 11 -21 9
-12 -2 -16 5 -16 28 0 16 -4 30 -10 30 -5 0 -10 -18 -10 -40z"/>
<path d="M123 1013 c8 -49 24 -64 43 -39 15 21 19 76 6 76 -4 0 -13 -5 -20
-12 -9 -9 -12 -9 -12 0 0 7 -5 12 -11 12 -8 0 -10 -13 -6 -37z"/>
<path d="M2924 1035 c-9 -23 2 -43 26 -47 28 -4 30 -22 3 -26 -30 -4 -29 -22
1 -22 52 0 59 61 7 68 -11 2 -21 8 -21 14 0 5 7 8 15 4 9 -3 15 0 15 9 0 20
-39 19 -46 0z"/>
<path d="M1540 1011 c0 -17 5 -31 10 -31 6 0 10 11 10 24 0 14 -4 28 -10 31
-6 4 -10 -7 -10 -24z"/>
<path d="M1671 1014 c0 -11 3 -14 6 -6 3 7 2 16 -1 19 -3 4 -6 -2 -5 -13z"/>
<path d="M1802 995 c0 -16 2 -22 5 -12 2 9 2 23 0 30 -3 6 -5 -1 -5 -18z"/>
<path d="M1611 994 c0 -11 3 -14 6 -6 3 7 2 16 -1 19 -3 4 -6 -2 -5 -13z"/>
<path d="M2000 990 c0 -5 5 -10 11 -10 5 0 7 5 4 10 -3 6 -8 10 -11 10 -2 0
-4 -4 -4 -10z"/>
<path d="M1305 960 c-4 -17 -5 -34 -2 -36 2 -3 7 10 11 27 8 42 0 50 -9 9z"/>
<path d="M1647 928 c-26 -102 -30 -128 -18 -128 6 0 11 3 12 8 0 4 2 16 4 27
1 11 6 38 9 60 3 22 8 52 12 68 11 53 -3 26 -19 -35z"/>
<path d="M1887 936 c-4 -27 -6 -67 -6 -90 1 -31 4 -25 11 29 10 81 6 135 -5
61z"/>
<path d="M2002 945 c0 -16 2 -22 5 -12 2 9 2 23 0 30 -3 6 -5 -1 -5 -18z"/>
<path d="M187 923 c-4 -3 -7 -25 -7 -49 0 -38 3 -42 28 -47 32 -6 56 10 46 32
-4 9 -6 25 -6 36 1 28 -41 48 -61 28z"/>
<path d="M417 914 c-4 -4 -7 -17 -7 -28 -1 -20 -2 -20 -14 -3 -21 27 -36 20
-36 -16 0 -33 1 -34 38 -33 34 2 37 4 40 35 3 33 -8 57 -21 45z"/>
<path d="M464 906 c-3 -8 -4 -27 -2 -43 2 -22 8 -28 27 -28 31 0 52 33 40 63
-10 25 -56 31 -65 8z m46 -31 c0 -8 -4 -15 -10 -15 -5 0 -10 7 -10 15 0 8 5
15 10 15 6 0 10 -7 10 -15z"/>
<path d="M1723 865 c-5 -31 -6 -58 -3 -60 8 -5 25 104 17 111 -2 2 -8 -21 -14
-51z"/>
<path d="M276 875 c-7 -35 2 -64 11 -37 3 6 11 12 18 12 7 0 15 -6 18 -12 10
-28 19 4 11 34 -7 22 -17 34 -31 36 -17 3 -22 -4 -27 -33z"/>
<path d="M1540 881 c0 -17 4 -32 9 -36 11 -6 19 22 13 48 -7 28 -22 20 -22
-12z"/>
<path d="M1993 875 c0 -22 2 -30 4 -17 2 12 2 30 0 40 -3 9 -5 -1 -4 -23z"/>
<path d="M407 744 c-4 -4 -74 -6 -157 -5 -84 1 -150 -2 -150 -7 0 -5 -13 -12
-29 -15 -21 -5 -29 -12 -28 -25 1 -16 5 -18 22 -12 15 6 424 26 697 34 21 1
37 5 35 10 -1 5 -77 10 -172 11 -93 1 -179 5 -190 9 -11 4 -24 4 -28 0z"/>
<path d="M1105 740 c-15 -7 -10 -9 23 -9 23 -1 42 4 42 9 0 12 -37 12 -65 0z"/>
<path d="M1205 740 c-4 -6 11 -10 39 -10 25 0 48 5 51 10 4 6 -11 10 -39 10
-25 0 -48 -4 -51 -10z"/>
<path d="M1358 743 c12 -2 32 -2 45 0 12 2 2 4 -23 4 -25 0 -35 -2 -22 -4z"/>
<path d="M856 733 c-29 -8 -1 -20 34 -15 17 2 30 8 30 13 0 9 -31 10 -64 2z"/>
<path d="M3026 713 c-16 -3 -30 -12 -33 -22 -3 -13 -12 -16 -34 -13 -27 4 -35
-4 -30 -32 1 -4 -2 -13 -8 -20 -13 -16 -8 -59 7 -64 6 -2 12 3 12 11 0 19 25
28 39 14 20 -20 25 3 7 33 -18 31 -8 40 23 21 27 -17 52 6 49 45 -1 18 -2 33
-3 33 0 -1 -13 -4 -29 -6z"/>
<path d="M975 580 c3 -5 8 -10 11 -10 2 0 4 5 4 10 0 6 -5 10 -11 10 -5 0 -7
-4 -4 -10z"/>
<path d="M498 493 c7 -3 16 -2 19 1 4 3 -2 6 -13 5 -11 0 -14 -3 -6 -6z"/>
<path d="M2597 463 c-13 -12 -7 -61 9 -74 11 -9 20 -10 32 -2 12 7 22 7 33 0
42 -26 68 33 30 67 -16 14 -23 15 -41 6 -16 -9 -25 -9 -33 -1 -13 13 -21 14
-30 4z m33 -43 c0 -11 -4 -20 -10 -20 -5 0 -10 9 -10 20 0 11 5 20 10 20 6 0
10 -9 10 -20z m65 2 c0 -18 -20 -15 -23 4 -3 10 1 15 10 12 7 -3 13 -10 13
-16z"/>
<path d="M1533 443 c-18 -7 -16 -42 2 -49 8 -4 13 -10 10 -15 -3 -4 -12 -6
-20 -2 -9 3 -15 -1 -15 -11 0 -22 46 -21 59 1 5 10 5 26 0 40 -5 15 -5 23 2
23 6 0 7 5 4 10 -7 11 -22 12 -42 3z"/>
<path d="M1882 443 c-42 -16 -32 -93 13 -93 28 0 46 30 37 62 -5 21 -31 37
-50 31z m28 -48 c0 -8 -7 -15 -15 -15 -16 0 -20 12 -8 23 11 12 23 8 23 -8z"/>
<path d="M2554 418 c3 -17 8 -34 11 -36 11 -11 16 9 10 37 -9 42 -29 41 -21
-1z"/>
<path d="M1810 389 c0 -24 4 -38 10 -34 6 3 10 22 10 41 0 19 -4 34 -10 34 -5
0 -10 -18 -10 -41z"/>
<path d="M1240 375 c0 -25 5 -45 10 -45 6 0 10 20 10 45 0 25 -4 45 -10 45 -5
0 -10 -20 -10 -45z"/>
<path d="M2700 295 c-16 -19 -9 -66 12 -79 13 -8 23 -8 38 2 13 8 20 9 20 1 0
-6 6 -9 13 -6 12 4 11 46 -2 60 -11 11 -41 -3 -41 -19 0 -16 -16 -19 -25 -5
-3 5 2 16 10 24 19 19 19 23 1 30 -8 3 -20 0 -26 -8z"/>
<path d="M2649 295 c-1 -6 -1 -19 0 -30 1 -18 1 -19 -9 -2 -18 28 -40 21 -40
-12 0 -33 18 -51 30 -31 5 9 9 9 14 1 4 -6 14 -11 22 -11 12 0 13 8 8 38 -6
36 -23 66 -25 47z"/>
<path d="M2344 265 c-8 -21 8 -77 21 -75 6 1 9 7 7 12 -1 6 5 16 15 24 14 10
16 17 7 31 -15 24 -43 29 -50 8z"/>
<path d="M2502 271 c-8 -5 -12 -21 -10 -37 3 -27 6 -29 51 -30 46 -2 47 -1 45
28 -1 16 -8 34 -15 40 -10 8 -13 4 -13 -19 0 -23 -5 -29 -25 -31 -16 -1 -25 3
-25 13 0 8 7 15 16 15 9 0 14 5 12 12 -6 16 -20 20 -36 9z"/>
<path d="M586 262 c-3 -6 8 -12 24 -14 19 -3 29 -1 27 6 -5 14 -43 20 -51 8z"/>
<path d="M650 259 c0 -5 5 -7 10 -4 6 3 10 8 10 11 0 2 -4 4 -10 4 -5 0 -10
-5 -10 -11z"/>
<path d="M2287 264 c-9 -10 -9 -41 1 -47 4 -2 1 -2 -5 -1 -22 6 -14 -24 7 -31
29 -9 54 13 38 33 -7 8 -13 22 -13 30 0 17 -17 26 -28 16z"/>
<path d="M2417 263 c-11 -10 -8 -73 3 -73 6 0 10 5 10 11 0 7 10 9 25 5 29 -7
30 -5 10 34 -15 29 -34 38 -48 23z"/>
<path d="M1197 252 c-25 -5 -21 -22 6 -23 l22 0 -22 -9 c-26 -11 -31 -30 -8
-30 9 0 15 -9 15 -25 0 -14 -4 -25 -10 -25 -5 0 -10 -6 -10 -14 0 -11 10 -14
37 -13 35 3 62 27 29 27 -11 0 -16 9 -16 26 0 19 4 25 14 21 10 -4 13 -1 9 9
-6 16 13 44 32 44 6 0 12 -7 12 -15 0 -8 -4 -15 -9 -15 -4 0 -8 -18 -8 -40 0
-22 5 -40 10 -40 6 0 10 10 10 22 l0 21 25 -23 c14 -13 28 -21 31 -17 11 10
-7 88 -19 84 -7 -2 -11 -12 -9 -22 2 -10 -1 -14 -8 -10 -6 4 -9 20 -6 36 2 18
0 30 -7 31 -24 3 -104 3 -120 0z"/>
<path d="M1567 243 c-11 -10 -8 -103 3 -103 6 0 10 8 10 17 0 14 4 13 23 -5
30 -28 44 -16 16 14 -13 14 -17 24 -10 29 15 9 14 21 -5 39 -17 17 -27 20 -37
9z"/>
<path d="M1857 243 c-11 -11 -8 -58 5 -71 16 -16 55 -15 62 1 5 10 7 10 12 0
8 -18 24 -16 24 2 0 8 5 15 10 15 6 0 13 -7 16 -15 12 -30 25 -14 22 27 -3 38
-28 69 -28 34 0 -20 -9 -20 -32 1 -17 15 -18 15 -18 -8 l0 -23 -16 22 c-15 21
-44 29 -57 15z m43 -44 c0 -20 -15 -26 -25 -9 -9 15 3 43 15 35 5 -3 10 -15
10 -26z"/>
<path d="M2028 245 c-10 -10 7 -78 21 -83 11 -4 13 3 8 28 -4 18 -7 39 -7 46
0 14 -12 19 -22 9z"/>
<path d="M2072 238 c-17 -17 -15 -35 8 -58 24 -24 50 -26 50 -5 0 8 -9 15 -20
15 -23 0 -27 28 -5 36 8 4 15 10 15 15 0 13 -34 11 -48 -3z"/>
<path d="M1492 233 c-20 -4 -22 -9 -17 -41 10 -58 13 -64 37 -60 23 3 23 24 1
22 -21 -3 -15 14 7 21 27 9 25 25 -2 26 -17 1 -19 2 -5 6 16 4 26 35 10 32 -5
-1 -18 -4 -31 -6z"/>
<path d="M1716 225 c-9 -25 -7 -75 3 -75 5 0 11 6 14 13 3 9 9 9 25 0 31 -18
35 0 9 38 -26 38 -42 46 -51 24z"/>
<path d="M1780 230 c0 -5 4 -10 9 -10 5 0 11 -12 13 -27 2 -16 8 -26 13 -23 6
3 9 15 7 28 -1 12 2 22 8 22 5 0 10 5 10 10 0 6 -13 10 -30 10 -16 0 -30 -4
-30 -10z"/>
<path d="M1412 222 c-18 -2 -32 -8 -30 -13 2 -6 8 -10 13 -9 6 0 12 -13 15
-30 6 -38 26 -36 24 3 -1 17 3 27 12 27 15 0 19 16 7 22 -5 2 -23 2 -41 0z"/>
<path d="M602 208 c-20 -20 -14 -27 20 -26 18 1 34 -4 36 -11 4 -13 51 -36 66
-32 5 1 16 -1 24 -4 12 -4 12 -8 1 -23 -12 -15 -12 -16 2 -5 9 7 19 9 23 5 4
-4 6 -2 4 4 -2 6 6 20 17 30 12 11 16 16 10 12 -6 -4 -17 -3 -25 2 -23 15 -36
12 -15 -3 11 -9 14 -16 8 -20 -6 -4 -16 0 -23 8 -7 8 -25 15 -41 15 -16 0 -29
4 -29 10 0 5 6 7 13 4 8 -3 13 5 15 21 2 27 -19 34 -47 16 -9 -6 -22 -6 -31
-1 -11 6 -21 5 -28 -2z"/>
<path d="M730 200 c-12 -8 -11 -10 7 -10 12 0 25 5 28 10 8 13 -15 13 -35 0z"/>
<path d="M605 160 c-3 -5 -1 -10 4 -10 6 0 11 5 11 10 0 6 -2 10 -4 10 -3 0
-8 -4 -11 -10z"/>
<path d="M850 160 c-13 -8 -12 -10 3 -10 9 0 17 5 17 10 0 12 -1 12 -20 0z"/>
<path d="M665 60 c3 -5 14 -10 23 -10 15 0 15 2 2 10 -20 13 -33 13 -25 0z"/>
<path d="M574 43 c5 -14 3 -23 -3 -23 -6 0 -11 5 -11 10 0 6 -8 10 -17 10 -16
-1 -16 -2 2 -12 19 -11 19 -11 0 -19 -15 -5 -12 -7 13 -6 17 0 32 4 32 9 0 5
8 4 18 -1 14 -8 18 -5 19 12 2 17 0 18 -7 7 -7 -12 -13 -10 -31 10 -21 24 -21
24 -15 3z"/>
<path d="M280 20 c0 -11 5 -20 10 -20 6 0 10 9 10 20 0 11 -4 20 -10 20 -5 0
-10 -9 -10 -20z"/>
<path d="M5 19 c-4 -6 -5 -12 -2 -15 2 -3 7 2 10 11 7 17 1 20 -8 4z"/>
<path d="M645 10 c-3 -5 -1 -10 4 -10 6 0 11 5 11 10 0 6 -2 10 -4 10 -3 0 -8
-4 -11 -10z"/>
<path d="M788 3 c7 -3 16 -2 19 1 4 3 -2 6 -13 5 -11 0 -14 -3 -6 -6z"/>
</g>
</svg>
