<?xml version="1.0" standalone="no"?>
<!DOCTYPE svg PUBLIC "-//W3C//DTD SVG 20010904//EN"
 "http://www.w3.org/TR/2001/REC-SVG-20010904/DTD/svg10.dtd">
<svg version="1.0" xmlns="http://www.w3.org/2000/svg"
 width="320.000000pt" height="240.000000pt" viewBox="0 0 320.000000 240.000000"
 preserveAspectRatio="xMidYMid meet">

<g transform="translate(0.000000,240.000000) scale(0.100000,-0.100000)"
fill="#000000" stroke="none">
<path d="M955 2110 c-3 -5 1 -10 10 -10 9 0 13 5 10 10 -3 6 -8 10 -10 10 -2
0 -7 -4 -10 -10z"/>
<path d="M1070 2093 c0 -13 29 -38 35 -31 3 3 -4 13 -15 23 -11 10 -20 13 -20
8z"/>
<path d="M1470 2090 c0 -5 5 -10 10 -10 6 0 10 5 10 10 0 6 -4 10 -10 10 -5 0
-10 -4 -10 -10z"/>
<path d="M1560 2092 c0 -5 7 -13 16 -16 10 -4 14 -1 12 6 -5 15 -28 23 -28 10z"/>
<path d="M840 2079 c0 -5 5 -7 10 -4 6 3 10 8 10 11 0 2 -4 4 -10 4 -5 0 -10
-5 -10 -11z"/>
<path d="M1680 2071 c0 -11 29 -35 35 -29 10 9 -7 38 -21 38 -8 0 -14 -4 -14
-9z"/>
<path d="M1270 2035 c-11 -13 -8 -15 14 -15 24 0 26 -3 21 -22 -4 -13 -9 -31
-12 -41 -4 -17 -6 -17 -22 -3 -10 9 -21 13 -24 9 -11 -10 -8 -53 3 -53 6 0 10
-8 11 -17 0 -15 2 -15 16 4 13 20 17 21 30 7 14 -13 14 -17 0 -32 -8 -9 -17
-26 -19 -37 -2 -12 -13 -21 -26 -23 -17 -3 -22 -10 -22 -31 0 -35 24 -60 34
-35 3 8 6 24 6 35 0 28 99 149 122 149 10 0 18 6 18 14 0 26 -19 27 -35 2 -23
-34 -51 -39 -69 -11 -14 21 -13 25 19 63 19 21 31 42 28 46 -12 12 -81 6 -93
-9z"/>
<path d="M1192 2015 c12 -27 28 -34 28 -12 0 14 -20 37 -32 37 -4 0 -2 -11 4
-25z"/>
<path d="M1821 1998 c13 -17 25 -26 27 -20 5 17 -17 52 -34 52 -12 0 -11 -6 7
-32z"/>
<path d="M1580 1980 c0 -5 9 -10 21 -10 11 0 17 5 14 10 -3 6 -13 10 -21 10
-8 0 -14 -4 -14 -10z"/>
<path d="M623 1970 c-13 -5 -23 -17 -23 -26 0 -15 4 -14 28 7 15 13 29 25 31
27 10 6 -16 0 -36 -8z"/>
<path d="M1508 1973 c7 -3 16 -2 19 1 4 3 -2 6 -13 5 -11 0 -14 -3 -6 -6z"/>
<path d="M1681 1961 c-9 -6 -8 -11 3 -20 21 -18 37 -10 22 11 -7 10 -17 13
-25 9z"/>
<path d="M951 1946 c-14 -16 4 -26 50 -26 28 0 69 -30 69 -50 0 -5 7 -10 15
-10 9 0 12 6 8 18 -10 27 -35 52 -52 52 -9 0 -29 7 -45 15 -34 18 -31 18 -45
1z"/>
<path d="M1900 1929 c0 -15 7 -32 15 -39 12 -10 15 -9 15 7 0 10 -7 28 -15 39
-14 18 -14 18 -15 -7z"/>
<path d="M1740 1923 c0 -23 15 -39 24 -25 3 5 -1 18 -9 28 -14 18 -14 18 -15
-3z"/>
<path d="M800 1915 c-10 -12 -10 -19 -2 -27 13 -13 42 6 42 28 0 19 -24 18
-40 -1z"/>
<path d="M597 1894 c-10 -10 -9 -44 2 -44 13 0 23 32 13 42 -5 5 -11 5 -15 2z"/>
<path d="M730 1848 c-11 -18 -19 -43 -18 -55 2 -12 -4 -28 -14 -35 -12 -10
-18 -36 -22 -101 -3 -48 -8 -92 -11 -98 -10 -15 82 -97 123 -110 20 -6 41 -15
47 -20 5 -5 25 -9 45 -8 l35 1 -35 15 c-19 9 -44 17 -55 18 -40 5 -113 64
-125 100 -6 19 -9 39 -5 45 3 5 32 10 63 10 53 -1 59 -3 82 -35 24 -33 56 -53
67 -42 9 10 -8 27 -27 27 -16 0 -30 18 -30 41 0 5 9 9 20 9 11 0 20 -4 20 -9
0 -18 43 -23 82 -10 32 10 44 10 60 0 14 -9 23 -9 33 -1 7 6 31 13 54 16 37 4
41 2 56 -26 18 -35 38 -35 43 -2 4 24 37 31 44 10 3 -9 10 -7 23 6 19 18 19
18 28 -8 11 -33 23 -33 31 -1 6 22 12 25 52 25 30 0 46 -5 50 -15 9 -22 24
-18 24 5 0 27 24 25 43 -4 29 -44 108 -42 122 3 5 18 10 19 27 10 15 -8 26 -8
42 0 11 6 48 13 81 15 33 2 63 5 68 5 4 1 7 8 7 16 0 12 -15 15 -74 15 -50 0
-76 4 -79 13 -4 8 -8 9 -14 1 -17 -23 -53 -23 -71 1 -30 37 -87 37 -104 0 -14
-30 -48 -34 -48 -5 0 25 -20 26 -27 1 -5 -18 -45 -33 -67 -25 -7 3 -10 24 -7
50 2 32 0 44 -8 40 -6 -4 -11 -25 -11 -47 l0 -39 -70 0 c-63 0 -70 2 -70 20 0
28 -19 25 -30 -5 -8 -22 -15 -25 -60 -25 -32 0 -51 4 -52 13 0 6 -2 18 -2 26
-1 8 -7 16 -13 18 -9 3 -11 -4 -7 -26 5 -26 3 -31 -12 -31 -11 0 -29 16 -42
35 -27 42 -51 44 -96 10 -28 -21 -35 -23 -40 -10 -7 19 -26 20 -26 1 0 -10
-17 -17 -56 -22 -63 -7 -82 2 -65 34 6 11 11 32 11 46 0 14 9 31 21 40 14 10
19 21 15 32 -4 10 0 24 10 35 16 17 12 39 -7 39 -5 0 -18 -15 -29 -32z m237
-194 c7 -19 -9 -37 -30 -32 -11 2 -12 9 -6 26 10 26 27 29 36 6z m628 -19 c0
-14 -8 -21 -27 -23 -22 -3 -28 1 -28 17 0 10 6 22 13 24 23 10 42 2 42 -18z"/>
<path d="M1195 1867 c-4 -8 -5 -26 -3 -39 4 -23 4 -23 18 5 10 21 11 30 2 39
-8 8 -13 7 -17 -5z"/>
<path d="M1810 1862 c0 -11 7 -25 15 -32 12 -10 15 -9 15 8 0 11 -7 25 -15 32
-12 10 -15 9 -15 -8z"/>
<path d="M785 1849 c-10 -15 3 -25 16 -12 7 7 7 13 1 17 -6 3 -14 1 -17 -5z"/>
<path d="M1140 1848 c0 -7 8 -22 16 -33 15 -19 15 -19 12 9 -3 29 -28 51 -28
24z"/>
<path d="M1360 1805 c0 -19 5 -35 10 -35 6 0 10 16 10 35 0 19 -4 35 -10 35
-5 0 -10 -16 -10 -35z"/>
<path d="M1957 1815 c3 -14 10 -25 15 -25 13 0 6 43 -8 47 -7 2 -10 -6 -7 -22z"/>
<path d="M1557 1784 c-16 -16 -5 -24 32 -24 22 0 43 -4 46 -10 11 -18 23 -11
18 10 -3 12 -14 20 -27 20 -11 0 -30 3 -41 6 -11 3 -24 2 -28 -2z"/>
<path d="M892 1771 c-10 -6 -7 -10 13 -15 14 -4 30 -4 35 -1 9 6 42 -9 73 -34
15 -12 17 -12 17 1 0 36 -102 73 -138 49z"/>
<path d="M1173 1765 c-15 -16 -17 -65 -4 -65 6 0 13 5 16 10 5 8 12 7 23 -2
13 -11 14 -10 8 17 -10 42 -27 57 -43 40z"/>
<path d="M1515 1769 c-4 -6 -5 -13 -2 -16 7 -7 27 6 27 18 0 12 -17 12 -25 -2z"/>
<path d="M1870 1751 c0 -16 5 -33 10 -36 6 -4 10 6 10 24 0 16 -4 33 -10 36
-6 4 -10 -6 -10 -24z"/>
<path d="M560 1746 c0 -14 5 -28 10 -31 6 -4 10 7 10 24 0 17 -4 31 -10 31 -5
0 -10 -11 -10 -24z"/>
<path d="M862 1738 c-21 -21 -15 -40 11 -32 29 9 31 10 24 29 -8 18 -19 19
-35 3z"/>
<path d="M1450 1725 c-7 -8 -10 -18 -7 -21 11 -11 59 6 54 19 -6 18 -32 20
-47 2z"/>
<path d="M1670 1726 c0 -15 18 -31 26 -23 7 7 -7 37 -17 37 -5 0 -9 -6 -9 -14z"/>
<path d="M1246 1711 c-8 -12 3 -41 15 -41 5 0 9 11 9 25 0 25 -14 34 -24 16z"/>
<path d="M1887 1680 c-5 -14 -12 -43 -24 -102 -3 -15 -14 -35 -24 -44 -23 -20
-26 -56 -5 -48 8 3 18 18 21 34 3 16 13 34 21 41 8 6 14 20 14 31 0 11 4 28
10 38 6 11 6 27 1 42 -7 17 -10 19 -14 8z"/>
<path d="M1981 1660 c-7 -21 -8 -37 -2 -43 14 -14 32 28 23 54 -8 22 -9 21
-21 -11z"/>
<path d="M550 1598 c0 -7 8 -22 16 -33 15 -19 15 -19 12 9 -3 29 -28 51 -28
24z"/>
<path d="M1007 1574 c-8 -8 1 -24 14 -24 5 0 9 7 9 15 0 15 -12 20 -23 9z"/>
<path d="M1660 1569 c0 -5 5 -7 10 -4 6 3 10 8 10 11 0 2 -4 4 -10 4 -5 0 -10
-5 -10 -11z"/>
<path d="M1476 1556 c7 -19 38 -22 32 -3 -3 6 -12 13 -21 15 -12 2 -15 -1 -11
-12z"/>
<path d="M937 1554 c-10 -11 3 -24 24 -24 10 0 19 7 19 15 0 15 -31 21 -43 9z"/>
<path d="M1277 1508 c7 -55 9 -56 34 -29 l21 22 -23 25 c-32 34 -38 30 -32
-18z"/>
<path d="M1545 1540 c-3 -5 1 -13 10 -16 22 -9 29 1 11 15 -10 8 -16 9 -21 1z"/>
<path d="M1610 1534 c0 -9 7 -14 17 -12 25 5 28 28 4 28 -12 0 -21 -6 -21 -16z"/>
<path d="M1160 1521 c-7 -13 -7 -22 0 -26 15 -9 30 4 30 26 0 25 -16 25 -30 0z"/>
<path d="M1936 1515 c-9 -13 -16 -34 -16 -46 0 -21 1 -21 19 -5 19 17 34 76
20 76 -3 0 -14 -11 -23 -25z"/>
<path d="M600 1478 c0 -15 24 -48 36 -48 10 0 3 20 -16 41 -15 19 -19 21 -20
7z"/>
<path d="M1768 1478 c-16 -5 -28 -16 -28 -24 0 -19 13 -18 41 5 29 24 23 31
-13 19z"/>
<path d="M1093 1473 c-20 -8 -15 -33 6 -33 16 0 31 18 31 36 0 5 -21 4 -37 -3z"/>
<path d="M1220 1467 c0 -18 28 -42 37 -33 9 8 -9 38 -25 44 -7 2 -12 -3 -12
-11z"/>
<path d="M1360 1450 c14 -27 108 -72 133 -64 17 5 9 11 -39 31 -32 14 -64 31
-70 39 -18 22 -37 18 -24 -6z"/>
<path d="M954 1439 c-7 -12 12 -29 33 -29 19 0 27 21 12 31 -19 12 -36 11 -45
-2z"/>
<path d="M1212 1418 c-18 -18 -15 -41 4 -34 9 3 18 6 20 6 2 0 4 9 4 20 0 23
-10 26 -28 8z"/>
<path d="M1647 1423 c-13 -12 -7 -23 12 -23 10 0 24 7 31 15 10 13 9 15 -12
15 -14 0 -28 -3 -31 -7z"/>
<path d="M1811 1404 c-33 -24 -11 -43 23 -20 28 18 34 36 13 36 -7 0 -23 -7
-36 -16z"/>
<path d="M700 1401 c0 -18 32 -41 56 -41 32 0 30 4 -10 29 -37 23 -46 25 -46
12z"/>
<path d="M1537 1403 c-22 -22 14 -37 49 -21 23 11 24 13 7 19 -24 10 -48 11
-56 2z"/>
<path d="M1330 1375 c0 -15 29 -35 51 -35 7 0 2 11 -11 25 -27 28 -40 32 -40
10z"/>
<path d="M1108 1372 c-24 -5 -23 -32 1 -32 24 0 47 26 29 32 -7 2 -21 3 -30 0z"/>
<path d="M810 1355 c0 -4 8 -13 17 -20 15 -12 12 -18 -32 -67 -49 -54 -63 -74
-87 -133 -11 -27 -13 -19 -19 85 -3 63 -7 116 -8 118 0 1 -8 2 -16 2 -17 0
-16 25 -17 -387 0 -161 3 -297 7 -303 5 -8 28 -10 69 -6 129 12 444 10 460 -3
30 -25 36 -2 36 150 l0 149 33 0 c49 0 82 11 65 21 -7 5 -25 9 -40 9 -47 0
-58 9 -58 51 0 21 2 39 5 39 2 0 23 -20 45 -44 23 -25 54 -48 71 -51 34 -8 32
1 29 -172 l-2 -133 164 -2 c198 -2 207 -2 283 7 83 9 95 14 73 26 -16 9 -18
26 -18 132 0 75 4 127 11 134 8 8 8 13 0 17 -6 4 -11 12 -11 18 0 6 18 -10 40
-35 41 -47 71 -64 91 -52 7 5 5 13 -6 25 -16 18 -15 19 27 24 23 3 58 7 75 8
26 3 31 6 23 18 -7 11 -12 12 -18 3 -5 -8 -29 -8 -95 0 -84 10 -88 11 -108 44
-12 19 -20 35 -18 37 2 2 13 8 24 14 19 10 19 11 -5 20 -23 9 -26 16 -35 107
-10 97 -10 98 -38 101 -25 2 -27 0 -21 -24 3 -15 7 -33 10 -39 7 -24 -17 -13
-76 34 -38 31 -56 51 -50 57 17 17 11 26 -15 26 -18 0 -25 -5 -25 -20 0 -11
-7 -21 -15 -21 -27 -2 -29 -4 -72 -43 -24 -22 -64 -71 -90 -109 l-48 -71 -6
84 c-4 47 -4 95 -2 107 7 29 -24 37 -128 31 -44 -3 -82 -1 -85 4 -3 4 -12 8
-20 8 -10 0 -14 -14 -14 -55 l0 -54 -47 50 c-66 71 -113 93 -177 84 -68 -9
-87 -9 -113 0 -13 4 -23 4 -23 0z m230 -51 c54 -27 140 -146 140 -192 0 -16
-6 -22 -22 -22 -27 0 -55 -16 -46 -26 4 -3 18 -6 32 -6 14 0 26 -6 28 -12 6
-21 3 -334 -4 -341 -3 -3 -112 -9 -242 -12 l-236 -6 0 119 0 119 73 -3 c66 -3
110 8 96 23 -4 3 -41 6 -83 6 -41 0 -78 5 -81 10 -4 5 -1 25 6 44 10 27 19 35
43 37 37 4 48 28 12 28 -33 0 -33 11 3 85 31 67 115 151 160 161 14 3 31 7 36
9 14 4 56 -6 85 -21z m339 -111 c-1 -49 -6 -94 -12 -101 -6 -8 -7 -16 -1 -22
6 -6 8 -25 6 -44 -3 -29 -7 -33 -25 -28 -24 5 -77 50 -77 65 0 4 -11 23 -24
40 -17 23 -26 51 -30 99 -8 77 -11 74 101 77 l63 1 -1 -87z m349 54 c54 -49
98 -147 67 -147 -21 0 -18 -11 10 -39 24 -23 35 -48 15 -36 -5 3 -10 1 -10 -4
0 -6 5 -11 10 -11 6 0 10 -5 10 -11 0 -5 -4 -8 -9 -4 -5 3 -12 1 -16 -5 -3 -5
-22 -10 -41 -10 -19 0 -34 -4 -34 -10 0 -14 35 -30 65 -30 14 0 28 -6 30 -12
8 -24 10 -218 3 -218 -5 0 -8 10 -9 23 l0 22 -11 -22 c-9 -19 -19 -23 -57 -23
-25 0 -110 -2 -188 -4 l-143 -5 0 119 0 119 37 3 c43 4 55 25 19 34 -14 3 -26
9 -26 13 0 11 42 76 54 83 7 5 5 12 -8 21 -18 13 -17 16 15 64 18 28 56 67 83
87 57 42 91 43 134 3z"/>
<path d="M897 1073 c-59 -6 -33 -23 36 -23 69 0 104 13 65 23 -23 7 -33 7
-101 0z"/>
<path d="M962 948 c5 -15 87 -18 91 -3 1 6 -20 11 -47 13 -36 2 -47 0 -44 -10z"/>
<path d="M1588 1093 c-31 -8 -19 -23 20 -24 74 -3 114 10 67 21 -35 9 -63 10
-87 3z"/>
<path d="M1627 983 c-56 -6 -41 -27 21 -31 40 -2 52 0 52 11 0 12 -27 32 -33
25 -1 -1 -19 -3 -40 -5z"/>
<path d="M1475 1340 c-9 -15 34 -32 62 -25 14 3 22 10 17 14 -14 13 -73 21
-79 11z"/>
<path d="M1953 1103 c-27 -5 -30 -18 -7 -27 24 -9 80 -7 174 8 l85 14 -65 1
c-36 1 -87 3 -115 5 -27 2 -60 2 -72 -1z"/>
<path d="M2243 1045 c-30 -21 -40 -78 -19 -110 20 -31 50 -32 70 -3 17 24 17
24 34 -14 13 -31 32 -37 32 -12 0 12 5 14 18 9 35 -15 63 -17 77 -5 17 14 20
56 4 66 -6 3 -8 16 -5 27 6 25 -10 47 -34 47 -25 0 -52 -34 -44 -55 11 -27
-16 -37 -36 -13 -21 27 -70 18 -70 -12 0 -12 -7 -20 -16 -20 -11 0 -14 6 -8
23 7 24 22 37 42 37 15 0 16 22 0 38 -15 15 -19 15 -45 -3z"/>
<path d="M1914 589 c-3 -6 -1 -16 5 -22 13 -13 15 -77 3 -77 -4 0 -18 20 -30
46 -12 25 -27 42 -32 39 -13 -8 -13 -112 -1 -120 5 -3 12 -1 16 5 4 6 12 6 24
-2 24 -15 49 -4 60 24 l8 23 7 -23 c11 -33 56 -41 74 -14 21 32 32 27 25 -12
-3 -21 -1 -36 7 -41 17 -10 27 4 34 50 9 55 -8 76 -51 63 -18 -5 -33 -15 -33
-23 0 -17 -16 -20 -25 -4 -4 6 2 21 14 33 23 24 29 60 9 54 -7 -3 -22 -19 -34
-36 l-21 -31 -12 40 c-11 38 -33 51 -47 28z"/>
<path d="M1276 548 c-19 -26 -22 -138 -5 -138 6 0 13 9 16 20 7 27 29 25 49
-5 16 -25 44 -34 44 -15 0 6 -7 25 -16 42 -13 25 -14 35 -4 53 29 54 -49 93
-84 43z m50 -33 c-25 -19 -36 -19 -36 0 0 10 10 15 28 15 26 -1 26 -1 8 -15z"/>
<path d="M1432 557 c-13 -15 -29 -127 -18 -127 3 0 15 6 26 12 16 10 24 10 42
-1 16 -10 23 -11 26 -2 3 9 7 9 17 1 20 -16 79 -8 83 11 2 12 -4 15 -26 11
-40 -5 -49 14 -23 49 25 34 27 52 4 47 -10 -2 -27 -20 -39 -41 l-21 -38 -12
30 c-19 44 -45 65 -59 48z"/>
<path d="M1668 563 c-30 -5 -38 -30 -13 -39 8 -4 18 -24 21 -45 8 -49 29 -46
29 4 0 24 6 41 19 50 11 8 16 19 12 25 -7 12 -17 13 -68 5z"/>
<path d="M1785 537 c-9 -46 -3 -92 13 -92 6 0 12 3 12 8 0 4 0 32 0 62 0 61
-16 74 -25 22z"/>
<path d="M1150 551 c-23 -6 -25 -12 -28 -75 -2 -38 1 -72 5 -77 15 -14 88 5
91 24 3 16 -2 18 -32 16 -46 -4 -55 6 -17 19 39 14 41 42 4 43 l-28 1 28 10
c16 6 27 17 27 29 0 20 -8 22 -50 10z"/>
<path d="M1028 542 c-30 -3 -38 -7 -38 -23 0 -10 7 -19 15 -19 11 0 15 -11 15
-39 0 -22 3 -46 6 -55 11 -29 24 -5 24 44 0 39 4 52 20 60 41 22 20 37 -42 32z"/>
<path d="M933 528 c-6 -7 -9 -27 -7 -45 5 -45 -11 -49 -31 -7 -24 52 -40 38
-43 -39 -3 -68 10 -90 27 -45 l8 21 16 -23 c31 -44 57 -3 57 89 0 46 -12 67
-27 49z"/>
<path d="M733 523 c-30 -6 -32 -43 -3 -43 16 0 20 -7 20 -36 0 -23 -6 -41 -17
-49 -28 -21 -6 -35 45 -29 26 3 51 9 56 14 12 12 -2 30 -25 30 -15 0 -19 7
-19 36 0 23 6 41 17 49 35 26 -6 41 -74 28z"/>
<path d="M1097 283 c-10 -9 -8 -105 1 -120 14 -22 82 -7 82 18 0 5 -13 9 -30
9 -29 0 -30 1 -30 50 0 46 -7 60 -23 43z"/>
<path d="M1237 283 c-9 -8 -9 -86 -1 -107 11 -28 104 -19 104 10 0 10 -12 14
-40 14 l-40 0 0 45 c0 42 -7 54 -23 38z"/>
<path d="M958 269 c-13 -7 -18 -23 -18 -59 0 -27 3 -51 8 -53 13 -9 85 8 90
21 2 8 -9 12 -35 13 l-38 2 35 6 c22 4 36 12 38 24 2 9 -1 17 -6 17 -6 0 -8 9
-5 20 4 17 0 20 -23 20 -16 0 -37 -5 -46 -11z"/>
<path d="M745 240 c-8 -26 -9 -99 -1 -107 3 -3 15 2 26 12 19 18 21 18 54 0
29 -16 37 -17 50 -6 18 15 23 106 7 116 -15 9 -25 -16 -22 -52 3 -36 -5 -41
-35 -18 -10 8 -27 15 -37 15 -10 0 -15 5 -12 10 8 13 -3 50 -15 50 -5 0 -11
-9 -15 -20z"/>
</g>
</svg>
