<?xml version="1.0" encoding="UTF-8" standalone="no"?>
<!-- Created with Inkscape (http://www.inkscape.org/) -->

<svg
   xmlns:dc="http://purl.org/dc/elements/1.1/"
   xmlns:cc="http://creativecommons.org/ns#"
   xmlns:rdf="http://www.w3.org/1999/02/22-rdf-syntax-ns#"
   xmlns:svg="http://www.w3.org/2000/svg"
   xmlns="http://www.w3.org/2000/svg"
   xmlns:sodipodi="http://sodipodi.sourceforge.net/DTD/sodipodi-0.dtd"
   xmlns:inkscape="http://www.inkscape.org/namespaces/inkscape"
   width="472.14279"
   height="595.57141"
   id="svg2"
   version="1.1"
   inkscape:version="0.47pre4 r22446"
   sodipodi:docname="New document 1">
  <sodipodi:namedview
     id="base"
     pagecolor="#ffffff"
     bordercolor="#666666"
     borderopacity="1.0"
     inkscape:pageopacity="0.0"
     inkscape:pageshadow="2"
     inkscape:zoom="0.49497475"
     inkscape:cx="497.67788"
     inkscape:cy="271.40715"
     inkscape:document-units="px"
     inkscape:current-layer="layer1"
     showgrid="false"
     inkscape:window-width="1280"
     inkscape:window-height="726"
     inkscape:window-x="0"
     inkscape:window-y="25"
     inkscape:window-maximized="1"
     guidetolerance="20"
     objecttolerance="20"
     showguides="true"
     inkscape:guide-bbox="true"
     gridtolerance="10">
    <sodipodi:guide
       orientation="1,0"
       position="68.214238,395.35712"
       id="guide5363" />
    <sodipodi:guide
       orientation="0,1"
       position="536.42855,595.78571"
       id="guide5410" />
    <sodipodi:guide
       orientation="0,1"
       position="542.14284,469.35714"
       id="guide5412" />
    <sodipodi:guide
       orientation="1,0"
       position="403.92853,451.0714"
       id="guide5414" />
    <sodipodi:guide
       orientation="0,1"
       position="123.92853,439.64283"
       id="guide5416" />
    <sodipodi:guide
       orientation="0,1"
       position="133.92853,313.21426"
       id="guide5418" />
    <sodipodi:guide
       orientation="0,1"
       position="309.64281,282.49997"
       id="guide5442" />
    <sodipodi:guide
       orientation="0,1"
       position="318.92853,156.78569"
       id="guide5488" />
    <sodipodi:guide
       orientation="0,1"
       position="356.78567,126.0714"
       id="guide5490" />
    <sodipodi:guide
       orientation="0,1"
       position="263.92853,0.35711957"
       id="guide5523" />
    <sodipodi:guide
       orientation="1,0"
       position="186.78866,439.64283"
       id="guide5559" />
  </sodipodi:namedview>
  <defs
     id="defs4" />
  <metadata
     id="metadata7">
    <rdf:RDF>
      <cc:Work
         rdf:about="">
        <dc:format>image/svg+xml</dc:format>
        <dc:type
           rdf:resource="http://purl.org/dc/dcmitype/StillImage" />
        <dc:title></dc:title>
      </cc:Work>
    </rdf:RDF>
  </metadata>
  <g
     id="layer1"
     inkscape:groupmode="layer"
     inkscape:label="Layer 1"
     transform="translate(-154.6429,-255.00504)">
    <rect
       style="fill:#ff0000;fill-opacity:1;stroke:none"
       id="rect5313-2"
       width="68.214256"
       height="125.71428"
       x="558.57141"
       y="724.50507" />
    <rect
       style="fill:#ff0000;fill-opacity:1;stroke:none"
       id="rect5313"
       width="68.214272"
       height="126.0714"
       x="154.6429"
       y="724.50507" />
    <path
       id="path3657"
       title="sin(x)"
       d="m 222.85716,788.7908 c 1.13035,-0.64977 2.2607,-1.29955 3.39105,-1.949 1.13035,-0.64945 2.26071,-1.29857 3.39106,-1.94704 1.13035,-0.64847 2.2607,-1.29628 3.39105,-1.94311 1.13035,-0.64684 2.2607,-1.29269 3.39105,-1.93724 1.13035,-0.64455 2.26071,-1.28779 3.39106,-1.92941 1.13035,-0.64161 2.2607,-1.2816 3.39105,-1.91963 1.13035,-0.63803 2.2607,-1.27412 3.39105,-1.90793 1.13036,-0.63381 2.26071,-1.26535 3.39106,-1.8943 1.13035,-0.62895 2.2607,-1.25531 3.39105,-1.87877 1.13035,-0.62345 2.2607,-1.244 3.39105,-1.86134 1.13036,-0.61733 2.26071,-1.23145 3.39106,-1.84204 1.13035,-0.61059 2.2607,-1.21765 3.39105,-1.82088 1.13035,-0.60323 2.2607,-1.20263 3.39105,-1.7979 1.13036,-0.59526 2.26071,-1.18639 3.39106,-1.77309 1.13035,-0.5867 2.2607,-1.16897 3.39105,-1.74652 1.13035,-0.57754 2.2607,-1.15036 3.39105,-1.71817 1.13036,-0.5678 2.26071,-1.1306 3.39106,-1.68809 1.13035,-0.5575 2.2607,-1.1097 3.39105,-1.65633 1.13035,-0.54663 2.2607,-1.08768 3.39106,-1.62288 1.13035,-0.53521 2.2607,-1.06457 3.39105,-1.58781 1.13035,-0.52325 2.2607,-1.04038 3.39105,-1.55114 1.13035,-0.51076 2.2607,-1.01514 3.39106,-1.5129 1.13035,-0.49776 2.2607,-0.98889 3.39105,-1.47314 1.13035,-0.48426 2.2607,-0.96164 3.39105,-1.4319 1.13035,-0.47027 2.2607,-0.93342 3.39106,-1.38922 1.13035,-0.4558 2.2607,-0.90426 3.39105,-1.34514 1.13035,-0.44087 2.2607,-0.87418 3.39105,-1.29969 1.13035,-0.42552 2.26071,-0.84324 3.39106,-1.25295 1.13035,-0.40972 2.2607,-0.81144 3.39105,-1.20495 1.13035,-0.39351 2.2607,-0.77882 3.39105,-1.15572 1.13035,-0.37691 2.26071,-0.74542 3.39106,-1.10534 1.13035,-0.35993 2.2607,-0.71127 3.39105,-1.05385 1.13035,-0.34257 2.2607,-0.67639 3.39105,-1.00128 1.13035,-0.32489 2.26071,-0.64085 3.39106,-0.94772 1.13035,-0.30687 2.2607,-0.60465 3.39105,-0.89319 1.13035,-0.28855 2.2607,-0.56785 3.39105,-0.83778 1.13035,-0.26993 2.26071,-0.53047 3.39106,-0.78151 1.13035,-0.25104 2.2607,-0.49257 3.39105,-0.72446 1.13035,-0.2319 2.2607,-0.45417 3.39105,-0.66669 1.13036,-0.21252 2.26071,-0.41529 3.39106,-0.60823 1.13035,-0.19293 2.2607,-0.37601 3.39105,-0.54916 1.13035,-0.17315 2.2607,-0.33636 3.39105,-0.48955 1.13036,-0.15319 2.26071,-0.29636 3.39106,-0.42944 1.13035,-0.13308 2.2607,-0.25607 3.39105,-0.3689 1.13035,-0.11283 2.2607,-0.21551 3.39105,-0.30798 1.13036,-0.0925 2.26071,-0.17474 3.39106,-0.24676 1.13035,-0.072 2.2607,-0.1338 3.39105,-0.18529 1.13035,-0.0515 2.2607,-0.0927 3.39105,-0.12363 1.13036,-0.0309 2.26071,-0.0515 3.39106,-0.0618 1.13035,-0.0103 2.2607,-0.0103 3.39105,0 1.13035,0.0103 2.2607,0.0309 3.39106,0.0618 1.13035,0.0309 2.2607,0.0721 3.39105,0.12363 1.13035,0.0515 2.2607,0.11327 3.39105,0.18529 1.13035,0.072 2.2607,0.15428 3.39106,0.24676 1.13035,0.0925 2.2607,0.19515 3.39105,0.30798 1.13035,0.11283 2.2607,0.23582 3.39105,0.3689 1.13035,0.13308 2.2607,0.27625 3.39106,0.42944 1.13035,0.15319 2.2607,0.3164 3.39105,0.48955 1.13035,0.17315 2.2607,0.35623 3.39105,0.54916 1.13035,0.19294 2.2607,0.39571 3.39106,0.60823 1.13035,0.21252 2.2607,0.43479 3.39105,0.66669 1.13035,0.23189 2.2607,0.47342 3.39105,0.72446 1.13035,0.25104 2.26071,0.51158 3.39106,0.78151 1.13035,0.26993 2.2607,0.54923 3.39105,0.83778 1.13035,0.28854 2.2607,0.58632 3.39105,0.89319 1.13035,0.30687 2.26071,0.62283 3.39106,0.94772 1.13035,0.32489 2.2607,0.65871 3.39105,1.00128 1.13035,0.34258 2.2607,0.69392 3.39105,1.05385 1.13035,0.35992 2.26071,0.72843 3.39106,1.10534 1.13035,0.3769 2.2607,0.76221 3.39105,1.15572 1.13035,0.39351 2.2607,0.79523 3.39105,1.20495 1.13035,0.40971 2.26071,0.82743 3.39106,1.25295 1.13035,0.42551 2.2607,0.85882 3.39105,1.29969 1.13035,0.44088 2.2607,0.88934 3.39105,1.34514 1.13036,0.4558 2.26071,0.91895 3.39106,1.38922 1.13035,0.47026 2.2607,0.94764 3.39105,1.4319 1.13035,0.48425 2.2607,0.97538 3.39105,1.47314 1.13036,0.49776 2.26071,1.00214 3.39106,1.5129 1.13035,0.51076 2.2607,1.02789 3.39105,1.55114 1.13035,0.52324 2.2607,1.0526 3.39105,1.58781 1.13036,0.5352 2.26071,1.07625 3.39106,1.62288 1.13035,0.54663 2.2607,1.09883 3.39105,1.65633 1.13035,0.55749 2.2607,1.12029 3.39106,1.68809 1.13035,0.56781 2.2607,1.14063 3.39105,1.71817 1.13035,0.57755 2.2607,1.15982 3.39105,1.74652 1.13035,0.5867 2.2607,1.17783 3.39106,1.77309 1.13035,0.59527 2.2607,1.19467 3.39105,1.7979 1.13035,0.60323 2.2607,1.21029 3.39105,1.82088 1.13035,0.61059 2.2607,1.22471 3.39106,1.84204 1.13035,0.61734 2.2607,1.23789 3.39105,1.86134 1.13035,0.62346 2.2607,1.24982 3.39105,1.87877 1.13035,0.62895 2.2607,1.26049 3.39106,1.8943 1.13035,0.63381 2.2607,1.2699 3.39105,1.90793 1.13035,0.63803 2.2607,1.27802 3.39105,1.91963 1.13035,0.64162 2.26071,1.28486 3.39106,1.92941 1.13035,0.64455 2.2607,1.2904 3.39105,1.93724 1.13035,0.64683 2.2607,1.29464 3.39105,1.94311 1.13035,0.64847 2.26071,1.29759 3.39106,1.94704 1.13035,0.64945 2.2607,1.29923 3.39105,1.949"
       style="fill:none;stroke:#000000;stroke-width:4;stroke-miterlimit:4;stroke-opacity:1;stroke-dasharray:none" />
    <path
       id="path3687"
       title="sin(2*x)"
       d="m 222.85716,630.3622 c 1.13035,-1.29955 2.2607,-2.5991 3.39105,-3.89604 1.13035,-1.29694 2.26071,-2.59126 3.39106,-3.88035 1.13035,-1.2891 2.2607,-2.57298 3.39105,-3.84904 1.13035,-1.27607 2.2607,-2.54433 3.39105,-3.80223 1.13035,-1.2579 2.26071,-2.50544 3.39106,-3.74011 1.13035,-1.23467 2.2607,-2.45646 3.39105,-3.66292 1.13035,-1.20647 2.2607,-2.3976 3.39105,-3.571 1.13036,-1.1734 2.26071,-2.32907 3.39106,-3.46468 1.13035,-1.13561 2.2607,-2.25117 3.39105,-3.34442 1.13035,-1.09326 2.2607,-2.16421 3.39105,-3.2107 1.13036,-1.04649 2.26071,-2.06852 3.39106,-3.06403 1.13035,-0.99552 2.2607,-1.96452 3.39105,-2.90505 1.13035,-0.94053 2.2607,-1.85259 3.39105,-2.73435 1.13036,-0.88176 2.26071,-1.73321 3.39106,-2.55265 1.13035,-0.81943 2.2607,-1.60685 3.39105,-2.36067 1.13035,-0.75381 2.2607,-1.47402 3.39105,-2.15918 1.13036,-0.68516 2.26071,-1.33526 3.39106,-1.949 1.13035,-0.61374 2.2607,-1.19112 3.39105,-1.73097 1.13035,-0.53986 2.2607,-1.04218 3.39106,-1.50598 1.13035,-0.46379 2.2607,-0.88905 3.39105,-1.27491 1.13035,-0.38586 2.2607,-0.73233 3.39105,-1.03871 1.13035,-0.30639 2.2607,-0.57268 3.39106,-0.79834 1.13035,-0.22567 2.2607,-0.41071 3.39105,-0.55475 1.13035,-0.14404 2.2607,-0.24708 3.39105,-0.30891 1.13035,-0.0618 2.2607,-0.0825 3.39106,-0.0618 1.13035,0.0206 2.2607,0.0825 3.39105,0.18548 1.13035,0.10299 2.2607,0.2471 3.39105,0.43204 1.13035,0.18495 2.26071,0.41073 3.39106,0.67689 1.13035,0.26615 2.2607,0.57269 3.39105,0.91898 1.13035,0.3463 2.2607,0.73236 3.39105,1.1574 1.13035,0.42504 2.26071,0.88907 3.39106,1.39114 1.13035,0.50208 2.2607,1.04221 3.39105,1.61929 1.13035,0.57709 2.2607,1.19114 3.39105,1.84092 1.13035,0.64977 2.26071,1.33528 3.39106,2.05512 1.13035,0.71985 2.2607,1.47405 3.39105,2.26107 1.13035,0.78702 2.2607,1.60687 3.39105,2.45789 1.13035,0.85103 2.26071,1.73323 3.39106,2.64484 1.13035,0.9116 2.2607,1.8526 3.39105,2.82111 1.13035,0.96851 2.2607,1.96453 3.39105,2.98605 1.13036,1.02151 2.26071,2.06853 3.39106,3.13894 1.13035,1.07041 2.2607,2.16422 3.39105,3.27921 1.13035,1.115 2.2607,2.25118 3.39105,3.40627 1.13036,1.15509 2.26071,2.32908 3.39106,3.51961 1.13035,1.19053 2.2607,2.3976 3.39105,3.61878 1.13035,1.22118 2.2607,2.45647 3.39105,3.70338 1.13036,1.24691 2.26071,2.50545 3.39106,3.77307 1.13035,1.26762 2.2607,2.54433 3.39105,3.82756 1.13035,1.28323 2.2607,2.57298 3.39105,3.86664 1.13036,1.29367 2.26071,2.59126 3.39106,3.89016 1.13035,1.2989 2.2607,2.5991 3.39105,3.898 1.13035,1.2989 2.2607,2.59649 3.39106,3.89016 1.13035,1.29366 2.2607,2.58341 3.39105,3.86664 1.13035,1.28323 2.2607,2.55994 3.39105,3.82756 1.13035,1.26762 2.2607,2.52616 3.39106,3.77307 1.13035,1.24691 2.2607,2.4822 3.39105,3.70338 1.13035,1.22118 2.2607,2.42825 3.39105,3.61878 1.13035,1.19053 2.2607,2.36452 3.39106,3.51961 1.13035,1.15509 2.2607,2.29127 3.39105,3.40627 1.13035,1.11499 2.2607,2.2088 3.39105,3.27921 1.13035,1.07041 2.2607,2.11743 3.39106,3.13894 1.13035,1.02152 2.2607,2.01754 3.39105,2.98605 1.13035,0.96851 2.2607,1.90951 3.39105,2.82111 1.13035,0.91161 2.26071,1.79381 3.39106,2.64484 1.13035,0.85102 2.2607,1.67087 3.39105,2.45789 1.13035,0.78702 2.2607,1.54122 3.39105,2.26107 1.13035,0.71984 2.26071,1.40535 3.39106,2.05512 1.13035,0.64978 2.2607,1.26383 3.39105,1.84092 1.13035,0.57708 2.2607,1.11721 3.39105,1.61929 1.13035,0.50207 2.26071,0.9661 3.39106,1.39114 1.13035,0.42504 2.2607,0.8111 3.39105,1.1574 1.13035,0.34629 2.2607,0.65283 3.39105,0.91898 1.13035,0.26616 2.26071,0.49194 3.39106,0.67689 1.13035,0.18494 2.2607,0.32905 3.39105,0.43204 1.13035,0.10299 2.2607,0.16486 3.39105,0.18548 1.13036,0.0206 2.26071,-10e-6 3.39106,-0.0618 1.13035,-0.0618 2.2607,-0.16487 3.39105,-0.30891 1.13035,-0.14404 2.2607,-0.32908 3.39105,-0.55475 1.13036,-0.22566 2.26071,-0.49195 3.39106,-0.79834 1.13035,-0.30638 2.2607,-0.65285 3.39105,-1.03871 1.13035,-0.38586 2.2607,-0.81112 3.39105,-1.27491 1.13036,-0.4638 2.26071,-0.96612 3.39106,-1.50598 1.13035,-0.53985 2.2607,-1.11723 3.39105,-1.73097 1.13035,-0.61374 2.2607,-1.26384 3.39106,-1.949 1.13035,-0.68516 2.2607,-1.40537 3.39105,-2.15918 1.13035,-0.75382 2.2607,-1.54124 3.39105,-2.36067 1.13035,-0.81944 2.2607,-1.67089 3.39106,-2.55265 1.13035,-0.88176 2.2607,-1.79382 3.39105,-2.73435 1.13035,-0.94053 2.2607,-1.90953 3.39105,-2.90505 1.13035,-0.99551 2.2607,-2.01754 3.39106,-3.06403 1.13035,-1.04649 2.2607,-2.11744 3.39105,-3.2107 1.13035,-1.09325 2.2607,-2.20881 3.39105,-3.34442 1.13035,-1.13561 2.2607,-2.29128 3.39106,-3.46468 1.13035,-1.1734 2.2607,-2.36453 3.39105,-3.571 1.13035,-1.20646 2.2607,-2.42825 3.39105,-3.66292 1.13035,-1.23467 2.26071,-2.48221 3.39106,-3.74011 1.13035,-1.2579 2.2607,-2.52616 3.39105,-3.80223 1.13035,-1.27606 2.2607,-2.55994 3.39105,-3.84904 1.13035,-1.28909 2.26071,-2.58341 3.39106,-3.88035 1.13035,-1.29694 2.2607,-2.59649 3.39105,-3.89604"
       style="fill:none;stroke:#000000;stroke-width:4;stroke-miterlimit:4;stroke-opacity:1;stroke-dasharray:none" />
    <path
       style="fill:none;stroke:#000000;stroke-width:4;stroke-miterlimit:4;stroke-opacity:1;stroke-dasharray:none"
       d="m 222.85716,473.50503 c 1.13035,-1.94933 2.2607,-3.89865 3.39105,-5.83915 1.13035,-1.94051 2.26071,-3.87218 3.39106,-5.78628 1.13035,-1.9141 2.2607,-3.81063 3.39105,-5.681 1.13035,-1.87036 2.2607,-3.71457 3.39105,-5.52426 1.13035,-1.80969 2.26071,-3.58487 3.39106,-5.31751 1.13035,-1.73263 2.2607,-3.42271 3.39105,-5.06259 1.13035,-1.63988 2.2607,-3.22955 3.39105,-4.76183 1.13036,-1.53228 2.26071,-3.00715 3.39106,-4.41794 1.13035,-1.4108 2.2607,-2.75751 3.39105,-4.03405 1.13035,-1.27654 2.2607,-2.4829 3.39105,-3.61362 1.13036,-1.13072 2.26071,-2.18581 3.39106,-3.16047 1.13035,-0.97466 2.2607,-1.86891 3.39105,-2.67869 1.13035,-0.80978 2.2607,-1.53509 3.39105,-2.17266 1.13036,-0.63756 2.26071,-1.18737 3.39106,-1.64694 1.13035,-0.45957 2.2607,-0.8289 3.39105,-1.10632 1.13035,-0.27742 2.2607,-0.46293 3.39105,-0.55568 1.13036,-0.0927 2.26071,-0.0927 3.39106,0 1.13035,0.0928 2.2607,0.27826 3.39105,0.55568 1.13035,0.27742 2.2607,0.64675 3.39106,1.10632 1.13035,0.45957 2.2607,1.00938 3.39105,1.64694 1.13035,0.63757 2.2607,1.36288 3.39105,2.17266 1.13035,0.80978 2.2607,1.70403 3.39106,2.67869 1.13035,0.97466 2.2607,2.02975 3.39105,3.16047 1.13035,1.13072 2.2607,2.33708 3.39105,3.61362 1.13035,1.27654 2.2607,2.62325 3.39106,4.03405 1.13035,1.41079 2.2607,2.88566 3.39105,4.41794 1.13035,1.53228 2.2607,3.12195 3.39105,4.76183 1.13035,1.63988 2.26071,3.32996 3.39106,5.06259 1.13035,1.73264 2.2607,3.50782 3.39105,5.31751 1.13035,1.80969 2.2607,3.6539 3.39105,5.52426 1.13035,1.87037 2.26071,3.7669 3.39106,5.681 1.13035,1.9141 2.2607,3.84577 3.39105,5.78628 1.13035,1.9405 2.2607,3.88982 3.39105,5.83915 1.13035,1.94933 2.26071,3.89866 3.39106,5.83916 1.13035,1.9405 2.2607,3.87217 3.39105,5.78628 1.13035,1.9141 2.2607,3.81062 3.39105,5.68099 1.13035,1.87037 2.26071,3.71457 3.39106,5.52427 1.13035,1.80969 2.2607,3.58487 3.39105,5.3175 1.13035,1.73264 2.2607,3.42272 3.39105,5.06259 1.13036,1.63988 2.26071,3.22956 3.39106,4.76184 1.13035,1.53227 2.2607,3.00714 3.39105,4.41794 1.13035,1.4108 2.2607,2.75751 3.39105,4.03405 1.13036,1.27654 2.26071,2.4829 3.39106,3.61362 1.13035,1.13072 2.2607,2.1858 3.39105,3.16046 1.13035,0.97467 2.2607,1.86891 3.39105,2.6787 1.13036,0.80978 2.26071,1.53509 3.39106,2.17265 1.13035,0.63756 2.2607,1.18738 3.39105,1.64695 1.13035,0.45957 2.2607,0.8289 3.39105,1.10632 1.13036,0.27742 2.26071,0.46292 3.39106,0.55567 1.13035,0.0928 2.2607,0.0928 3.39105,0 1.13035,-0.0928 2.2607,-0.27825 3.39106,-0.55567 1.13035,-0.27742 2.2607,-0.64675 3.39105,-1.10632 1.13035,-0.45957 2.2607,-1.00939 3.39105,-1.64695 1.13035,-0.63756 2.2607,-1.36287 3.39106,-2.17265 1.13035,-0.80979 2.2607,-1.70403 3.39105,-2.6787 1.13035,-0.97466 2.2607,-2.02974 3.39105,-3.16046 1.13035,-1.13072 2.2607,-2.33708 3.39106,-3.61362 1.13035,-1.27654 2.2607,-2.62325 3.39105,-4.03405 1.13035,-1.4108 2.2607,-2.88567 3.39105,-4.41794 1.13035,-1.53228 2.2607,-3.12196 3.39106,-4.76184 1.13035,-1.63987 2.2607,-3.32995 3.39105,-5.06259 1.13035,-1.73263 2.2607,-3.50781 3.39105,-5.3175 1.13035,-1.8097 2.26071,-3.6539 3.39106,-5.52427 1.13035,-1.87037 2.2607,-3.76689 3.39105,-5.68099 1.13035,-1.91411 2.2607,-3.84578 3.39105,-5.78628 1.13035,-1.9405 2.26071,-3.88983 3.39106,-5.83916 1.13035,-1.94933 2.2607,-3.89865 3.39105,-5.83915 1.13035,-1.94051 2.2607,-3.87218 3.39105,-5.78628 1.13035,-1.9141 2.26071,-3.81063 3.39106,-5.681 1.13035,-1.87036 2.2607,-3.71457 3.39105,-5.52426 1.13035,-1.80969 2.2607,-3.58487 3.39105,-5.31751 1.13035,-1.73263 2.26071,-3.42271 3.39106,-5.06259 1.13035,-1.63988 2.2607,-3.22955 3.39105,-4.76183 1.13035,-1.53228 2.2607,-3.00715 3.39105,-4.41794 1.13036,-1.4108 2.26071,-2.75751 3.39106,-4.03405 1.13035,-1.27654 2.2607,-2.4829 3.39105,-3.61362 1.13035,-1.13072 2.2607,-2.18581 3.39105,-3.16047 1.13036,-0.97466 2.26071,-1.86891 3.39106,-2.67869 1.13035,-0.80978 2.2607,-1.53509 3.39105,-2.17266 1.13035,-0.63756 2.2607,-1.18737 3.39105,-1.64694 1.13036,-0.45957 2.26071,-0.8289 3.39106,-1.10632 1.13035,-0.27742 2.2607,-0.46293 3.39105,-0.55568 1.13035,-0.0927 2.2607,-0.0927 3.39106,0 1.13035,0.0928 2.2607,0.27826 3.39105,0.55568 1.13035,0.27742 2.2607,0.64675 3.39105,1.10632 1.13035,0.45957 2.2607,1.00938 3.39106,1.64694 1.13035,0.63757 2.2607,1.36288 3.39105,2.17266 1.13035,0.80978 2.2607,1.70403 3.39105,2.67869 1.13035,0.97466 2.2607,2.02975 3.39106,3.16047 1.13035,1.13072 2.2607,2.33708 3.39105,3.61362 1.13035,1.27654 2.2607,2.62325 3.39105,4.03405 1.13035,1.41079 2.2607,2.88566 3.39106,4.41794 1.13035,1.53228 2.2607,3.12195 3.39105,4.76183 1.13035,1.63988 2.2607,3.32996 3.39105,5.06259 1.13035,1.73264 2.26071,3.50782 3.39106,5.31751 1.13035,1.80969 2.2607,3.6539 3.39105,5.52426 1.13035,1.87037 2.2607,3.7669 3.39105,5.681 1.13035,1.9141 2.26071,3.84577 3.39106,5.78628 1.13035,1.9405 2.2607,3.88982 3.39105,5.83915"
       title="sin(3*x)"
       id="path3705" />
    <path
       id="path3725"
       title="sin(4*x)"
       d="m 222.85718,318.4336 c 1.13035,-2.59911 2.2607,-5.1982 3.39105,-7.77639 1.13035,-2.5782 2.2607,-5.13547 3.39105,-7.65127 1.13035,-2.5158 2.2607,-4.99011 3.39106,-7.40303 1.13035,-2.41293 2.2607,-4.76446 3.39105,-7.03568 1.13035,-2.27123 2.2607,-4.46214 3.39105,-6.55512 1.13035,-2.09298 2.26071,-4.08802 3.39106,-5.96908 1.13035,-1.88106 2.2607,-3.64813 3.39105,-5.287 1.13035,-1.63887 2.2607,-3.14954 3.39105,-4.51985 1.13035,-1.37031 2.26071,-2.60027 3.39106,-3.67997 1.13035,-1.07971 2.2607,-2.00916 3.39105,-2.78089 1.13035,-0.77173 2.2607,-1.38572 3.39105,-1.83705 1.13035,-0.45133 2.26071,-0.73999 3.39106,-0.86366 1.13035,-0.12367 2.2607,-0.0823 3.39105,0.12363 1.13035,0.20598 2.2607,0.57661 3.39105,1.10893 1.13035,0.53231 2.26071,1.2263 3.39106,2.07638 1.13035,0.85009 2.2607,1.85626 3.39105,3.01043 1.13035,1.15418 2.2607,2.45635 3.39105,3.89604 1.13036,1.4397 2.26071,3.01691 3.39106,4.71896 1.13035,1.70205 2.2607,3.52893 3.39105,5.46595 1.13035,1.93702 2.2607,3.98417 3.39105,6.12499 1.13036,2.14082 2.26071,4.3753 3.39106,6.68548 1.13035,2.31018 2.2607,4.69603 3.39105,7.13839 1.13035,2.44236 2.2607,4.9412 3.39105,7.47645 1.13036,2.53524 2.26071,5.10687 3.39106,7.6942 1.13035,2.58734 2.2607,5.19036 3.39105,7.78816 1.13035,2.5978 2.2607,5.19034 3.39106,7.7568 1.13035,2.56646 2.2607,5.1068 3.39105,7.60063 1.13035,2.49382 2.2607,4.9411 3.39105,7.32216 1.13035,2.38106 2.2607,4.69589 3.39106,6.92588 1.13035,2.22998 2.2607,4.37512 3.39105,6.41815 1.13035,2.04304 2.2607,3.98396 3.39105,5.80716 1.13035,1.82321 2.2607,3.52869 3.39106,5.10273 1.13035,1.57404 2.2607,3.01664 3.39105,4.31619 1.13035,1.29955 2.2607,2.45605 3.39105,3.4602 1.13035,1.00416 2.2607,1.85595 3.39106,2.54854 1.13035,0.6926 2.2607,1.22598 3.39105,1.59587 1.13035,0.3699 2.2607,0.57629 3.39105,0.61753 1.13035,0.0412 2.26071,-0.0827 3.39106,-0.37077 1.13035,-0.28808 2.2607,-0.74031 3.39105,-1.35308 1.13035,-0.61276 2.2607,-1.38604 3.39105,-2.31362 1.13035,-0.92759 2.26071,-2.00947 3.39106,-3.23695 1.13035,-1.22748 2.2607,-2.60056 3.39105,-4.10819 1.13035,-1.50762 2.2607,-3.1498 3.39105,-4.91331 1.13035,-1.76352 2.26071,-3.64837 3.39106,-5.6394 1.13035,-1.99103 2.2607,-4.08822 3.39105,-6.27473 1.13035,-2.18651 2.2607,-4.4623 3.39105,-6.8091 1.13035,-2.34681 2.26071,-4.76459 3.39106,-7.23392 1.13035,-2.46934 2.2607,-4.9902 3.39105,-7.54234 1.13035,-2.55213 2.2607,-5.13552 3.39105,-7.72939 1.13036,-2.59387 2.26071,-5.19821 3.39106,-7.79208 1.13035,-2.59387 2.2607,-5.17726 3.39105,-7.72939 1.13035,-2.55214 2.2607,-5.07301 3.39105,-7.54234 1.13036,-2.46933 2.26071,-4.88712 3.39106,-7.23392 1.13035,-2.3468 2.2607,-4.6226 3.39105,-6.8091 1.13035,-2.18651 2.2607,-4.28371 3.39105,-6.27474 1.13036,-1.99103 2.26071,-3.87587 3.39106,-5.63939 1.13035,-1.76352 2.2607,-3.40569 3.39105,-4.91332 1.13035,-1.50763 2.2607,-2.8807 3.39105,-4.10818 1.13036,-1.22748 2.26071,-2.30936 3.39106,-3.23695 1.13035,-0.92758 2.2607,-1.70086 3.39105,-2.31362 1.13035,-0.61277 2.2607,-1.065 3.39106,-1.35308 1.13035,-0.28808 2.2607,-0.412 3.39105,-0.37077 1.13035,0.0412 2.2607,0.24763 3.39105,0.61753 1.13035,0.36989 2.2607,0.90327 3.39106,1.59587 1.13035,0.69259 2.2607,1.54438 3.39105,2.54854 1.13035,1.00415 2.2607,2.16064 3.39105,3.4602 1.13035,1.29955 2.2607,2.74214 3.39106,4.31619 1.13035,1.57404 2.2607,3.27952 3.39105,5.10272 1.13035,1.82321 2.2607,3.76413 3.39105,5.80717 1.13035,2.04303 2.2607,4.18816 3.39106,6.41815 1.13035,2.22999 2.2607,4.54482 3.39105,6.92588 1.13035,2.38106 2.2607,4.82834 3.39105,7.32216 1.13035,2.49382 2.26071,5.03417 3.39106,7.60063 1.13035,2.56646 2.2607,5.159 3.39105,7.7568 1.13035,2.59779 2.2607,5.20082 3.39105,7.78816 1.13035,2.58733 2.26071,5.15895 3.39106,7.6942 1.13035,2.53524 2.2607,5.03409 3.39105,7.47645 1.13035,2.44236 2.2607,4.82821 3.39105,7.13839 1.13035,2.31018 2.26071,4.54465 3.39106,6.68547 1.13035,2.14083 2.2607,4.18797 3.39105,6.12499 1.13035,1.93703 2.2607,3.7639 3.39105,5.46595 1.13036,1.70206 2.26071,3.27927 3.39106,4.71896 1.13035,1.4397 2.2607,2.74187 3.39105,3.89604 1.13035,1.15418 2.2607,2.16035 3.39105,3.01044 1.13036,0.85008 2.26071,1.54407 3.39106,2.07638 1.13035,0.53232 2.2607,0.90295 3.39105,1.10893 1.13035,0.20598 2.2607,0.2473 3.39105,0.12363 1.13036,-0.12367 2.26071,-0.41233 3.39106,-0.86366 1.13035,-0.45133 2.2607,-1.06533 3.39105,-1.83705 1.13035,-0.77173 2.2607,-1.70118 3.39105,-2.78089 1.13036,-1.07971 2.26071,-2.30966 3.39106,-3.67997 1.13035,-1.37032 2.2607,-2.88098 3.39105,-4.51985 1.13035,-1.63888 2.2607,-3.40594 3.39106,-5.287 1.13035,-1.88107 2.2607,-3.8761 3.39105,-5.96909 1.13035,-2.09298 2.2607,-4.28389 3.39105,-6.55511 1.13035,-2.27123 2.2607,-4.62275 3.39106,-7.03568 1.13035,-2.41292 2.2607,-4.88723 3.39105,-7.40303 1.13035,-2.5158 2.2607,-5.07307 3.39105,-7.65127 1.13035,-2.57819 2.2607,-5.17729 3.39106,-7.77639"
       style="fill:none;stroke:#000000;stroke-width:4;stroke-miterlimit:4;stroke-opacity:1;stroke-dasharray:none" />
    <rect
       style="fill:#ff0000;fill-opacity:1;stroke:none"
       id="rect5313-6"
       width="68.214272"
       height="126.0714"
       x="154.6429"
       y="567.64789" />
    <rect
       style="fill:#ff0000;fill-opacity:1;stroke:none"
       id="rect5313-2-8"
       width="68.214256"
       height="126.42857"
       x="558.57141"
       y="567.36218" />
    <rect
       style="fill:#ff0000;fill-opacity:1;stroke:none"
       id="rect5313-6-9"
       width="68.214272"
       height="126.0714"
       x="154.6429"
       y="410.93362" />
    <rect
       style="fill:#ff0000;fill-opacity:1;stroke:none"
       id="rect5313-2-8-0"
       width="68.214256"
       height="126.42857"
       x="558.57141"
       y="410.93362" />
    <rect
       style="fill:#ff0000;fill-opacity:1;stroke:none"
       id="rect5313-6-9-2"
       width="68.214272"
       height="126.0714"
       x="154.64291"
       y="255.14792" />
    <rect
       style="fill:#ff0000;fill-opacity:1;stroke:none"
       id="rect5313-6-9-6"
       width="68.214272"
       height="126.0714"
       x="558.57141"
       y="255.14792" />
    <text
       xml:space="preserve"
       style="font-size:50px;font-style:normal;font-variant:normal;font-weight:normal;font-stretch:normal;fill:none;stroke:#000000;stroke-width:1px;stroke-linecap:butt;stroke-linejoin:miter;stroke-opacity:1;font-family:arial;-inkscape-font-specification:arial"
       x="341.43158"
       y="802.31781"
       id="text5525"><tspan
         sodipodi:role="line"
         id="tspan5527"
         x="341.43158"
         y="802.31781"
         style="font-size:50px;fill:#000000;fill-opacity:1;stroke:none"><tspan
   style="font-size:50px;font-style:italic"
   id="tspan5529">n</tspan>=1</tspan></text>
    <text
       xml:space="preserve"
       style="font-size:50px;font-style:normal;font-variant:normal;font-weight:normal;font-stretch:normal;fill:none;stroke:#000000;stroke-width:1px;stroke-linecap:butt;stroke-linejoin:miter;stroke-opacity:1;font-family:arial;-inkscape-font-specification:arial"
       x="341.43158"
       y="642.89136"
       id="text5525-4"><tspan
         sodipodi:role="line"
         id="tspan5527-1"
         x="341.43158"
         y="642.89136"
         style="font-size:50px;fill:#000000;fill-opacity:1;stroke:none"><tspan
   style="font-size:50px;font-style:italic"
   id="tspan5529-7">n</tspan>=2</tspan></text>
    <text
       xml:space="preserve"
       style="font-size:50px;font-style:normal;font-variant:normal;font-weight:normal;font-stretch:normal;fill:none;stroke:#000000;stroke-width:1px;stroke-linecap:butt;stroke-linejoin:miter;stroke-opacity:1;font-family:arial;-inkscape-font-specification:arial"
       x="341.43158"
       y="488.92404"
       id="text5525-45"><tspan
         sodipodi:role="line"
         id="tspan5527-7"
         x="341.43158"
         y="488.92404"
         style="font-size:50px;fill:#000000;fill-opacity:1;stroke:none"><tspan
   style="font-size:50px;font-style:italic"
   id="tspan5529-8">n</tspan>=3</tspan></text>
    <text
       xml:space="preserve"
       style="font-size:50px;font-style:normal;font-variant:normal;font-weight:normal;font-stretch:normal;fill:none;stroke:#000000;stroke-width:1px;stroke-linecap:butt;stroke-linejoin:miter;stroke-opacity:1;font-family:arial;-inkscape-font-specification:arial"
       x="341.43161"
       y="328.23264"
       id="text5525-7"><tspan
         sodipodi:role="line"
         id="tspan5527-0"
         x="341.43161"
         y="328.23264"
         style="font-size:50px;fill:#000000;fill-opacity:1;stroke:none"><tspan
   style="font-size:50px;font-style:italic"
   id="tspan5529-85">n</tspan>=4</tspan></text>
  </g>
</svg>
