<?xml version="1.0" standalone="no"?>
<!DOCTYPE svg PUBLIC "-//W3C//DTD SVG 20010904//EN"
 "http://www.w3.org/TR/2001/REC-SVG-20010904/DTD/svg10.dtd">
<svg version="1.0" xmlns="http://www.w3.org/2000/svg"
 width="320.000000pt" height="240.000000pt" viewBox="0 0 320.000000 240.000000"
 preserveAspectRatio="xMidYMid meet">

<g transform="translate(0.000000,240.000000) scale(0.100000,-0.100000)"
fill="#000000" stroke="none">
<path d="M1111 1766 c-34 -25 -61 -67 -61 -94 0 -13 -14 -14 -102 -7 -123 10
-148 10 -253 0 -44 -4 -188 -10 -320 -14 -231 -6 -240 -7 -240 -26 0 -19 6
-20 165 -17 91 2 185 5 210 7 25 2 158 7 295 10 l250 6 20 -33 c28 -46 62 -56
120 -33 29 10 53 28 62 44 l16 26 186 0 c212 0 802 25 813 34 34 29 -89 40
-292 26 -52 -4 -98 -9 -102 -11 -4 -3 -140 -7 -301 -9 l-294 -5 -18 41 c-36
79 -94 99 -154 55z m110 -45 c34 -35 35 -37 10 -77 -25 -41 -81 -67 -115 -54
-14 5 -26 13 -27 17 -8 74 2 127 11 58 l5 -40 48 -1 c45 -1 59 7 36 22 -8 4
-8 9 0 17 21 21 12 48 -20 61 -21 9 -27 15 -18 19 28 11 41 7 70 -22z"/>
<path d="M2652 1662 c-12 -27 -22 -56 -22 -65 0 -23 21 -33 34 -15 8 11 10
-52 8 -236 -2 -138 -5 -257 -7 -263 -3 -8 -22 -13 -50 -13 -45 0 -60 -12 -29
-24 9 -3 31 -6 50 -6 l34 0 0 -190 -1 -190 -25 6 c-16 4 -24 2 -24 -6 0 -20
80 -92 98 -88 9 2 26 20 37 40 16 30 17 39 6 52 -10 12 -17 14 -27 5 -12 -10
-14 23 -15 202 -1 118 -2 324 -3 459 -2 135 -1 255 2 267 l4 23 20 -25 c19
-24 48 -34 48 -16 0 17 -90 131 -103 131 -7 0 -23 -22 -35 -48z"/>
<path d="M968 1683 c7 -3 16 -2 19 1 4 3 -2 6 -13 5 -11 0 -14 -3 -6 -6z"/>
<path d="M2200 1615 c-7 -8 -47 -36 -89 -62 -42 -26 -98 -66 -126 -90 -133
-112 -164 -140 -189 -170 -26 -31 -29 -32 -49 -18 -12 8 -28 15 -37 15 -15 0
-89 55 -140 104 -29 28 -62 46 -84 46 -27 0 -6 -30 37 -51 22 -12 56 -39 76
-60 23 -27 49 -43 78 -50 64 -17 65 -40 7 -97 -26 -26 -71 -78 -100 -117 -30
-38 -76 -99 -103 -134 -53 -69 -140 -230 -161 -296 -17 -54 -27 -65 -61 -65
-22 0 -29 5 -29 20 0 11 -5 20 -11 20 -5 0 -21 24 -33 53 -23 51 -167 272
-190 292 -7 5 -32 35 -57 65 -69 85 -90 110 -148 172 -44 48 -52 60 -42 72 18
22 3 39 -26 31 -19 -4 -33 2 -64 30 -22 20 -63 46 -92 59 -124 57 -266 116
-275 116 -6 0 -12 4 -14 10 -1 5 -25 13 -52 16 -39 6 -48 4 -44 -7 5 -15 13
-20 129 -73 43 -20 146 -82 230 -138 164 -110 301 -234 412 -375 77 -97 197
-282 203 -313 16 -74 102 -109 164 -67 22 14 38 37 48 65 11 33 19 42 37 42
37 0 85 12 85 21 0 5 -20 9 -45 9 l-45 0 34 68 c34 68 80 132 170 235 43 49
54 56 90 59 l41 3 -32 15 -32 15 45 52 44 51 40 -15 c22 -9 40 -22 40 -29 0
-7 12 -26 26 -43 20 -24 22 -31 10 -31 -30 0 -16 -18 19 -24 26 -5 42 -17 62
-46 14 -22 31 -40 38 -40 6 0 22 -11 35 -25 13 -14 28 -25 34 -25 6 0 27 -17
46 -37 18 -21 50 -45 70 -54 21 -10 46 -32 58 -53 l21 -36 -59 0 c-47 0 -60
-3 -60 -15 0 -12 13 -15 59 -15 l59 0 4 -65 c2 -51 0 -66 -12 -70 -8 -2 -132
-9 -275 -15 -227 -9 -389 -16 -835 -35 -58 -2 -242 -5 -410 -7 -329 -3 -560
-16 -560 -31 0 -11 580 -3 900 13 107 6 373 17 590 25 217 8 441 18 498 21 99
7 102 6 102 -14 0 -21 17 -39 27 -28 3 3 5 60 5 126 0 98 2 120 14 120 19 0
18 29 -1 36 -13 5 -15 51 -15 330 0 238 3 324 12 324 7 0 5 7 -5 18 -8 9 -17
37 -19 61 -5 65 -26 65 -30 -1 -3 -47 -6 -53 -26 -56 -30 -4 -23 -27 9 -27
l23 0 1 -145 c0 -80 -1 -158 -3 -175 l-4 -30 -76 0 c-62 0 -77 -3 -77 -15 0
-12 15 -15 78 -15 75 0 77 -1 77 -25 1 -14 3 -64 6 -112 4 -55 2 -88 -4 -88
-5 0 -21 9 -35 20 -14 11 -29 20 -33 20 -4 0 -29 18 -55 40 -26 22 -51 40 -54
40 -4 0 -15 10 -26 23 -15 17 -20 19 -28 8 -6 -10 -10 -10 -16 -1 -4 6 -4 14
-1 17 3 4 -1 15 -11 25 -15 17 -15 19 2 32 18 13 18 14 -3 25 -13 7 -27 9 -33
6 -5 -4 -31 15 -58 42 -26 26 -63 59 -81 73 l-33 26 73 64 c40 36 91 82 114
102 33 30 49 38 81 38 22 0 47 4 55 10 15 9 14 10 -30 22 -8 3 22 29 73 64 73
50 86 63 87 87 0 30 -20 36 -40 12z m-1580 -280 c7 -9 -4 -7 -29 6 -23 11 -41
21 -41 24 0 8 59 -17 70 -30z"/>
<path d="M1247 1513 c-10 -3 -16 -10 -14 -16 4 -14 75 -32 85 -22 7 7 -35 46
-47 44 -3 -1 -14 -3 -24 -6z"/>
<path d="M1094 1485 c-16 -13 -17 -16 -4 -24 16 -11 58 -4 75 11 6 6 5 12 -5
18 -22 14 -43 12 -66 -5z"/>
<path d="M1362 1478 c3 -21 53 -47 65 -34 9 9 -25 43 -48 49 -16 4 -20 1 -17
-15z"/>
<path d="M174 1463 c-11 -43 2 -533 15 -546 7 -7 11 -71 11 -186 0 -97 3 -186
6 -199 12 -43 29 -16 32 50 3 61 5 67 27 72 14 4 25 13 25 22 0 8 13 23 30 32
18 10 30 25 30 37 0 11 18 40 41 63 39 43 48 77 19 77 -8 0 -21 -13 -29 -30
-8 -16 -18 -32 -23 -34 -20 -7 -46 -44 -41 -57 3 -8 -3 -17 -13 -20 -28 -10
-54 -35 -48 -45 3 -5 1 -9 -4 -9 -13 0 -21 154 -24 437 -1 133 -6 267 -12 297
-11 61 -32 80 -42 39z"/>
<path d="M983 1454 c-32 -14 -43 -37 -23 -49 11 -7 100 42 100 56 0 13 -40 10
-77 -7z"/>
<path d="M2573 1463 c-36 -14 22 -38 66 -26 17 4 19 8 10 19 -11 14 -52 17
-76 7z"/>
<path d="M2360 1445 c0 -12 14 -15 69 -15 67 0 98 11 65 24 -9 3 -42 6 -75 6
-46 0 -59 -3 -59 -15z"/>
<path d="M887 1403 c-4 -3 -7 -12 -7 -20 0 -20 38 -15 50 7 9 17 8 20 -13 20
-13 0 -27 -3 -30 -7z"/>
<path d="M2388 1393 c-15 -4 -18 -16 -18 -61 0 -31 4 -61 8 -67 8 -12 67 -18
100 -10 12 3 22 12 22 20 0 16 -6 18 -60 16 -27 -1 -31 1 -20 8 8 6 23 11 33
11 12 0 17 6 15 18 -2 11 -13 17 -31 17 -34 -1 -34 3 -1 15 49 19 6 48 -48 33z"/>
<path d="M2520 1385 c0 -9 7 -18 15 -21 14 -6 13 -8 -1 -19 -20 -14 -12 -32
20 -46 19 -8 18 -9 -7 -6 -36 5 -43 -7 -18 -32 16 -16 26 -18 43 -12 21 8 23
14 20 67 -2 32 -8 65 -14 71 -15 18 -58 16 -58 -2z"/>
<path d="M818 1369 c-21 -12 -24 -49 -4 -49 8 0 24 9 37 20 21 17 22 21 9 30
-18 12 -21 12 -42 -1z"/>
<path d="M3010 1302 l-35 -17 3 -65 c4 -77 16 -93 74 -94 33 -1 43 3 46 17 3
14 -4 17 -42 17 -42 0 -46 2 -46 24 0 21 6 25 33 28 45 4 43 32 -3 36 l-35 4
33 14 c22 9 32 19 30 31 -4 24 -18 25 -58 5z"/>
<path d="M2868 1296 c-21 -15 -23 -53 -7 -126 12 -54 36 -65 31 -14 -3 26 1
31 30 39 27 8 34 16 36 40 2 20 -4 38 -18 53 -23 25 -47 28 -72 8z m56 -45 c3
-5 -1 -12 -10 -15 -22 -9 -24 -8 -24 9 0 16 25 21 34 6z"/>
<path d="M633 1203 c-7 -3 -13 -14 -13 -25 0 -14 6 -19 22 -16 13 2 24 10 26
19 3 18 -15 29 -35 22z"/>
<path d="M560 1110 c0 -20 15 -25 44 -14 28 11 18 34 -14 34 -23 0 -30 -4 -30
-20z"/>
<path d="M2397 1074 c-30 -9 -13 -29 29 -32 57 -5 132 8 112 19 -19 11 -117
20 -141 13z"/>
<path d="M505 1030 c-27 -30 -5 -49 30 -26 21 14 24 20 14 32 -15 19 -22 18
-44 -6z"/>
<path d="M2403 1023 c-35 -7 -45 -27 -37 -78 3 -25 13 -53 21 -60 19 -19 83
-20 83 -1 0 20 -27 39 -45 32 -8 -3 -15 -2 -15 3 0 5 11 12 24 15 21 5 24 12
23 39 -3 34 -13 58 -25 56 -4 -1 -17 -4 -29 -6z"/>
<path d="M2512 1008 c-17 -17 -15 -48 3 -48 21 0 19 -16 -6 -39 -34 -31 -18
-51 39 -51 27 0 51 3 54 6 10 10 -4 44 -18 44 -9 0 -14 12 -14 34 0 31 -20 66
-39 66 -4 0 -12 -5 -19 -12z"/>
<path d="M452 948 c-16 -16 -15 -38 1 -38 17 0 37 20 37 37 0 16 -22 17 -38 1z"/>
<path d="M2520 741 c-14 -4 -56 -6 -94 -3 -55 4 -68 2 -64 -9 4 -11 31 -14
119 -14 121 1 165 9 139 25 -17 11 -64 11 -100 1z"/>
<path d="M1893 708 c3 -9 28 -12 88 -10 122 4 126 22 5 22 -74 0 -97 -3 -93
-12z"/>
<path d="M1645 700 c-10 -16 22 -23 80 -16 101 12 108 25 13 25 -48 1 -90 -3
-93 -9z"/>
<path d="M2416 592 c-15 -7 -18 -19 -18 -82 0 -70 1 -75 23 -80 34 -8 69 0 69
16 0 7 -11 16 -25 20 -27 7 -29 31 -3 26 9 -1 21 4 27 12 15 18 -12 47 -37 40
-9 -2 -2 3 16 11 18 9 32 21 29 28 -4 14 -54 19 -81 9z"/>
<path d="M2510 505 c0 -41 4 -57 15 -62 22 -8 27 0 27 40 0 48 -11 77 -28 77
-10 0 -14 -14 -14 -55z"/>
</g>
</svg>
