<?xml version="1.0" standalone="no"?>
<!DOCTYPE svg PUBLIC "-//W3C//DTD SVG 20010904//EN"
 "http://www.w3.org/TR/2001/REC-SVG-20010904/DTD/svg10.dtd">
<svg version="1.0" xmlns="http://www.w3.org/2000/svg"
 width="968.000000pt" height="442.000000pt" viewBox="0 0 968.000000 442.000000"
 preserveAspectRatio="xMidYMid meet">

<g transform="translate(0.000000,442.000000) scale(0.100000,-0.100000)"
fill="#000000" stroke="none">
<path d="M2610 4345 c-195 -42 -365 -133 -500 -268 l-55 -55 -110 67 c-188
113 -329 161 -505 168 -191 9 -289 -27 -380 -140 -135 -166 -213 -404 -209
-637 l2 -105 -39 -9 c-307 -72 -416 -109 -513 -175 -153 -105 -250 -292 -251
-485 0 -177 91 -349 280 -530 44 -42 80 -78 80 -81 0 -2 -29 -48 -64 -102
-186 -287 -223 -470 -139 -683 106 -267 328 -390 704 -390 l87 0 7 -47 c10
-71 68 -240 110 -324 109 -216 270 -365 421 -389 103 -17 232 14 387 91 86 43
226 136 296 197 l44 38 51 -34 c28 -19 101 -59 161 -88 326 -157 619 -150 770
18 112 125 205 398 222 656 3 50 11 96 17 100 6 5 61 19 121 31 236 48 375
110 481 216 112 112 158 233 158 420 1 89 -4 123 -22 180 -46 138 -114 231
-257 351 -38 32 -69 61 -68 64 1 4 31 51 67 105 210 316 239 536 100 767 -57
95 -159 190 -257 238 -116 57 -211 74 -364 67 -121 -6 -123 -6 -127 16 -63
292 -152 481 -297 626 -125 125 -243 161 -409 126z m226 -41 c199 -83 381
-369 440 -689 l7 -40 -39 35 c-191 169 -475 306 -759 365 -92 19 -329 39 -368
31 -39 -8 -26 11 54 81 119 104 257 178 396 212 99 25 217 27 269 5z m-1281
-93 c135 -28 354 -123 436 -190 l24 -19 -50 -7 c-386 -51 -711 -209 -982 -476
l-91 -90 -7 29 c-9 41 12 226 34 303 56 191 168 372 262 420 98 49 229 60 374
30z m875 -247 c295 -50 604 -193 802 -370 l36 -32 -96 -8 c-226 -16 -416 18
-605 109 -104 51 -297 179 -377 251 -19 17 -48 41 -65 54 l-30 23 125 -6 c69
-4 163 -13 210 -21z m-473 -56 c-189 -212 -390 -345 -649 -432 -108 -36 -405
-102 -415 -93 -13 14 119 148 246 251 206 166 536 305 806 339 82 10 81 12 12
-65z m203 -14 c273 -220 483 -328 707 -364 74 -13 307 -15 378 -5 51 8 42 30
71 -185 38 -286 115 -503 238 -665 60 -79 178 -199 259 -262 l29 -22 -80 -100
c-173 -214 -247 -352 -299 -556 -23 -90 -26 -122 -29 -330 l-3 -230 -63 -8
c-265 -34 -419 -75 -565 -152 -146 -77 -226 -146 -484 -418 l-64 -68 -125 102
c-220 179 -368 266 -536 316 -49 15 -102 18 -313 18 l-255 0 -7 28 c-4 15 -10
58 -14 95 -19 198 -56 375 -102 491 -61 150 -134 247 -308 403 -83 74 -115
109 -115 126 0 12 42 84 93 160 156 230 231 386 281 582 27 109 49 320 44 427
l-3 66 135 27 c231 47 356 88 518 169 148 75 328 219 444 356 34 41 65 75 68
75 3 0 48 -34 100 -76z m1512 -369 c209 -54 377 -225 433 -440 8 -32 15 -78
15 -101 0 -64 -36 -191 -80 -280 -39 -80 -149 -256 -167 -267 -5 -3 -15 33
-22 81 -48 335 -197 656 -426 915 -54 61 -81 99 -73 102 52 18 236 12 320 -10z
m-150 -244 c150 -210 259 -468 303 -718 22 -128 22 -129 -15 -103 -122 87
-289 299 -349 444 -57 137 -103 338 -126 546 l-6 55 67 -70 c36 -38 93 -108
126 -154z m-2665 -118 c-8 -251 -39 -375 -147 -598 -51 -104 -144 -255 -217
-351 l-22 -29 0 70 c-1 292 84 612 229 866 58 103 139 219 153 219 6 0 8 -68
4 -177z m-63 145 c-5 -7 -28 -42 -52 -78 -63 -93 -165 -308 -202 -425 -58
-184 -90 -389 -90 -582 0 -49 -4 -85 -11 -89 -15 -9 -157 133 -229 230 -36 47
-72 111 -91 160 -59 148 -41 323 47 473 86 147 210 223 476 293 126 33 163 37
152 18z m3178 -1022 c111 -93 191 -214 222 -333 21 -78 21 -228 0 -307 -49
-190 -156 -301 -369 -382 -62 -23 -261 -74 -291 -74 -7 0 13 37 43 82 186 278
293 631 293 967 0 141 -7 138 102 47z m-125 -103 c-9 -246 -50 -423 -152 -656
-60 -136 -190 -347 -214 -347 -15 0 -23 260 -11 375 20 206 75 362 186 532 52
80 183 252 193 253 2 0 1 -71 -2 -157z m-3385 -144 c4 -13 16 -76 28 -139 57
-311 221 -631 450 -873 25 -27 47 -53 48 -58 6 -15 -216 -11 -314 6 -183 31
-331 135 -407 286 -92 181 -90 331 4 529 50 106 161 281 174 277 5 -2 13 -15
17 -28z m273 -243 c62 -73 101 -139 135 -228 47 -121 65 -207 106 -512 l5 -40
-22 20 c-38 34 -134 156 -197 250 -125 187 -215 408 -257 626 -25 131 -26 131
86 27 55 -51 120 -115 144 -143z m2705 -669 c0 -19 -195 -207 -285 -274 -126
-94 -252 -164 -397 -222 -92 -36 -292 -87 -383 -96 l-70 -8 82 89 c194 213
291 295 433 368 150 78 275 113 490 141 129 17 130 17 130 2z m-15 -168 c-33
-251 -116 -461 -224 -570 -76 -75 -146 -99 -298 -99 -172 0 -339 52 -520 161
l-88 54 95 12 c362 48 718 229 979 497 36 36 66 64 68 62 2 -1 -3 -54 -12
-117z m-1835 -49 c153 -43 293 -125 517 -304 l101 -81 -61 -3 c-34 -2 -105 2
-157 8 -321 37 -612 155 -859 349 l-64 50 84 4 c177 9 360 -1 439 -23z m-502
-21 c115 -101 329 -223 500 -285 181 -66 384 -103 562 -104 l75 -1 -40 -35
c-65 -57 -213 -152 -305 -196 -115 -55 -226 -82 -309 -76 -218 16 -435 283
-521 641 -28 117 -29 116 38 56z"/>
<path d="M2100 2392 c-81 -45 -100 -157 -38 -228 61 -69 158 -68 216 2 52 63
48 143 -11 202 -45 44 -112 54 -167 24z"/>
<path d="M7855 3901 c-59 -28 -120 -75 -235 -181 -193 -179 -272 -225 -380
-224 -67 1 -186 35 -205 58 -5 6 -19 12 -30 13 -11 0 -59 17 -107 37 -114 48
-181 61 -235 47 -125 -34 -180 -171 -167 -414 8 -135 -4 -209 -47 -294 -67
-132 -218 -257 -398 -330 -108 -44 -183 -103 -202 -160 -27 -83 6 -210 82
-310 30 -41 39 -61 39 -93 0 -22 5 -40 10 -40 6 0 10 12 10 28 1 26 3 25 54
-30 108 -117 146 -255 115 -410 -13 -68 -51 -178 -60 -178 -4 0 -10 13 -14 30
-6 28 -21 47 -30 38 -3 -2 4 -27 14 -54 l19 -49 -31 -65 c-75 -156 -29 -289
128 -367 61 -31 126 -43 269 -53 72 -5 154 -16 181 -24 121 -37 194 -118 241
-268 70 -222 95 -270 170 -318 86 -54 180 -48 326 21 71 34 93 40 122 35 52
-10 70 6 23 19 l-38 11 79 47 c155 94 298 133 399 108 26 -7 83 -28 126 -48
66 -31 75 -38 58 -45 -32 -11 -26 -30 7 -22 15 4 28 8 30 10 2 1 34 -12 70
-29 56 -27 79 -32 137 -32 59 1 81 6 138 35 115 57 137 104 162 363 19 190 42
269 98 333 79 90 150 117 344 134 173 14 242 42 294 118 32 47 32 119 1 182
-12 25 -73 110 -136 188 -63 79 -129 174 -147 210 -29 59 -33 77 -34 147 0 92
15 128 90 216 105 122 144 209 152 334 14 210 -61 309 -244 322 -51 4 -81 11
-86 20 -5 7 -13 11 -18 8 -5 -4 -7 -10 -4 -15 10 -16 -61 -20 -112 -6 -176 47
-264 158 -317 399 -5 21 -3 27 11 27 14 0 13 3 -5 23 -12 13 -22 34 -22 46 0
36 -29 141 -52 184 -30 60 -101 123 -159 142 -39 13 -74 16 -143 13 -105 -6
-183 -30 -264 -84 -39 -26 -61 -34 -78 -30 -17 5 -24 2 -24 -7 0 -10 18 -16
56 -21 58 -7 79 -1 55 13 -10 6 8 19 60 44 215 102 393 65 470 -97 35 -74 48
-144 28 -157 -12 -8 -11 -11 2 -22 8 -6 26 -56 38 -110 30 -132 86 -241 154
-304 67 -61 180 -103 274 -103 52 0 65 -3 75 -20 16 -25 31 -26 23 -1 -8 27 2
30 68 21 130 -18 181 -89 180 -250 -1 -144 -28 -209 -143 -345 -77 -91 -100
-144 -100 -232 0 -120 52 -225 203 -404 161 -193 178 -289 66 -364 -46 -30
-96 -41 -250 -55 -64 -5 -136 -17 -160 -25 -104 -37 -182 -106 -225 -199 -26
-58 -54 -202 -54 -281 0 -52 0 -53 -55 -90 -50 -35 -67 -55 -47 -55 4 0 28 14
52 32 l43 32 -7 -44 c-19 -120 -37 -151 -117 -194 -74 -41 -165 -47 -237 -16
-28 12 -50 27 -49 34 1 6 -5 10 -14 8 -9 -1 -46 14 -84 34 -102 54 -168 74
-250 74 -121 0 -227 -41 -421 -165 -139 -89 -220 -119 -310 -113 -52 3 -70 9
-101 34 -56 45 -88 105 -124 229 -37 132 -75 209 -125 259 -82 82 -164 109
-379 125 -86 6 -158 17 -188 28 -68 25 -137 81 -165 133 -34 64 -26 119 37
250 72 150 95 248 89 377 -4 93 -8 109 -41 176 -22 44 -64 103 -108 151 -215
236 -235 407 -58 495 34 17 64 29 67 27 2 -3 -3 -26 -12 -52 -16 -47 -15 -61
2 -50 9 5 38 95 35 106 -1 3 35 25 80 48 106 54 197 130 263 216 75 98 96 158
102 291 l5 110 51 39 c27 22 45 41 38 44 -6 2 -29 -10 -49 -27 l-38 -32 -3 53
c-8 125 30 230 98 276 48 32 126 27 239 -18 72 -28 82 -35 68 -45 -31 -22 -20
-35 17 -20 31 13 39 12 95 -10 198 -77 311 -56 487 94 75 64 81 67 127 65 32
-1 47 2 44 10 -2 6 -18 11 -35 11 -18 0 -32 2 -32 5 0 10 119 110 171 146 28
18 68 39 90 45 42 13 53 39 17 39 -13 0 -41 -9 -63 -19z"/>
<path d="M7406 3671 c-53 -8 -62 -32 -9 -25 65 9 83 14 83 24 0 11 -12 11 -74
1z"/>
<path d="M7183 3623 c-29 -9 -53 -19 -53 -24 0 -12 8 -11 68 6 29 9 52 20 52
25 0 12 -3 12 -67 -7z"/>
<path d="M8054 3622 c4 -6 25 -16 47 -22 22 -6 47 -14 55 -17 8 -3 14 0 14 6
0 13 -31 27 -85 37 -27 5 -36 3 -31 -4z"/>
<path d="M8280 3547 c1 -15 98 -59 105 -47 6 9 -30 31 -80 50 -18 7 -25 6 -25
-3z"/>
<path d="M6765 3439 c-16 -11 -37 -24 -45 -29 -8 -5 -12 -12 -8 -15 7 -8 108
46 108 58 0 12 -24 6 -55 -14z"/>
<path d="M8677 3313 c-6 -10 82 -87 90 -79 3 3 -2 15 -13 27 -28 31 -72 60
-77 52z"/>
<path d="M6401 3136 c-23 -24 -39 -46 -34 -49 13 -8 86 68 82 82 -3 7 -24 -8
-48 -33z"/>
<path d="M8846 3152 c-4 -7 69 -92 79 -92 15 0 0 30 -31 63 -38 40 -40 41 -48
29z"/>
<path d="M6253 2950 c-18 -27 -28 -52 -23 -55 9 -6 70 76 70 94 0 22 -16 9
-47 -39z"/>
<path d="M6141 2756 c-13 -25 -21 -51 -19 -58 4 -11 58 80 58 97 0 17 -18 -1
-39 -39z"/>
<path d="M9117 2773 c-3 -5 7 -32 22 -62 16 -31 31 -49 35 -43 4 6 -5 34 -19
62 -26 51 -30 56 -38 43z"/>
<path d="M9219 2505 c16 -56 38 -77 28 -27 -9 42 -26 82 -35 82 -5 0 -2 -25 7
-55z"/>
<path d="M5993 2308 c-10 -54 -7 -76 7 -61 13 13 23 113 12 113 -6 0 -15 -24
-19 -52z"/>
<path d="M9268 2333 c-8 -14 13 -113 24 -113 7 0 8 18 4 53 -7 51 -19 77 -28
60z"/>
<path d="M7574 2111 c-53 -32 -68 -103 -34 -159 60 -97 205 -64 217 50 10 101
-94 163 -183 109z"/>
<path d="M9290 2050 c0 -44 4 -60 14 -60 13 0 13 10 8 93 -4 53 -22 26 -22
-33z"/>
<path d="M5972 1893 c2 -37 8 -58 17 -61 10 -3 12 1 8 19 -4 13 -7 41 -7 62 0
20 -5 37 -11 37 -7 0 -9 -21 -7 -57z"/>
<path d="M9286 1848 c-9 -35 -7 -103 3 -92 12 13 24 114 13 114 -6 0 -12 -10
-16 -22z"/>
<path d="M5998 1714 c-6 -6 17 -102 26 -112 13 -12 14 6 3 55 -12 53 -20 67
-29 57z"/>
<path d="M9244 1613 c-3 -16 -10 -40 -14 -55 -7 -21 -6 -28 4 -28 8 0 16 13
19 29 3 16 9 40 13 55 4 16 2 26 -5 26 -6 0 -13 -12 -17 -27z"/>
<path d="M9165 1378 c-9 -24 -19 -49 -22 -55 -3 -7 0 -13 6 -13 11 0 51 80 51
101 0 23 -20 5 -35 -33z"/>
<path d="M6147 1274 c-8 -8 43 -104 55 -104 12 0 10 6 -17 60 -27 53 -28 54
-38 44z"/>
<path d="M9057 1165 c-27 -46 -33 -65 -19 -65 8 0 62 86 62 100 0 22 -17 8
-43 -35z"/>
<path d="M6267 1073 c-8 -12 62 -105 74 -98 5 4 -4 25 -23 48 -45 59 -45 60
-51 50z"/>
<path d="M8926 974 c-21 -25 -36 -48 -33 -51 9 -8 23 4 57 46 43 56 21 60 -24
5z"/>
<path d="M6410 882 c0 -14 79 -86 87 -79 4 4 -11 25 -32 47 -38 39 -55 49 -55
32z"/>
<path d="M8765 800 c-21 -22 -36 -43 -32 -47 8 -7 87 65 87 79 0 17 -17 7 -55
-32z"/>
<path d="M6580 728 c1 -15 89 -83 97 -75 8 9 -2 20 -51 55 -27 20 -46 28 -46
20z"/>
<path d="M6770 592 c0 -8 86 -62 100 -62 23 0 6 19 -39 43 -52 29 -61 32 -61
19z"/>
<path d="M8383 537 c-41 -20 -55 -37 -33 -37 16 0 88 38 95 50 10 16 -16 11
-62 -13z"/>
<path d="M6980 485 c0 -12 72 -45 98 -45 28 0 8 16 -43 37 -40 15 -55 18 -55
8z"/>
<path d="M7202 409 c6 -17 100 -41 112 -29 5 5 -10 13 -35 20 -24 6 -52 14
-63 17 -12 3 -17 1 -14 -8z"/>
<path d="M7938 388 c-27 -6 -48 -14 -48 -19 0 -12 8 -11 70 2 27 6 50 15 50
20 0 10 -8 10 -72 -3z"/>
<path d="M7713 363 c-74 -6 -67 -25 7 -22 42 2 60 6 60 16 0 7 -3 12 -7 11 -5
-1 -32 -3 -60 -5z"/>
</g>
</svg>
